<?xml version="1.0" standalone="no"?>
<!DOCTYPE svg PUBLIC "-//W3C//DTD SVG 20010904//EN"
 "http://www.w3.org/TR/2001/REC-SVG-20010904/DTD/svg10.dtd">
<svg version="1.0" xmlns="http://www.w3.org/2000/svg"
 width="500.000000pt" height="500.000000pt" viewBox="0 0 500.000000 500.000000"
 preserveAspectRatio="xMidYMid meet">

<g transform="translate(0.000000,500.000000) scale(0.100000,-0.100000)"
fill="#000000" stroke="none">
<path d="M2115 3654 c-99 -64 -203 -131 -232 -150 l-52 -33 -3 77 -3 77 -115
0 -115 0 -5 -157 -5 -157 -160 -101 c-88 -56 -168 -110 -179 -120 -21 -20 -13
-44 13 -37 10 2 247 152 527 332 280 181 513 328 519 328 10 0 74 -41 662
-422 356 -230 380 -244 398 -237 29 11 14 27 -87 93 -57 37 -159 103 -228 148
-69 44 -200 130 -292 189 -93 59 -168 111 -167 114 0 4 36 30 81 58 l81 51
221 -145 c543 -357 770 -502 780 -499 28 9 14 37 -36 69 -212 141 -960 628
-963 628 -6 0 -110 -65 -162 -101 -23 -16 -46 -29 -52 -29 -5 0 -59 32 -119
70 -60 39 -113 70 -118 70 -5 0 -90 -52 -189 -116z m-335 -141 l0 -78 -38 -22
c-20 -12 -52 -32 -69 -44 l-33 -21 0 121 0 121 70 0 70 0 0 -77z"/>
<path d="M1920 3000 c-216 -24 -324 -136 -307 -318 14 -146 76 -209 320 -327
231 -110 267 -143 267 -240 0 -105 -61 -149 -205 -149 -165 1 -239 60 -281
227 -13 53 -20 67 -35 67 -11 0 -19 -3 -19 -7 0 -5 -9 -62 -20 -128 -11 -66
-20 -123 -20 -127 0 -9 79 -34 170 -54 107 -24 344 -24 429 -1 166 45 241 131
241 277 0 167 -74 244 -365 380 -216 101 -265 144 -265 233 0 87 62 129 190
129 145 0 217 -54 266 -197 14 -44 22 -55 40 -55 20 0 23 9 38 104 9 58 16
109 16 114 0 6 -19 17 -41 26 -101 41 -287 61 -419 46z"/>
<path d="M2582 2973 c2 -11 18 -20 46 -26 l42 -8 0 -474 0 -475 -27 -6 c-55
-12 -63 -16 -63 -30 0 -12 40 -14 250 -14 210 0 250 2 250 14 0 15 -10 19 -67
31 l-33 7 0 229 0 229 185 0 185 0 0 25 0 25 -185 0 -185 0 0 221 0 220 148
-3 c205 -4 233 -20 292 -167 20 -50 32 -67 49 -69 21 -3 22 -3 19 140 l-3 143
-453 3 c-425 2 -453 1 -450 -15z"/>
<path d="M1286 1794 c-26 -26 -20 -69 15 -98 17 -14 34 -26 38 -26 4 0 17 -9
29 -20 26 -25 29 -65 5 -79 -10 -6 -12 -11 -5 -11 21 0 52 39 52 65 0 26 -19
47 -80 87 -37 25 -49 60 -30 84 17 20 -4 18 -24 -2z"/>
<path d="M1386 1796 c10 -8 21 -12 24 -10 5 6 -21 24 -34 24 -6 0 -1 -6 10
-14z"/>
<path d="M1520 1701 c0 -129 3 -141 39 -140 17 1 20 3 9 6 -16 4 -18 19 -18
124 0 99 -3 119 -15 119 -12 0 -15 -19 -15 -109z"/>
<path d="M2310 1685 c0 -104 2 -125 15 -125 13 0 15 21 15 125 0 104 -2 125
-15 125 -13 0 -15 -21 -15 -125z"/>
<path d="M2403 1803 c9 -2 25 -2 35 0 9 3 1 5 -18 5 -19 0 -27 -2 -17 -5z"/>
<path d="M2950 1765 c0 -28 -4 -45 -12 -45 -9 0 -9 -3 0 -12 16 -16 16 -110 0
-126 -7 -7 -25 -12 -41 -12 -50 0 -69 86 -29 133 19 21 4 22 -25 2 -42 -30
-34 -121 12 -139 27 -10 70 -7 83 6 9 9 12 9 12 0 0 -7 7 -12 15 -12 13 0 15
21 15 125 0 104 -2 125 -15 125 -11 0 -15 -12 -15 -45z"/>
<path d="M3180 1697 c0 -119 6 -138 44 -136 17 1 18 2 4 6 -16 4 -18 19 -18
124 0 99 -3 119 -15 119 -12 0 -15 -19 -15 -113z"/>
<path d="M3340 1685 c0 -104 2 -125 15 -125 11 0 15 12 15 49 0 39 4 51 18 54
16 4 16 5 0 6 -15 1 -18 11 -18 71 0 56 -3 70 -15 70 -13 0 -15 -21 -15 -125z"/>
<path d="M3420 1803 c40 -14 54 -81 23 -115 -25 -28 4 -22 32 7 14 13 25 34
25 45 0 28 -44 70 -72 69 -15 0 -18 -3 -8 -6z"/>
<path d="M3616 1801 c-3 -4 18 -61 47 -124 37 -83 57 -116 69 -117 15 0 12 12
-18 78 -20 42 -45 98 -56 125 -20 46 -31 56 -42 38z"/>
<path d="M1452 1784 c4 -21 22 -23 26 -1 2 10 -3 17 -13 17 -10 0 -15 -6 -13
-16z"/>
<path d="M2587 1794 c-13 -13 -7 -24 14 -24 11 0 19 5 17 12 -5 14 -22 21 -31
12z"/>
<path d="M1810 1721 c0 -5 7 -11 15 -15 11 -4 15 -22 15 -76 0 -56 3 -70 15
-70 12 0 15 14 15 69 0 43 -5 72 -12 78 -20 15 -48 23 -48 14z"/>
<path d="M2153 1713 c10 -12 17 -41 19 -82 2 -40 8 -66 16 -69 9 -3 12 15 12
66 0 71 -5 82 -44 96 -19 6 -19 6 -3 -11z"/>
<path d="M3567 1695 c-24 -50 -20 -58 4 -12 11 22 19 41 17 43 -3 2 -12 -12
-21 -31z"/>
<path d="M1450 1640 c0 -64 3 -80 15 -80 12 0 15 16 15 80 0 64 -3 80 -15 80
-12 0 -15 -16 -15 -80z"/>
<path d="M1590 1716 c0 -3 16 -40 36 -83 27 -61 37 -74 44 -62 7 11 3 30 -11
58 -11 23 -24 52 -29 66 -5 14 -16 25 -25 25 -8 0 -15 -2 -15 -4z"/>
<path d="M1711 1689 c-6 -18 -9 -34 -7 -36 2 -2 9 10 15 28 6 18 9 34 7 36 -2
2 -9 -10 -15 -28z"/>
<path d="M1905 1643 c0 -51 4 -78 13 -81 9 -3 12 14 12 60 0 37 5 70 13 77 10
11 10 13 0 7 -7 -4 -13 -2 -13 3 0 6 -6 11 -12 11 -9 0 -13 -22 -13 -77z"/>
<path d="M1975 1713 c38 -10 45 -24 45 -89 0 -50 3 -64 15 -64 12 0 15 14 15
68 0 78 -9 92 -59 91 -22 -1 -28 -3 -16 -6z"/>
<path d="M2470 1640 c0 -64 3 -80 15 -80 12 0 15 16 15 80 0 64 -3 80 -15 80
-12 0 -15 -16 -15 -80z"/>
<path d="M2517 1713 c-3 -5 8 -9 24 -10 16 -1 29 2 29 7 0 12 -47 13 -53 3z"/>
<path d="M2590 1640 c0 -64 3 -80 15 -80 12 0 15 16 15 80 0 64 -3 80 -15 80
-12 0 -15 -16 -15 -80z"/>
<path d="M2664 1699 c-39 -44 -13 -139 39 -139 19 0 19 1 4 13 -9 6 -21 24
-26 40 l-11 27 65 0 c71 0 82 12 49 58 -19 28 -39 30 -24 3 21 -41 13 -51 -41
-51 -48 0 -50 1 -43 23 3 12 11 28 16 35 18 21 -7 14 -28 -9z"/>
<path d="M3021 1694 c-12 -15 -21 -39 -21 -54 0 -34 35 -80 60 -80 17 0 17 3
-5 25 -43 42 -34 55 40 55 39 0 65 4 65 11 0 15 -21 53 -34 61 -21 15 -27 8
-12 -14 27 -38 20 -48 -34 -48 -54 0 -61 10 -34 48 22 31 0 28 -25 -4z"/>
<path d="M2400 1690 c19 -13 30 -13 30 0 0 6 -10 10 -22 10 -19 0 -20 -2 -8
-10z"/>
<path d="M1762 1634 c-42 -29 -21 -75 33 -73 20 1 24 3 10 6 -11 3 -24 9 -29
13 -13 13 2 58 22 63 13 4 13 5 2 6 -9 0 -26 -6 -38 -15z"/>
<path d="M2102 1643 c-22 -9 -34 -41 -22 -63 8 -14 20 -20 43 -19 21 1 25 3
12 6 -38 10 -44 34 -15 63 19 19 11 25 -18 13z"/>
<path d="M3527 1605 c-19 -40 -20 -45 -9 -45 7 0 33 72 28 77 -1 2 -10 -13
-19 -32z"/>
<path d="M1260 1592 c0 -15 38 -35 53 -28 8 3 7 5 -2 5 -8 1 -23 8 -33 18 -10
9 -18 11 -18 5z"/>
<path d="M2760 1570 c-9 -6 -10 -10 -3 -10 6 0 15 5 18 10 8 12 4 12 -15 0z"/>
<path d="M2473 1230 c0 -41 2 -58 4 -37 2 20 2 54 0 75 -2 20 -4 3 -4 -38z"/>
<path d="M2162 1223 c0 -38 3 -53 5 -35 6 44 45 46 68 2 21 -40 29 -38 12 3
-10 22 -11 37 -4 48 18 29 1 49 -43 49 l-40 0 2 -67z m73 32 c0 -15 -8 -21
-32 -23 -30 -3 -33 -1 -33 23 0 24 3 26 33 23 24 -2 32 -8 32 -23z"/>
<path d="M2547 1283 c-20 -19 -5 -45 33 -60 53 -21 51 -49 -3 -47 -20 1 -34
-3 -31 -7 6 -10 45 -12 68 -3 19 7 21 38 4 51 -7 6 -26 13 -41 17 -43 10 -32
41 15 41 20 0 34 3 31 8 -5 9 -67 9 -76 0z"/>
<path d="M2648 1262 c-2 -10 -1 -35 2 -57 4 -30 10 -41 25 -43 18 -2 18 -2 3
8 -21 13 -24 67 -5 72 9 2 8 7 -4 20 -16 15 -17 15 -21 0z"/>
<path d="M2802 1260 c-7 -11 -8 -20 -3 -20 6 0 11 -17 13 -37 2 -25 8 -38 18
-39 9 0 10 1 3 3 -7 3 -13 20 -13 39 0 20 5 34 13 34 8 0 9 3 1 8 -6 4 -13 13
-15 20 -3 8 -8 5 -17 -8z"/>
<path d="M2298 1253 c-22 -5 -35 -50 -21 -72 12 -19 51 -27 66 -12 7 7 3 8
-12 4 -21 -5 -51 11 -51 28 0 5 16 9 35 9 24 0 35 5 35 15 0 18 -29 33 -52 28z
m32 -18 c11 -13 8 -15 -21 -15 -32 1 -33 1 -15 15 24 18 21 18 36 0z"/>
<path d="M2377 1240 c-18 -15 -20 -22 -12 -46 9 -25 16 -29 48 -30 l37 -1 0
42 c0 38 -3 43 -25 48 -16 3 -34 -2 -48 -13z m56 -19 c6 -23 -10 -51 -28 -51
-18 0 -34 30 -27 50 11 33 46 33 55 1z"/>
<path d="M2718 1247 c-21 -17 -27 -38 -17 -65 7 -18 15 -22 44 -20 34 2 35 3
35 47 0 24 -3 41 -6 38 -4 -3 -14 -2 -24 3 -11 6 -22 5 -32 -3z m52 -35 c0
-27 -16 -44 -36 -40 -22 4 -31 43 -14 63 15 18 50 2 50 -23z"/>
<path d="M2869 1241 c-20 -16 -22 -23 -14 -47 11 -29 48 -45 66 -27 5 5 -3 9
-18 8 -18 0 -29 6 -31 18 -3 13 3 17 27 17 36 0 42 23 12 40 -15 7 -25 5 -42
-9z m51 -12 c0 -5 -11 -9 -25 -9 -26 0 -34 15 -12 23 16 5 37 -3 37 -14z"/>
<path d="M1890 1036 l0 -66 33 0 c49 0 56 9 54 70 l-2 55 -42 3 -43 3 0 -65z
m77 38 c7 -19 -13 -34 -44 -34 -18 0 -23 6 -23 25 0 21 5 25 30 25 19 0 33 -6
37 -16z m-2 -69 c0 -15 -8 -21 -32 -23 -30 -3 -33 -1 -33 23 0 24 3 26 33 23
24 -2 32 -8 32 -23z"/>
<path d="M2163 1035 c-1 -38 1 -61 4 -50 3 11 17 32 31 48 14 15 21 27 15 27
-6 0 -17 -7 -24 -17 -13 -15 -15 -12 -20 23 -5 30 -6 23 -6 -31z"/>
<path d="M2447 1038 c-26 -59 -31 -92 -7 -49 7 14 21 21 40 21 19 0 33 -7 40
-21 7 -11 14 -19 16 -16 6 6 -47 127 -56 127 -4 0 -19 -28 -33 -62z m50 12
c11 -29 10 -30 -17 -30 -27 0 -28 1 -17 30 6 17 14 30 17 30 3 0 11 -13 17
-30z"/>
<path d="M3032 1070 c-7 -11 -8 -20 -3 -20 6 0 11 -17 13 -37 2 -25 8 -38 18
-39 9 0 10 1 3 3 -7 3 -13 20 -13 39 0 20 5 34 13 34 8 0 9 3 1 8 -6 4 -13 13
-15 20 -3 8 -8 5 -17 -8z"/>
<path d="M2030 1061 c-8 -6 -18 -7 -22 -5 -4 3 -7 -16 -7 -43 1 -26 3 -39 6
-28 2 11 6 30 9 43 2 12 11 22 19 22 8 0 15 5 15 10 0 12 -1 12 -20 1z"/>
<path d="M2077 1056 c-20 -16 -26 -38 -16 -64 7 -18 15 -23 35 -20 33 4 49 27
41 60 -8 29 -39 42 -60 24z m53 -34 c-1 -50 -53 -57 -58 -8 -2 16 2 32 9 37
18 11 49 -8 49 -29z"/>
<path d="M2249 1049 c-21 -21 -18 -56 5 -71 15 -10 56 -10 56 0 0 4 -12 8 -27
7 -18 0 -29 6 -31 18 -3 14 4 17 32 17 36 0 42 6 28 26 -15 22 -42 24 -63 3z
m51 -10 c0 -5 -11 -9 -25 -9 -26 0 -34 15 -12 23 16 5 37 -3 37 -14z"/>
<path d="M2360 1061 c-8 -6 -18 -7 -22 -5 -4 3 -7 -16 -7 -43 1 -26 3 -39 6
-28 2 11 6 30 9 43 2 12 11 22 19 22 8 0 15 5 15 10 0 12 -1 12 -20 1z"/>
<path d="M2564 1056 c-20 -15 -12 -34 23 -47 30 -11 20 -33 -14 -26 -16 3 -21
1 -15 -5 5 -5 20 -8 33 -6 33 4 32 40 0 48 -43 10 -38 36 7 31 16 -2 15 6 -2
12 -8 3 -22 0 -32 -7z"/>
<path d="M2658 1062 c-28 -6 -22 -41 7 -48 38 -9 33 -37 -5 -32 -19 3 -27 1
-21 -5 14 -14 55 -4 59 15 2 12 -6 21 -22 28 -40 15 -32 36 12 31 6 -1 12 0
12 2 0 8 -25 13 -42 9z"/>
<path d="M2737 1056 c-20 -16 -26 -38 -16 -64 7 -18 15 -23 35 -20 33 4 49 27
41 60 -8 29 -39 42 -60 24z m53 -34 c-1 -50 -53 -57 -58 -8 -2 16 2 32 9 37
18 11 49 -8 49 -29z"/>
<path d="M2838 1062 c-22 -4 -35 -49 -21 -71 11 -18 63 -28 63 -12 0 6 -7 8
-15 5 -20 -8 -45 13 -45 37 0 20 28 39 48 32 6 -3 12 -3 12 0 0 8 -24 14 -42
9z"/>
<path d="M2948 1059 c-21 -12 -24 -62 -4 -78 7 -6 25 -10 40 -9 24 2 26 6 26
44 0 29 -4 41 -15 41 -11 0 -12 -4 -4 -13 6 -7 9 -23 7 -36 -2 -17 -10 -23
-28 -23 -31 0 -40 38 -14 66 19 21 17 23 -8 8z"/>
<path d="M3099 1051 c-20 -16 -22 -23 -14 -47 11 -29 48 -45 66 -27 5 5 -3 9
-18 8 -18 0 -29 6 -31 18 -3 13 3 17 27 17 36 0 42 23 12 40 -15 7 -25 5 -42
-9z m51 -12 c0 -5 -11 -9 -25 -9 -26 0 -34 15 -12 23 16 5 37 -3 37 -14z"/>
<path d="M2903 1015 c0 -27 2 -38 4 -22 2 15 2 37 0 50 -2 12 -4 0 -4 -28z"/>
<path d="M2194 991 c11 -11 23 -21 28 -21 14 0 -1 19 -25 31 -22 12 -22 12 -3
-10z"/>
</g>
</svg>
