<?xml version="1.0" standalone="no"?>
<!DOCTYPE svg PUBLIC "-//W3C//DTD SVG 20010904//EN"
 "http://www.w3.org/TR/2001/REC-SVG-20010904/DTD/svg10.dtd">
<svg version="1.0" xmlns="http://www.w3.org/2000/svg"
 width="960.000000pt" height="663.000000pt" viewBox="0 0 960.000000 663.000000"
 preserveAspectRatio="xMidYMid meet">
<metadata>
Created by potrace 1.16, written by Peter Selinger 2001-2019
</metadata>
<g transform="translate(0.000000,663.000000) scale(0.100000,-0.100000)"
fill="#000000" stroke="none">
<path d="M9 5803 c-1 -450 -2 -1027 -1 -1283 0 -256 -1 -537 -1 -625 -1 -88
-2 -223 -1 -300 0 -77 0 -210 0 -295 -1 -273 1 -554 4 -575 2 -11 -1 -140 -5
-287 -6 -209 -5 -268 5 -268 9 0 10 -17 5 -68 -4 -37 -8 -295 -10 -574 -3
-388 -1 -508 8 -509 7 -1 37 -1 67 0 40 0 49 -2 35 -8 -23 -11 611 -8 848 4
115 6 157 5 157 -4 0 -6 6 -11 14 -11 8 0 16 -16 20 -40 6 -38 8 -40 41 -40
24 0 35 -5 35 -15 0 -14 -14 -19 -70 -28 -14 -3 2 -5 35 -7 l60 -3 -90 -12
c-114 -15 -108 -16 230 -15 368 1 519 16 766 75 107 26 212 55 234 66 37 18
66 19 373 19 l332 0 7 -30 c3 -17 10 -33 14 -36 21 -12 6 -32 -36 -48 -25 -10
-45 -21 -45 -25 0 -10 100 -21 181 -21 36 0 59 -5 62 -12 4 -10 8 -10 14 -2 5
8 76 14 213 17 215 5 281 16 322 53 66 59 113 77 221 88 34 3 40 -5 42 -59 2
-40 0 -43 -34 -56 -20 -7 -40 -12 -45 -10 -5 1 -4 -5 3 -13 7 -8 31 -17 54
-20 80 -11 592 -13 664 -3 81 11 83 13 83 105 0 47 2 52 18 44 9 -5 34 -8 54
-8 21 1 38 -3 38 -8 0 -5 6 -3 14 3 10 9 16 9 21 1 4 -6 15 -8 25 -5 10 3 21
1 25 -5 5 -8 11 -8 20 0 7 6 29 8 49 5 42 -7 70 4 40 16 -25 11 81 8 120 -3
36 -9 72 -11 156 -4 313 23 421 27 620 18 118 -4 326 -7 462 -5 224 3 252 1
305 -16 58 -20 347 -97 498 -133 66 -16 135 -20 403 -25 217 -4 322 -3 322 4
0 6 -14 13 -32 17 l-32 6 22 22 22 22 107 -23 c293 -63 402 -80 563 -90 219
-14 493 -14 485 -1 -3 6 -14 10 -23 10 -31 0 -98 23 -82 28 22 7 60 44 60 58
0 18 61 28 123 21 31 -4 47 -3 41 3 -5 5 -26 10 -47 12 -21 1 -41 6 -43 10 -8
13 160 8 265 -8 52 -8 109 -14 128 -14 l33 0 0 683 c0 518 -3 686 -12 695 -9
9 -9 12 1 12 10 0 12 38 9 183 -2 100 -8 190 -12 200 -8 17 -9 17 -22 0 -8
-11 -13 -13 -14 -5 0 6 -4 12 -10 12 -5 0 -10 -6 -10 -12 0 -8 -18 -14 -49
-16 -48 -3 -49 -2 -56 28 -9 41 -25 28 -25 -22 0 -31 -4 -41 -20 -45 -11 -3
-20 -12 -20 -20 0 -8 4 -12 9 -9 5 3 11 -1 15 -9 6 -16 3 -17 -114 -17 -65 0
-69 -1 -30 -7 l45 -7 -40 -6 c-22 -3 -8 -3 30 -1 39 2 79 6 90 9 15 4 16 3 6
-4 -11 -8 -11 -11 0 -16 8 -3 4 -3 -8 0 -14 3 -23 1 -23 -6 0 -8 -41 -11 -132
-10 -255 2 -238 4 -244 -30 -4 -16 -10 -27 -15 -25 -9 6 -40 -35 -33 -46 2 -4
0 -10 -6 -14 -5 -3 -10 -1 -10 4 0 6 -5 11 -11 11 -6 0 -9 -9 -6 -20 3 -11 2
-18 -2 -15 -9 5 -15 118 -41 825 -36 957 -39 1081 -39 1653 -1 258 -5 446 -10
443 -12 -8 -20 39 -10 56 6 9 9 5 9 -12 1 -22 2 -23 11 -7 5 9 7 22 3 28 -3 6
0 15 7 20 8 5 9 9 4 9 -20 0 -85 -62 -85 -81 0 -11 -4 -18 -8 -15 -11 7 -54
-23 -47 -33 2 -5 -4 -16 -14 -25 -20 -18 -18 -51 4 -72 8 -9 10 -78 7 -240 -3
-215 -9 -386 -13 -409 -1 -5 2 -120 6 -255 10 -326 12 -395 15 -662 2 -126 6
-228 9 -228 3 0 6 -36 6 -80 0 -44 -2 -80 -5 -80 -3 0 -4 -143 -2 -317 2 -223
-1 -318 -8 -323 -13 -8 -3 -80 11 -80 5 0 9 -12 9 -26 0 -19 -4 -25 -15 -20
-12 4 -15 -3 -15 -29 0 -24 -5 -35 -15 -35 -12 0 -15 -13 -15 -56 0 -37 -4
-53 -11 -48 -6 3 -9 17 -6 30 3 19 0 24 -17 24 -28 -1 -52 -21 -53 -45 -2 -60
-14 -145 -23 -166 -10 -22 -10 -22 -4 6 9 46 12 135 4 135 -4 0 -8 40 -8 89 0
49 -3 94 -6 100 -5 7 -48 11 -117 11 -80 0 -109 3 -109 13 0 8 -3 9 -8 1 -4
-6 -32 -11 -62 -11 -37 0 -47 2 -30 6 23 7 23 8 5 12 -25 7 -47 0 -39 -12 3
-5 -29 -9 -75 -9 l-81 0 5 -57 c3 -32 8 -71 10 -86 3 -17 1 -26 -5 -22 -6 3
-10 15 -10 25 0 25 -16 34 -24 13 -4 -9 -1 -20 6 -24 9 -6 9 -11 0 -21 -17
-21 -138 -23 -146 -2 -3 8 -10 12 -16 9 -6 -4 -10 12 -9 42 1 43 2 45 9 18 6
-25 8 -20 10 30 2 33 3 72 4 86 0 17 5 25 12 22 7 -3 21 0 31 6 15 9 13 10
-11 5 -20 -5 -27 -4 -22 4 5 8 1 10 -11 5 -16 -6 -16 -5 -4 10 7 9 28 19 47
23 18 3 38 11 43 18 5 6 12 47 14 91 3 44 8 98 11 120 4 32 3 35 -4 15 -9 -24
-9 -24 -7 -2 2 28 21 30 25 2 6 -38 18 -20 14 21 -3 24 -10 43 -19 46 -12 5
-12 7 -1 15 10 7 10 11 -5 22 -17 13 -24 66 -8 66 4 0 6 12 3 28 -6 27 -6 27
-14 -8 -4 -19 -5 -59 -2 -87 4 -36 3 -53 -5 -53 -6 0 -11 -7 -11 -15 0 -8 -5
-15 -10 -15 -6 0 -8 11 -4 26 6 24 5 26 -17 22 -13 -3 -33 -9 -44 -13 -16 -5
-17 -5 -5 4 13 9 13 11 0 11 -9 0 -16 8 -16 19 0 10 6 17 12 14 7 -2 14 4 17
14 4 15 5 14 6 -4 0 -12 -5 -24 -11 -26 -7 -3 2 -6 20 -6 20 -1 31 3 27 9 -3
6 -2 10 4 10 5 0 11 -6 14 -12 2 -7 7 -10 11 -7 4 4 -8 22 -26 41 -19 18 -37
41 -41 51 -3 9 -13 17 -22 17 -12 0 -15 16 -15 88 l0 87 52 32 51 32 1 140 c1
76 -3 137 -7 134 -5 -3 -7 -13 -4 -23 3 -11 -2 -21 -10 -24 -12 -5 -14 0 -11
24 5 35 0 37 -47 10 -42 -24 -46 -24 -39 -6 3 8 15 17 27 19 20 4 19 4 -3 6
l-25 1 0 134 c0 129 1 135 25 161 14 15 37 34 52 42 26 16 26 18 27 135 2 132
9 121 -77 120 -39 0 -42 1 -38 24 3 13 7 28 11 34 3 5 3 10 -2 10 -9 0 -9 93
1 108 3 6 0 12 -6 15 -7 2 3 14 25 27 42 25 51 46 10 25 -15 -8 -28 -13 -29
-12 0 1 -4 17 -8 36 -6 31 -2 38 49 87 l55 54 0 115 0 115 -65 0 c-59 0 -65 2
-65 21 0 11 5 17 10 14 6 -3 10 0 10 7 0 9 -14 13 -47 11 -27 -1 -40 0 -31 3
9 3 19 15 21 27 l4 22 2 -22 c1 -22 31 -34 31 -14 0 6 9 8 20 6 11 -2 18 0 15
6 -4 5 -13 9 -21 9 -20 0 -17 20 4 20 15 1 15 2 -3 16 -16 12 -17 16 -6 23 9
6 10 11 2 15 -6 4 -11 34 -11 67 0 58 2 62 57 132 56 70 58 74 55 125 l-4 52
51 0 c47 0 51 2 51 24 0 30 -34 56 -72 56 -27 0 -28 2 -28 50 l0 49 -154 -6
c-133 -5 -157 -4 -177 11 -25 17 -57 20 -108 10 -34 -7 -41 -20 -13 -26 18 -4
-964 -13 -1400 -13 l-247 0 -17 -93 c-11 -54 -22 -91 -28 -89 -6 2 -16 -3 -23
-12 -7 -9 -13 -11 -13 -5 0 7 -11 9 -25 6 -14 -2 -22 -9 -18 -15 4 -6 0 -8
-11 -4 -11 4 -19 1 -23 -11 -4 -9 -15 -23 -25 -30 -22 -16 -24 -50 -3 -58 8
-4 15 -14 15 -24 0 -10 -7 -20 -15 -24 -11 -4 -15 -21 -15 -66 0 -64 4 -71 27
-42 13 16 13 15 7 -7 -6 -23 -5 -24 35 -17 l41 6 2 -57 1 -58 7 50 7 50 1 -55
c1 -30 -2 -71 -8 -90 -7 -24 -6 -36 2 -41 9 -6 9 -11 -1 -22 -9 -12 -9 -16 1
-21 10 -5 10 -7 1 -12 -7 -3 -13 -12 -13 -20 0 -8 -5 -14 -11 -14 -5 0 -7 -4
-4 -10 3 -5 -10 -19 -29 -31 -39 -23 -40 -25 -27 -81 5 -22 5 -38 0 -38 -13 0
-11 -124 3 -138 6 -6 8 -15 4 -19 -4 -4 -11 -1 -16 7 -7 11 -11 11 -24 1 -9
-8 -16 -19 -16 -25 0 -6 5 -4 10 4 9 13 11 13 19 0 5 -8 8 -17 6 -20 -2 -4 6
-6 18 -6 14 1 26 -8 32 -21 5 -13 16 -23 24 -23 8 0 11 -7 8 -20 -3 -11 -1
-17 4 -14 6 3 9 15 7 26 -2 14 3 22 15 24 11 1 17 -4 17 -17 0 -10 -4 -19 -10
-19 -13 0 -13 -127 0 -132 5 -1 0 -14 -11 -28 -20 -24 -20 -24 -14 -2 4 13 2
22 -4 22 -6 0 -11 -16 -11 -36 0 -27 -7 -41 -25 -56 -14 -11 -25 -26 -25 -34
0 -8 -5 -14 -11 -14 -6 0 -8 -9 -4 -20 3 -11 0 -29 -8 -40 -10 -14 -13 -36
-10 -64 4 -36 1 -47 -18 -65 -12 -11 -31 -21 -41 -21 -10 0 -18 -3 -18 -8 0
-4 -82 -9 -182 -10 -101 -2 -209 -6 -240 -11 -31 -4 -55 -4 -53 0 8 12 -24 19
-49 9 -20 -7 -26 -18 -31 -62 -12 -96 -12 -128 -2 -128 6 0 6 -4 0 -12 -6 -7
-13 -46 -16 -86 -5 -58 -3 -74 9 -79 10 -4 14 -25 15 -77 1 -39 4 -57 6 -41 2
17 7 37 10 45 3 8 5 20 4 26 -1 11 105 10 137 -1 7 -3 10 0 7 5 -9 14 248 13
262 -1 8 -8 13 -8 17 0 11 16 73 14 79 -3 3 -8 15 -14 26 -13 22 1 30 17 9 17
-6 0 -8 3 -5 6 4 4 14 1 23 -7 10 -8 27 -14 38 -14 16 0 22 -7 24 -32 2 -18 7
-33 12 -33 17 0 20 -34 4 -57 -8 -14 -13 -31 -10 -39 5 -12 1 -14 -16 -8 -21
6 -21 6 -5 -10 9 -10 16 -29 16 -44 -1 -22 -2 -23 -6 -6 -2 12 -13 30 -24 40
-22 20 -26 8 -4 -16 8 -9 18 -32 22 -51 6 -32 5 -33 -10 -17 -9 9 -17 25 -17
35 0 20 -18 43 -33 43 -4 0 -1 -10 7 -22 11 -16 15 -43 14 -93 l-2 -70 -5 75
-6 75 -245 3 c-180 2 -246 6 -252 15 -9 14 -10 6 -10 -93 l0 -65 -9 60 c-5 33
-8 70 -6 83 2 12 0 22 -4 22 -5 0 -9 -9 -9 -20 0 -31 -20 -24 -21 8 -2 25 -2
26 -6 3 -5 -26 -31 -52 -76 -77 -23 -12 -45 -14 -103 -9 -50 5 -74 4 -74 -3 0
-6 19 -13 43 -15 31 -3 26 -4 -17 -4 -50 1 -64 5 -85 26 -20 20 -36 26 -69 26
-30 0 -41 -4 -37 -12 2 -7 0 -13 -5 -13 -12 0 -13 22 -1 52 l9 23 -102 -3
c-55 -1 -173 -3 -261 -5 -154 -2 -160 -3 -157 -22 2 -18 2 -19 -8 -2 -12 18
-30 15 -30 -6 0 -8 3 -8 9 1 6 10 10 7 15 -13 4 -15 5 -30 1 -33 -3 -3 -5 0
-5 6 0 7 -6 12 -12 12 -7 -1 -3 -9 10 -20 15 -12 19 -21 11 -26 -8 -5 -8 -9 1
-14 9 -6 6 -11 -10 -20 -20 -11 -22 -10 -17 4 5 13 -2 16 -42 16 -33 0 -51 5
-54 14 -5 12 1 13 29 9 41 -7 45 9 9 33 -24 16 -33 38 -17 47 4 2 2 2 -5 1 -6
-2 -17 4 -23 12 -10 11 -10 14 1 14 8 0 4 8 -10 19 -23 18 -23 19 -5 24 16 4
16 5 -3 6 -16 1 -23 7 -23 22 0 17 3 19 14 10 19 -16 22 -8 31 67 5 43 4 62
-4 62 -7 0 -11 40 -11 120 0 124 -16 167 -23 63 -2 -32 -2 -22 0 22 4 103 7
120 22 139 11 13 11 19 1 31 -21 26 -40 149 -29 190 6 20 13 34 16 31 12 -11
33 17 33 43 0 20 2 23 10 11 7 -11 10 -4 10 25 -1 52 -16 119 -29 123 -17 6
-14 92 4 98 20 8 19 34 -2 50 -17 13 -17 13 0 14 22 0 22 26 1 34 -12 5 -15
14 -10 36 7 36 -1 60 -19 54 -7 -3 -15 4 -18 15 -3 13 1 21 11 23 14 3 14 6
-5 25 l-22 22 22 7 c11 4 27 13 35 20 11 12 11 14 -2 14 -9 0 -16 5 -16 10 0
6 7 10 15 10 8 0 15 5 15 10 0 6 -7 10 -15 10 -8 0 -15 5 -15 10 0 6 7 10 16
10 8 0 12 5 9 10 -3 6 -1 10 4 10 6 0 11 5 11 10 0 6 10 20 22 32 14 14 18 23
10 26 -7 2 -12 21 -12 43 0 21 -4 39 -10 39 -5 0 -10 18 -10 40 0 28 -4 40
-14 40 -16 0 -19 71 -3 81 5 4 0 12 -12 18 -11 7 -21 20 -21 30 0 10 -7 24
-15 31 -12 10 -15 38 -15 136 0 158 -18 176 -22 22 l-3 -113 -18 74 c-11 49
-17 114 -17 197 l0 124 -46 0 c-29 0 -43 4 -39 11 4 6 13 8 21 5 8 -3 24 -1
36 4 22 8 22 9 3 11 -38 4 -70 4 -75 -1 -3 -3 -23 -2 -45 1 l-40 6 43 2 c40 1
42 3 42 31 0 28 -2 30 -39 30 -43 0 -51 10 -51 66 0 24 -5 34 -15 34 -11 0
-15 -11 -15 -40 0 -27 -4 -40 -14 -40 -9 0 -15 20 -20 61 -9 93 -8 99 14 99
17 0 20 7 20 40 0 33 -3 40 -20 40 -17 0 -20 -7 -20 -40 l0 -40 -40 0 -40 0 0
-40 c0 -33 -3 -40 -20 -40 -17 0 -20 7 -20 40 0 33 -3 40 -20 40 -19 0 -20 7
-20 119 l0 120 38 4 c20 2 2 2 -40 -1 l-78 -4 0 61 0 61 -40 0 c-33 0 -40 -3
-40 -20 0 -17 -7 -20 -40 -20 -38 0 -40 2 -40 30 0 28 -2 30 -40 30 -22 0 -40
5 -40 10 0 6 18 10 40 10 l40 0 0 40 c0 30 4 40 16 40 9 0 14 7 12 17 -5 25
-28 28 -28 4 0 -20 -5 -21 -120 -21 l-120 0 0 40 0 40 100 0 c60 0 100 4 100
10 0 6 -10 10 -21 10 -18 0 -21 5 -17 30 l5 30 -65 0 -65 0 5 100 5 100 -84 0
c-76 0 -83 2 -83 20 0 13 -7 20 -20 20 -11 0 -20 -5 -20 -12 0 -9 -3 -9 -12 0
-7 7 -30 13 -52 14 -23 1 2 5 54 8 l95 6 -125 4 c-85 2 -112 5 -85 10 39 6 39
6 10 12 -16 3 21 6 83 7 61 0 112 5 112 9 0 5 -628 10 -1395 11 l-1395 2 -1
-818z m761 -469 c41 -42 86 -81 100 -87 15 -6 114 -12 244 -13 244 -3 249 -4
267 -75 7 -30 8 -28 6 19 l-2 54 155 -4 155 -3 3 -38 c2 -28 -1 -36 -9 -31 -9
5 -10 1 -7 -14 4 -12 2 -25 -3 -28 -13 -8 -11 -82 2 -86 7 -2 8 -17 4 -41 -5
-28 -12 -37 -27 -37 -11 0 -26 -7 -35 -15 -13 -14 -12 -18 12 -37 l28 -22 -6
-123 c-4 -78 -3 -123 3 -123 6 0 10 16 10 36 0 20 6 42 14 48 8 6 17 21 21 34
5 17 2 22 -11 22 -26 0 -8 13 22 16 21 2 23 0 14 -11 -10 -12 -9 -16 4 -21 9
-3 15 -16 15 -28 -1 -17 -2 -18 -6 -3 -6 25 -29 15 -26 -12 2 -11 -2 -21 -7
-21 -6 0 -10 5 -10 11 0 5 -4 7 -10 4 -5 -3 -10 -25 -10 -49 0 -38 -2 -42 -22
-41 -20 1 -24 9 -29 51 l-6 49 -3 -45 c-2 -25 -5 -56 -6 -70 -3 -45 -4 -50
-11 -50 -9 0 -7 284 1 305 6 15 -215 23 -399 15 l-110 -5 -3 -153 -3 -153 133
1 c285 2 359 0 353 -10 -3 -5 0 -10 8 -10 7 0 20 -11 27 -25 7 -14 17 -25 22
-25 5 0 7 -9 3 -20 -4 -12 2 -30 16 -49 22 -30 22 -31 4 -51 -10 -11 -26 -22
-36 -25 -11 -4 -19 -14 -19 -24 0 -17 -10 -18 -115 -17 -124 1 -158 -11 -47
-17 37 -2 -25 -3 -138 -3 -188 0 -194 1 -70 6 l135 6 -143 2 c-112 2 -142 -1
-137 -10 4 -7 1 -6 -7 2 -8 10 -25 14 -48 11 -32 -4 -33 -4 -10 -10 l25 -7 0
-152 c0 -101 -4 -152 -11 -152 -6 0 -10 32 -10 88 1 141 -5 202 -21 202 -7 0
-13 -6 -13 -14 0 -8 -5 -18 -10 -21 -12 -8 -65 23 -56 32 3 4 1 13 -6 20 -9
11 -9 16 2 23 9 6 11 22 7 62 -8 69 21 183 41 162 30 -33 42 -5 42 104 l0 72
-31 0 -32 0 6 -72 c3 -40 2 -57 -2 -38 l-7 35 -11 -30 -11 -30 -1 27 c-1 19
-5 26 -15 22 -11 -4 -14 6 -12 50 3 62 16 90 16 35 0 -19 5 -41 10 -49 7 -11
10 -7 10 17 0 17 4 33 8 35 13 4 23 108 12 108 -6 0 -10 6 -10 14 0 8 -7 21
-15 30 -14 13 -13 16 2 26 13 8 15 13 5 16 -29 13 -42 63 -43 166 -1 72 -4 92
-9 68 -7 -34 -7 -34 -9 13 -1 31 -5 46 -12 42 -6 -4 -9 -47 -8 -111 1 -57 0
-106 -2 -108 -3 -3 -42 29 -87 71 l-82 75 0 144 c0 79 3 144 8 144 4 0 41 -34
82 -76z m261 -1413 c-11 -7 -9 -10 8 -16 11 -3 21 -13 21 -21 0 -8 5 -14 10
-14 6 0 10 -7 10 -15 0 -8 7 -15 16 -15 10 0 14 6 10 15 -3 9 0 15 8 15 7 0
19 6 26 14 6 8 18 12 26 9 10 -4 12 -9 4 -18 -22 -26 27 -26 93 0 12 5 17 2
17 -9 0 -10 -9 -16 -27 -17 -28 -2 -28 -2 -3 -6 14 -3 30 -9 37 -15 7 -5 17
-7 24 -3 6 4 15 1 20 -6 8 -12 11 -12 19 1 9 13 10 13 10 0 0 -13 1 -13 10 0
8 12 13 13 29 3 24 -15 29 -8 26 34 -1 20 4 34 13 38 10 3 12 0 8 -10 -6 -17
19 -21 29 -5 9 15 22 12 29 -5 3 -8 -5 -24 -17 -36 -12 -12 -17 -19 -11 -16 8
4 14 -5 17 -26 3 -17 8 -41 11 -52 4 -11 1 -28 -7 -39 -11 -15 -17 -17 -35 -7
-19 10 -22 9 -22 -9 0 -17 -6 -20 -40 -20 -22 0 -40 4 -40 10 0 5 -33 9 -80 7
-59 -1 -80 -6 -80 -15 0 -9 9 -12 28 -8 15 3 45 1 67 -4 32 -6 17 -8 -70 -9
-60 0 -118 0 -127 0 -15 -1 -18 -11 -18 -58 0 -32 -4 -65 -10 -73 -6 -9 -5
-17 2 -21 17 -11 -10 -77 -34 -85 -11 -3 -23 -2 -27 2 -11 15 -41 12 -41 -4 0
-12 9 -14 50 -9 51 6 51 6 54 -33 1 -15 6 -17 60 -19 26 -1 28 -3 24 -39 l-3
-39 58 -13 c81 -18 89 -40 20 -55 -32 -6 -33 -5 -33 25 0 70 -48 -4 -49 -76
-1 -22 6 -37 24 -50 38 -28 30 -37 -27 -32 -29 3 -47 3 -40 1 6 -3 12 -9 12
-14 0 -6 -8 -6 -19 1 -28 15 -121 9 -121 -8 0 -7 7 -12 17 -10 14 3 16 -7 14
-67 -3 -90 -11 -99 -11 -12 0 60 -2 67 -20 67 -16 0 -20 -7 -20 -35 0 -27 -4
-35 -18 -35 -26 0 -53 32 -42 49 10 17 -9 63 -23 54 -14 -8 3 38 20 55 8 8 12
20 9 28 -3 7 2 18 10 25 8 7 12 20 8 31 -4 14 0 21 15 25 29 7 26 19 -6 28
-16 4 -22 10 -15 12 6 3 12 17 11 31 0 27 0 27 -11 5 -15 -31 -24 -29 -33 10
l-8 32 -4 -27 c-7 -45 -18 -32 -15 16 3 27 10 47 18 50 8 3 12 2 9 -4 -3 -5 1
-24 9 -42 14 -31 14 -32 15 -7 1 24 30 75 31 54 0 -5 5 -3 10 5 15 24 12 33
-6 15 -9 -9 -19 -13 -23 -10 -3 4 4 15 16 25 18 14 20 20 10 29 -10 8 -17 7
-26 -2 -9 -9 -14 -9 -21 3 -12 19 -12 21 -1 39 8 12 13 12 24 3 11 -10 17 -9
27 3 10 12 9 15 -6 15 -21 1 -64 33 -64 48 0 5 7 13 16 16 13 5 15 15 9 54 -4
26 -8 54 -8 62 0 8 -4 21 -10 28 -7 9 -5 16 8 26 10 7 15 18 11 24 -4 6 -2 21
5 33 8 16 8 23 -1 29 -7 5 -9 20 -5 44 7 36 18 45 30 26 9 -15 25 -12 25 6 0
8 4 12 10 9 5 -3 18 -1 27 4 23 13 55 15 34 2z m432 -423 l102 -2 -102 -3
-103 -4 -1 -27 c-1 -15 -1 -33 0 -39 1 -7 -4 -13 -11 -13 -10 0 -10 -2 0 -9 8
-4 13 -12 13 -17 -2 -32 14 -84 25 -84 8 0 14 8 14 18 0 14 -2 15 -10 2 -8
-13 -10 -12 -10 3 0 12 8 17 25 17 17 0 25 6 26 18 1 16 2 16 6 0 5 -20 52
-25 70 -7 7 7 9 3 6 -15 -3 -14 -9 -23 -14 -20 -5 3 -9 -2 -9 -10 0 -9 -8 -16
-19 -16 -11 0 -23 -5 -27 -11 -5 -8 3 -10 24 -7 27 4 31 1 29 -16 -2 -16 3
-20 21 -19 23 3 31 -12 10 -20 -10 -4 -9 -8 2 -16 11 -8 7 -10 -20 -7 -19 2
-27 1 -17 -1 12 -3 17 -16 19 -46 1 -37 2 -38 5 -9 4 30 7 32 44 32 29 0 39 4
39 16 0 23 54 15 56 -9 1 -12 1 -13 -3 -2 -8 26 -21 17 -33 -22 -6 -21 -13
-44 -15 -50 -3 -9 -11 -10 -29 -3 -32 12 -101 1 -87 -13 7 -7 19 -7 37 2 16 7
31 8 38 2 6 -5 20 -11 31 -13 15 -3 11 -6 -12 -9 -20 -3 -31 -1 -30 5 1 6 -5
9 -13 6 -31 -9 -200 -11 -200 -2 0 5 6 22 14 37 10 19 12 36 5 58 -5 18 -9 69
-9 114 0 46 -4 83 -8 83 -5 0 -14 -56 -21 -124 -10 -95 -10 -129 -1 -146 10
-19 9 -21 -7 -18 -11 2 -17 11 -16 23 1 11 5 53 7 94 3 40 7 76 10 79 3 3 6
17 6 31 0 26 0 26 -20 -6 -11 -18 -21 -33 -22 -33 -2 0 -4 17 -5 38 -1 20 1
31 4 24 9 -24 53 53 53 94 0 21 6 45 14 53 13 15 3 16 -112 15 l-127 0 115 3
115 4 -3 45 c-3 27 1 51 9 61 12 14 14 8 17 -45 l3 -62 102 -2z m-1059 -109
c4 6 13 11 19 11 7 0 6 -4 -3 -11 -12 -9 -11 -10 7 -6 13 3 24 -1 27 -10 4
-11 2 -13 -9 -10 -8 4 -17 2 -20 -2 -2 -5 4 -11 15 -14 13 -3 20 -14 20 -30 0
-20 -6 -26 -29 -29 -29 -4 -29 -4 -27 42 1 27 -3 47 -9 47 -5 0 -10 -19 -10
-41 l0 -41 -54 -2 c-30 -1 -60 -4 -67 -7 -7 -3 -15 2 -18 10 -3 8 -2 13 3 10
13 -8 54 41 46 55 -6 9 -12 7 -22 -7 -14 -19 -15 -19 -11 1 3 17 12 20 58 21
33 1 56 7 58 14 4 10 6 10 12 0 5 -9 9 -9 14 -1z m587 -729 c5 0 9 6 9 13 1
27 23 -29 31 -77 l8 -51 -2 53 c-2 51 -1 52 26 52 15 0 27 -5 27 -11 0 -6 -9
-8 -21 -4 -18 6 -20 5 -10 -14 7 -12 16 -21 22 -21 5 0 14 -10 20 -22 9 -20
18 -23 68 -23 34 0 65 6 74 14 14 11 20 11 32 1 26 -22 5 -31 -73 -30 -119 1
-112 3 -113 -38 -2 -56 -12 -87 -29 -87 -16 0 -17 -2 -20 -85 -1 -39 -4 -48
-9 -31 -10 37 -29 37 -34 -1 -4 -30 -5 -31 -12 -10 -4 12 -11 22 -16 22 -5 0
-4 8 2 19 15 22 6 49 -18 58 -10 4 -24 13 -31 20 -7 7 -20 13 -28 13 -23 0
-16 27 8 33 27 8 20 16 -15 19 -43 4 -31 17 13 15 l41 -3 -1 41 c-1 40 17 127
19 92 1 -10 5 -16 10 -13 5 3 7 25 5 49 -2 23 -1 34 2 25 3 -10 10 -18 15 -18z
m631 -25 c9 -4 12 -23 10 -70 -2 -41 0 -65 7 -65 6 0 8 7 5 15 -7 18 0 19 27
5 10 -6 19 -16 19 -23 0 -8 -3 -8 -9 2 -5 7 -11 9 -14 4 -4 -6 6 -16 21 -24
15 -8 29 -17 32 -20 3 -3 14 -11 26 -17 19 -10 21 -20 21 -114 0 -94 -1 -97
-6 -33 -7 81 -20 74 -28 -16 -4 -45 -3 -59 7 -59 7 0 11 -2 8 -5 -2 -3 -19 0
-36 6 -22 8 -32 17 -32 32 -1 21 -1 22 -15 3 -18 -23 -20 -21 -34 24 l-10 35
2 -47 c1 -27 -1 -48 -6 -48 -4 0 -12 -10 -17 -22 l-9 -23 0 22 c-1 12 -4 30
-7 40 -5 15 -4 16 6 3 9 -13 10 -12 6 5 -3 11 -6 44 -7 73 -2 28 -7 52 -12 52
-5 0 -6 11 -3 25 5 20 3 25 -14 25 -11 0 -20 4 -20 9 0 21 13 41 27 41 8 0 11
-4 8 -10 -3 -5 -3 -15 1 -22 5 -8 10 -6 15 8 12 31 10 42 -8 38 -12 -3 -25 7
-41 31 l-22 35 26 0 c15 0 33 -8 39 -17 12 -16 14 -14 20 20 4 20 5 48 3 62
-6 27 -6 27 14 20z m-205 -87 c16 -31 18 -31 21 -10 3 17 10 22 30 21 17 -1
21 -3 10 -6 -13 -3 -18 -15 -18 -39 0 -28 4 -34 23 -35 12 0 16 -3 8 -6 -10
-4 -11 -7 -1 -13 8 -5 -14 -11 -51 -15 -52 -5 -73 -2 -114 15 -34 14 -42 20
-25 19 44 -2 60 1 60 11 0 15 -69 12 -85 -4 -12 -11 -10 -15 11 -25 14 -6 33
-11 42 -12 10 -1 7 -4 -8 -9 -14 -4 -36 -6 -50 -4 -14 2 -51 6 -83 9 -36 4
-55 10 -51 17 4 6 -2 8 -17 4 -13 -3 -19 -3 -13 -1 6 3 9 16 7 28 -4 21 -2 22
94 23 83 2 98 4 97 18 -1 9 6 16 17 16 12 0 16 -5 13 -14 -9 -22 16 -30 34
-11 13 13 14 19 5 22 -21 7 -15 33 7 33 12 0 26 -13 37 -32z m5511 -425 c-10
-2 -18 -8 -18 -13 0 -5 -8 -11 -17 -13 -10 -3 1 -5 25 -6 24 0 42 -6 42 -12 0
-8 4 -8 14 0 12 10 20 9 40 -4 14 -10 26 -13 26 -7 0 6 22 9 53 7 49 -3 50 -3
23 9 l-28 13 23 6 c34 9 59 7 29 -3 -24 -8 -23 -8 8 -9 18 -1 31 -5 27 -10 -3
-5 5 -11 17 -13 13 -2 21 -5 19 -8 -2 -3 1 -15 8 -27 14 -27 46 -30 68 -7 11
10 26 14 44 10 18 -3 29 0 33 9 4 12 23 15 78 13 40 -1 56 -3 36 -5 -77 -8
-35 -22 63 -21 62 0 105 -4 112 -11 8 -8 7 -11 -5 -11 -11 0 -15 -6 -11 -19 3
-13 12 -18 24 -16 11 2 19 -2 19 -10 0 -11 -12 -13 -52 -9 -39 4 -49 3 -38 -5
11 -8 -7 -11 -71 -11 -78 0 -87 -2 -92 -20 -3 -11 -10 -20 -15 -20 -6 0 -8 8
-5 18 3 14 -1 17 -22 17 -14 -1 -31 -7 -37 -13 -15 -15 -38 -16 -38 -1 0 6 -8
8 -17 5 -55 -17 -873 -32 -873 -16 0 7 -6 8 -19 0 -11 -5 -28 -10 -38 -10 -15
0 -16 2 -3 10 13 9 11 14 -12 33 -38 31 -35 49 12 82 22 15 40 34 40 42 0 8 4
12 9 8 11 -6 26 33 17 42 -3 4 -6 -1 -6 -10 0 -10 -8 -17 -19 -17 -11 0 -22
-6 -24 -12 -3 -7 -6 -1 -6 14 -1 20 4 27 22 30 35 5 554 6 535 1z m-4727 -14
c118 -1 208 -4 202 -6 -7 -3 -13 -12 -12 -21 0 -11 2 -12 6 -4 2 7 21 12 41
11 21 0 32 -3 27 -5 -6 -2 -9 -20 -7 -39 5 -39 26 -47 48 -17 13 16 15 16 30
-3 11 -14 18 -16 21 -7 8 22 43 14 43 -10 0 -13 7 -31 15 -42 12 -16 12 -21
-1 -40 -8 -13 -11 -26 -7 -29 3 -4 -172 -7 -390 -7 l-397 0 -6 25 c-3 14 -4
45 -1 70 4 25 2 45 -4 45 -5 0 -9 13 -9 29 0 17 -6 33 -12 38 -11 7 176 22
193 16 4 -2 103 -3 220 -4z m5809 -31 c0 -10 2 -10 9 0 5 8 6 -8 3 -37 -4 -41
-2 -51 11 -51 8 0 18 8 21 18 17 44 32 62 53 62 13 0 23 -4 23 -10 0 -5 7 -10
15 -10 8 0 15 -4 15 -10 0 -5 6 -10 14 -10 18 0 30 -33 21 -60 -3 -11 -13 -20
-21 -20 -8 0 -14 -4 -14 -9 0 -5 -14 -11 -32 -15 -30 -6 -31 -7 -13 -20 32
-21 80 -27 101 -11 12 9 14 14 6 15 -23 0 -2 20 22 20 29 0 53 -25 34 -34 -10
-5 -10 -7 0 -12 17 -8 5 -24 -19 -24 -27 0 -24 -20 4 -20 17 -1 14 -5 -17 -20
-38 -19 -66 -19 -36 1 10 6 4 7 -20 3 l-35 -5 35 16 c28 13 32 18 20 25 -19
12 -130 13 -130 1 0 -5 -10 -11 -22 -15 -19 -5 -21 -8 -8 -16 13 -8 13 -10 -2
-10 -9 0 -18 -6 -21 -12 -5 -17 -37 8 -37 28 0 8 -5 14 -11 14 -6 0 -8 -9 -4
-20 4 -12 2 -20 -5 -20 -6 0 -8 5 -5 10 11 17 -10 11 -32 -10 -17 -15 -22 -16
-27 -5 -3 8 2 16 12 18 11 3 8 5 -8 6 -14 1 -36 4 -50 8 -23 6 -21 8 20 20
l45 12 -45 -5 c-57 -8 -47 4 17 20 39 10 48 17 51 37 5 46 12 69 22 69 6 0 10
-10 10 -22 0 -19 2 -20 10 -8 15 24 12 50 -7 51 -17 1 -17 2 0 6 20 5 24 58 5
66 -8 3 -6 6 5 6 9 1 17 -5 17 -11z m-1115 -330 c3 -73 5 -196 3 -273 -3 -132
-4 -140 -23 -140 -17 0 -20 -6 -19 -37 1 -21 -2 -38 -6 -38 -8 0 -23 597 -15
611 4 5 17 9 30 9 23 0 23 -2 30 -132z m582 -365 c69 -3 120 -9 117 -14 -3 -5
0 -9 5 -9 6 0 11 5 11 10 0 14 56 12 142 -5 145 -29 137 -32 -57 -27 -181 4
-275 -5 -275 -27 0 -4 13 -20 30 -36 21 -20 48 -32 97 -41 69 -13 358 -19 388
-8 14 6 14 8 -2 27 -10 12 -2 8 20 -9 l38 -29 -46 -9 c-55 -11 -59 -31 -7 -41
20 -4 42 -11 49 -17 7 -5 17 -7 23 -3 13 8 31 -39 26 -68 -3 -12 -5 -25 -5
-29 -1 -5 -17 -8 -36 -8 -19 0 -35 -4 -35 -10 0 -12 45 -24 65 -16 10 4 15 -1
15 -15 0 -19 -4 -20 -32 -14 -63 13 -432 25 -462 15 -33 -11 -84 -13 -137 -4
-32 5 -39 13 -67 69 -17 35 -40 69 -52 75 -11 6 -20 7 -20 3 0 -4 -10 7 -21
25 -12 17 -26 32 -32 33 -7 0 -3 4 8 9 13 6 -10 9 -69 9 -74 1 -87 -1 -82 -14
3 -9 0 -15 -9 -15 -8 0 -15 5 -15 10 0 6 -18 10 -40 10 -29 0 -40 4 -40 15 0
10 10 15 28 16 155 3 301 18 335 35 75 36 23 74 -114 82 -51 3 -101 0 -120 -7
-31 -10 -32 -9 -15 4 10 8 39 17 65 20 25 4 53 7 61 8 38 5 156 5 267 0z"/>
<path d="M7378 1219 c-15 -6 -29 -21 -32 -35 -4 -13 -14 -24 -24 -24 -10 -1
-5 -6 13 -14 19 -8 25 -15 17 -20 -7 -4 -12 -13 -12 -19 1 -13 24 22 25 36 0
4 7 12 15 18 13 9 12 10 -2 5 -10 -3 -20 -1 -23 4 -7 11 40 5 91 -12 33 -12
42 -12 52 -1 7 7 34 13 60 13 27 0 57 6 68 14 18 14 18 15 -6 20 -14 2 -56 7
-93 11 -37 3 -80 8 -95 10 -15 2 -39 0 -54 -6z"/>
<path d="M4014 5342 c4 -6 2 -21 -4 -32 -8 -15 -8 -25 0 -38 9 -14 10 -13 5 8
-5 25 -5 25 7 2 6 -12 9 -25 6 -27 -10 -10 -37 7 -43 26 -7 21 -45 46 -45 30
0 -15 57 -71 72 -71 10 0 10 -2 0 -8 -6 -5 24 -9 68 -11 86 -2 94 4 69 51 -9
16 -8 23 2 29 12 7 11 9 -1 10 -8 1 -21 1 -27 0 -7 -1 -13 2 -13 7 0 15 26 22
37 11 6 -6 10 -5 10 3 0 9 -18 13 -57 13 -38 0 -56 -3 -53 -11 2 -6 -4 -17
-13 -25 -15 -12 -16 -12 -10 8 4 13 2 24 -5 29 -8 4 -9 3 -5 -4z"/>
<path d="M9527 5034 c-3 -3 -4 -11 -3 -17 2 -7 1 -9 -1 -6 -2 3 -15 4 -28 1
-22 -4 -24 -9 -22 -53 2 -48 4 -50 44 -70 32 -16 47 -18 62 -10 16 9 19 22 20
86 l1 75 -33 0 c-19 0 -36 -3 -40 -6z"/>
<path d="M9091 5011 l-74 -6 2 -75 c1 -41 3 -75 4 -76 1 -1 70 1 154 4 l152 5
4 56 3 56 2 -61 2 -61 -46 -7 c-26 -3 -98 -6 -161 -6 l-114 0 3 -72 c3 -62 6
-73 21 -72 9 0 87 1 172 2 l155 2 0 160 0 160 -102 -2 c-57 -1 -136 -4 -177
-7z"/>
<path d="M8202 4909 c-134 -4 -244 -8 -246 -10 -1 -2 -1 -37 2 -76 l4 -73 112
0 111 0 0 57 c0 81 19 84 23 4 l3 -64 100 6 c55 3 101 1 105 -4 3 -5 -40 -9
-100 -9 l-104 0 -4 -72 -3 -73 130 6 c72 4 131 7 133 8 8 4 -4 305 -13 306 -5
1 -119 -2 -253 -6z"/>
<path d="M5020 4730 c0 -147 0 -150 23 -155 18 -4 446 -1 470 4 4 0 7 69 7
151 l0 150 -250 0 -250 0 0 -150z"/>
<path d="M4039 4848 c-1 -13 -1 -40 0 -60 1 -21 -3 -38 -9 -38 -5 0 -10 -5
-10 -11 0 -5 5 -7 10 -4 6 3 10 -1 10 -10 0 -12 -5 -15 -17 -11 -17 6 -17 5 0
-8 20 -15 23 -56 5 -56 -10 0 -10 -2 0 -9 13 -8 13 -46 0 -66 -6 -10 472 -10
499 -1 12 5 12 99 -1 191 -5 32 -4 45 2 37 6 -10 9 -1 9 27 l0 41 -248 0 -249
0 -1 -22z"/>
<path d="M7961 4665 l2 -75 51 4 c28 2 79 4 112 5 l62 1 -3 63 c-1 37 2 65 9
69 6 4 -44 8 -112 8 l-123 0 2 -75z"/>
<path d="M9579 4413 c0 -4 -1 -28 -1 -53 0 -40 -2 -42 -14 -25 -10 13 -11 21
-3 26 8 4 8 8 1 13 -6 4 -9 13 -6 21 5 12 -2 11 -35 -3 -23 -9 -43 -25 -47
-34 -9 -30 7 -86 32 -112 24 -23 71 -39 86 -29 12 7 10 191 -2 198 -5 3 -10 3
-11 -2z"/>
<path d="M9145 4381 l-120 -6 1 -105 c1 -58 2 -129 3 -158 l1 -53 166 3 c91 1
170 5 175 9 6 3 9 66 7 160 l-3 153 -55 1 c-30 1 -109 -1 -175 -4z"/>
<path d="M5513 4304 c3 -3 1 -12 -6 -19 -8 -9 -21 -10 -46 -3 -22 7 -36 6 -40
-1 -4 -5 -39 -10 -79 -9 -50 0 -70 4 -65 12 5 7 2 7 -8 -1 -8 -7 -52 -12 -109
-12 -52 0 -104 0 -116 -1 -19 0 -20 -5 -16 -57 2 -32 10 -64 16 -72 8 -12 8
-13 -2 -7 -10 6 -12 -1 -8 -31 2 -21 5 -59 5 -85 l1 -48 248 0 247 0 -2 142
c-1 79 -2 155 -3 171 0 15 -5 27 -12 27 -6 0 -9 -3 -5 -6z"/>
<path d="M8098 4293 l-138 -4 0 -149 0 -150 255 0 254 0 3 153 3 152 -120 0
c-66 0 -182 -1 -257 -2z"/>
<path d="M4217 4267 c-12 -5 -54 -6 -94 -3 -40 3 -74 2 -77 -3 -3 -4 -6 -33
-7 -64 -2 -53 -4 -57 -23 -52 l-21 6 20 -13 c18 -11 21 -25 24 -93 1 -44 5
-83 7 -87 3 -5 15 -3 26 3 13 7 58 10 118 7 l97 -4 -4 133 c-3 89 -1 133 6
133 7 0 11 -24 11 -59 l0 -59 105 1 c58 1 105 -1 105 -5 0 -5 -47 -8 -105 -8
l-105 0 0 -70 0 -71 117 3 118 3 1 65 c1 36 3 79 4 95 1 17 1 35 0 40 -1 6 -2
33 -2 62 0 34 -4 50 -12 47 -18 -7 -245 -10 -234 -3 14 9 -49 5 -75 -4z"/>
<path d="M9560 3770 c0 -6 -4 -9 -8 -6 -16 10 -54 -31 -54 -60 -2 -79 16 -108
70 -111 l32 -2 0 84 c0 74 -2 86 -20 95 -14 8 -20 8 -20 0z"/>
<path d="M9049 3742 c0 -4 0 -36 1 -72 1 -36 3 -102 3 -147 l2 -83 173 -2 172
-3 -2 155 -3 155 -172 2 c-95 1 -173 -1 -174 -5z"/>
<path d="M4270 3670 c0 -6 -6 -10 -12 -9 -7 1 -62 1 -122 0 -92 -1 -107 -3
-102 -16 3 -10 -1 -15 -12 -15 -12 0 -14 -2 -4 -8 8 -6 13 -36 13 -93 0 -46 0
-89 -1 -94 -1 -6 -2 -27 -1 -47 l1 -38 131 0 c121 0 130 1 125 18 -3 10 -7 43
-7 75 l-2 57 -113 0 -114 0 2 63 2 62 3 -57 4 -58 104 0 105 0 0 55 c0 43 3
55 16 55 12 0 15 -11 14 -57 -1 -32 -1 -93 -1 -135 l1 -77 120 0 120 0 0 155
0 154 -117 1 c-65 1 -124 1 -132 0 -7 -2 -10 2 -6 8 3 6 1 11 -4 11 -6 0 -11
-5 -11 -10z"/>
<path d="M7982 3673 c-18 -3 -22 -9 -16 -21 7 -17 13 -106 13 -219 l1 -63 249
0 c268 0 257 -2 256 55 -1 17 -2 81 -3 143 l-2 112 -237 -1 c-131 -1 -248 -4
-261 -6z"/>
<path d="M9063 2952 l2 -157 174 -5 c95 -3 178 -2 183 1 6 4 9 27 7 53 -2 25
0 46 5 46 4 0 3 7 -4 15 -6 8 -11 36 -10 62 2 26 2 69 1 96 l-1 48 -180 -1
-180 -1 3 -157z"/>
<path d="M8208 3062 l-228 -2 0 -144 c0 -80 2 -150 5 -158 4 -10 56 -12 263
-10 l257 3 -3 152 c-2 84 -5 152 -6 153 -8 7 -99 9 -288 6z"/>
</g>
</svg>
