<?xml version="1.0" standalone="no"?>
<!DOCTYPE svg PUBLIC "-//W3C//DTD SVG 20010904//EN"
 "http://www.w3.org/TR/2001/REC-SVG-20010904/DTD/svg10.dtd">
<svg version="1.0" xmlns="http://www.w3.org/2000/svg"
 width="1280.000000pt" height="853.000000pt" viewBox="0 0 1280.000000 853.000000"
 preserveAspectRatio="xMidYMid meet">

<g transform="translate(0.000000,853.000000) scale(0.100000,-0.100000)"
fill="#000000" stroke="none">
<path d="M12740 6555 c-25 -7 -80 -15 -123 -18 -43 -4 -83 -10 -90 -14 -6 -4
-28 -8 -47 -10 -19 -2 -69 -9 -110 -17 l-75 -14 73 5 c59 5 72 3 70 -8 -2 -10
5 -13 21 -11 13 2 21 -1 17 -6 -3 -6 0 -12 6 -15 7 -3 -5 -5 -28 -5 -47 0 -88
-18 -78 -34 4 -7 2 -8 -5 -4 -20 13 -79 17 -86 6 -4 -6 9 -10 32 -11 43 -2 -7
-11 -277 -53 -91 -14 -203 -32 -250 -41 -47 -8 -130 -22 -185 -30 -55 -8 -143
-22 -195 -30 -150 -24 -253 -41 -428 -69 -90 -15 -180 -31 -200 -35 l-37 -9
35 -1 c19 0 78 6 130 14 190 30 487 67 570 71 88 5 138 10 143 14 3 3 93 12
142 13 22 1 43 6 46 11 4 5 67 10 140 11 143 3 210 11 221 29 5 7 8 7 8 1 0
-11 128 -5 224 10 35 6 47 5 42 -4 -5 -7 1 -11 16 -11 16 0 19 3 10 9 -11 6
-10 10 4 15 9 3 19 4 22 1 3 -3 1 -5 -4 -5 -19 0 -16 -71 3 -86 17 -13 17 -13
1 -14 -21 0 -24 -20 -6 -38 9 -9 9 -12 0 -12 -7 0 -12 -7 -12 -15 0 -8 9 -15
19 -15 11 0 22 -4 25 -9 4 -5 -2 -8 -11 -6 -53 11 -93 13 -93 5 0 -5 15 -11
33 -13 l32 -4 -32 -1 c-20 -1 -33 -7 -33 -15 0 -15 -51 -24 -340 -62 -102 -14
-336 -45 -520 -70 -184 -25 -400 -54 -480 -65 -80 -10 -206 -28 -280 -40 -74
-11 -171 -25 -215 -31 -44 -5 -108 -15 -142 -20 -54 -9 -60 -13 -48 -25 7 -8
21 -14 31 -14 24 0 15 -6 -21 -14 -22 -5 -26 -4 -15 4 12 8 10 10 -10 9 -27
-1 -104 -27 -82 -28 17 -1 15 -21 -3 -21 -8 0 -15 5 -15 11 0 9 -4 9 -14 0
-13 -11 -271 -53 -441 -72 -136 -15 -133 -14 -140 -57 -8 -47 -32 -133 -55
-197 -14 -38 -19 -44 -19 -25 -1 15 4 31 11 38 6 6 8 15 3 19 -4 5 -10 2 -12
-4 -3 -7 -13 -23 -23 -35 -16 -19 -19 -20 -20 -6 0 9 5 20 10 23 6 3 10 12 10
18 0 7 -4 6 -10 -3 -6 -10 -10 -11 -10 -2 0 6 -5 12 -11 12 -6 0 -8 -8 -4 -19
3 -11 2 -28 -4 -38 -5 -10 -13 -27 -17 -38 -7 -18 -8 -17 -12 7 -2 15 1 35 6
45 15 29 3 48 -15 23 -8 -12 -21 -19 -29 -16 -8 3 -14 1 -14 -4 0 -6 7 -10 15
-10 8 0 15 -4 15 -10 0 -5 -13 -8 -29 -6 -24 3 -31 -1 -33 -18 -2 -13 -9 -20
-20 -18 -11 2 -18 -6 -21 -20 -3 -13 -3 4 -1 37 2 33 -1 67 -6 75 -7 11 -10 3
-10 -29 0 -34 -6 -49 -25 -67 -16 -15 -20 -24 -12 -27 7 -3 -5 -6 -25 -6 -30
-1 -37 -5 -41 -23 -2 -13 -5 3 -6 35 -1 71 -16 75 -24 6 -8 -61 -11 -66 -34
-48 -15 12 -16 12 -10 -3 5 -14 1 -18 -16 -18 -16 0 -19 3 -8 9 11 7 9 10 -8
16 -21 6 -27 21 -34 80 -2 17 -5 3 -6 -30 -3 -67 -10 -90 -28 -91 -7 -1 -22
-2 -34 -2 -11 -1 -18 -6 -14 -11 3 -5 1 -12 -4 -15 -5 -4 -14 20 -21 51 -6 32
-15 72 -20 88 -8 26 -8 24 -5 -15 10 -97 13 -184 7 -170 -4 8 -18 17 -32 19
-14 1 -28 8 -32 15 -4 6 -8 7 -8 1 -1 -11 -16 20 -37 75 l-12 35 5 -40 c3 -22
8 -50 11 -63 4 -18 2 -21 -13 -15 -14 5 -14 3 4 -15 18 -18 19 -26 11 -54 -5
-18 -9 -34 -9 -36 0 -2 -7 3 -15 12 -8 8 -15 23 -15 33 -1 17 -1 17 -11 -1
-10 -16 -13 -14 -28 20 -10 22 -21 53 -26 69 -4 17 -9 25 -12 18 -2 -6 5 -44
17 -83 12 -39 19 -77 16 -83 -2 -7 -5 -3 -5 8 -1 17 -3 17 -11 5 -8 -13 -10
-12 -10 3 0 10 -7 25 -15 33 -8 9 -15 11 -15 5 0 -5 5 -13 10 -16 6 -3 10 -11
10 -17 0 -7 -6 -6 -15 2 -12 10 -15 10 -15 -1 0 -15 -30 36 -50 83 -7 16 -16
25 -21 22 -5 -3 -2 -15 5 -27 15 -23 20 -53 17 -97 -1 -19 -4 -21 -10 -11 -5
8 -16 11 -26 8 -11 -5 -21 2 -33 23 -31 55 -43 34 -15 -25 13 -28 14 -38 4
-48 -10 -9 -12 -9 -9 2 2 7 -3 16 -11 19 -8 3 -11 0 -7 -7 4 -6 2 -11 -4 -11
-6 0 -4 -11 6 -27 l16 -28 -21 25 c-11 14 -21 29 -21 34 0 13 -62 88 -67 82
-3 -3 5 -24 19 -48 19 -35 22 -48 14 -70 -5 -16 -13 -28 -16 -28 -6 0 -68 80
-91 117 -7 13 -20 25 -28 28 -14 6 0 -20 44 -80 12 -16 25 -39 29 -51 7 -24
-19 -65 -31 -48 -46 66 -132 162 -133 147 0 -6 4 -13 8 -15 4 -1 28 -33 54
-70 l46 -66 -25 -7 c-27 -6 -208 -24 -255 -25 -32 0 -37 -15 -8 -23 12 -3 20
-14 20 -26 0 -12 4 -21 9 -21 5 0 11 -9 14 -20 6 -22 -8 -28 -17 -7 -3 6 -3 2
0 -10 6 -27 -3 -30 -23 -5 -8 9 -12 12 -10 7 3 -6 2 -26 -3 -45 l-8 -35 -2 35
c-3 47 -8 133 -9 143 -1 10 -69 9 -111 -2 -19 -5 -77 -12 -129 -15 -52 -4 -97
-8 -99 -11 -3 -3 0 -5 6 -5 6 0 9 -7 6 -15 -4 -8 -11 -15 -17 -15 -6 0 -7 3
-4 7 4 3 2 12 -3 19 -12 13 -67 11 -200 -8 -41 -6 -91 -12 -110 -14 -72 -7
-108 -48 -74 -85 10 -11 12 -19 5 -19 -6 0 -14 7 -17 15 -4 8 -9 13 -13 11 -3
-2 -15 2 -26 10 -18 14 -18 14 3 14 29 0 28 17 0 23 l-23 4 23 2 c13 0 21 5
18 10 -7 11 -79 4 -118 -11 -17 -6 -25 -15 -21 -24 3 -8 0 -14 -6 -14 -6 0
-11 6 -11 13 -1 17 -16 -12 -24 -46 -4 -19 -3 -26 4 -22 5 3 10 16 11 28 0 12
3 17 5 10 3 -7 13 -10 22 -7 9 3 4 -6 -13 -20 -36 -31 -51 -33 -58 -5 -10 38
-32 15 -35 -37 l-3 -50 35 -2 c26 -2 38 2 46 17 6 12 16 18 25 15 9 -4 15 0
15 10 0 10 9 16 24 16 13 0 27 6 29 13 3 6 6 0 6 -15 1 -33 4 -33 37 -12 19
13 28 14 37 5 8 -8 8 -11 -1 -11 -7 0 -12 -7 -12 -15 0 -11 11 -15 40 -15 28
0 40 4 40 14 0 8 7 17 16 20 22 9 24 8 24 -9 0 -8 7 -15 16 -15 8 0 12 4 9 10
-4 7 2 7 19 0 15 -5 46 -6 78 -1 29 5 54 8 55 7 1 -1 3 -21 4 -44 l3 -43 47 5
c47 4 47 4 46 -27 -1 -18 4 -32 12 -35 9 -3 12 3 9 24 -3 16 -3 23 -1 17 3 -7
11 -13 18 -13 7 0 16 6 19 13 3 6 3 2 1 -9 -6 -24 14 -37 36 -23 11 7 11 9 1
9 -7 0 -11 3 -9 8 11 18 -13 52 -37 52 -21 0 -24 4 -22 28 3 20 8 26 22 24 18
-2 18 -2 2 11 -10 8 -18 22 -18 32 0 15 2 16 17 4 14 -13 16 -11 11 13 -5 26
-4 26 39 21 31 -3 43 -1 43 9 0 7 7 21 14 30 11 15 15 16 32 3 19 -14 19 -14
-1 -28 -16 -12 -17 -17 -6 -30 7 -9 11 -23 9 -31 -3 -13 -6 -13 -28 -1 l-25
14 23 1 c22 0 23 1 6 17 -12 12 -19 14 -21 6 -3 -7 -20 -17 -39 -23 -34 -12
-44 -38 -17 -47 7 -3 10 4 6 19 -4 18 -3 20 6 8 6 -8 8 -22 5 -31 -2 -9 2 -19
11 -23 8 -3 15 -12 15 -21 0 -8 5 -15 10 -15 6 0 8 12 6 26 -3 17 -1 24 7 21
19 -6 15 -56 -5 -63 -24 -7 -23 -25 3 -31 11 -3 18 -11 15 -19 -3 -7 -1 -16 3
-19 12 -7 19 15 15 50 -2 25 -1 27 8 11 5 -10 8 -33 5 -51 -7 -43 1 -75 19
-75 8 0 14 -4 14 -10 0 -5 -5 -10 -11 -10 -6 0 -17 -7 -25 -15 -9 -8 -11 -15
-5 -15 15 0 14 -33 -1 -48 -8 -8 -8 -15 3 -28 8 -11 9 -15 2 -11 -9 6 -10 1
-2 -23 8 -23 8 -34 -1 -45 -11 -13 -10 -14 4 -9 12 5 15 2 10 -12 -5 -15 -4
-16 4 -4 6 8 8 18 6 22 -9 15 28 21 38 7 7 -11 11 -11 15 -1 6 15 53 16 53 1
0 -8 4 -8 14 0 11 9 12 7 9 -12 -3 -17 1 -26 13 -31 15 -6 15 -4 3 11 -8 9 -9
14 -2 10 7 -4 19 2 28 15 10 14 16 17 14 8 -3 -29 1 -40 16 -40 18 0 19 -12 3
-28 -9 -9 -9 -18 1 -38 6 -15 9 -29 7 -32 -9 -9 -35 18 -39 41 -4 19 -4 19 -6
-4 -1 -30 36 -71 47 -51 4 6 7 41 7 77 -1 36 2 65 7 65 4 0 8 -18 8 -40 0 -22
3 -39 8 -38 4 1 17 -3 29 -10 18 -10 24 -9 35 3 7 8 25 28 41 45 l27 30 -1
-83 -1 -82 -10 50 c-6 28 -12 52 -14 54 -9 10 -34 -24 -35 -48 l-1 -26 -7 25
c-4 16 -9 21 -14 13 -10 -16 -37 -5 -37 14 0 8 -5 11 -11 8 -7 -5 -9 -39 -5
-98 4 -82 3 -90 -10 -72 -13 18 -14 17 -8 -13 5 -25 3 -32 -9 -32 -8 0 -17 -5
-19 -11 -4 -12 -35 -2 -41 14 -2 7 -3 4 -2 -5 4 -21 -6 -23 -23 -6 -9 9 -15 9
-20 3 -7 -11 -48 -12 -59 -1 -3 3 0 17 7 31 10 20 11 28 2 37 -7 7 -13 8 -13
2 -4 -23 -6 -41 -8 -61 -1 -27 -19 -30 -37 -5 -12 15 -13 14 -14 -10 0 -16 4
-28 9 -28 10 0 7 -112 -4 -129 -3 -6 -1 -11 6 -11 8 0 8 -4 -1 -15 -9 -10 -9
-15 -1 -15 16 0 14 -39 -3 -55 -7 -8 -16 -12 -18 -9 -3 2 -11 -2 -18 -11 -7
-8 -19 -15 -27 -15 -11 0 -14 -7 -10 -27 3 -18 0 -31 -11 -39 -16 -12 -15 -14
3 -27 17 -13 21 -13 31 2 12 15 13 15 19 -1 4 -11 18 -18 33 -18 14 0 22 -3
19 -6 -3 -4 -32 -7 -64 -6 -32 0 -50 -2 -40 -5 27 -7 20 -20 -14 -27 -54 -11
-66 -8 -43 10 13 11 15 17 7 20 -7 3 -14 18 -14 32 -1 17 -3 21 -6 10 -4 -16
-6 -16 -19 -3 -19 18 -48 8 -38 -14 3 -9 9 -27 11 -41 4 -25 4 -25 -12 -5 -16
19 -16 19 -9 -9 4 -19 2 -31 -7 -37 -19 -11 -7 -20 31 -21 17 -1 26 -4 20 -8
-7 -4 -8 -18 -4 -33 5 -23 3 -27 -14 -27 -12 0 -22 9 -25 21 -3 12 -10 18 -16
15 -5 -4 -15 2 -20 11 -8 13 -11 -12 -10 -97 0 -63 0 -128 0 -145 l-1 -30
-307 14 c-170 7 -310 15 -313 18 -3 3 -8 80 -11 171 l-5 167 -3 -175 c-4 -211
-16 -177 -26 75 -4 94 -9 197 -10 230 -2 33 -4 125 -6 205 -1 80 -4 128 -6
108 -7 -69 -19 -39 -22 54 -1 51 -5 95 -8 98 -3 3 -2 -118 1 -267 l6 -273 -25
0 c-18 0 -23 -4 -19 -15 4 -8 1 -15 -5 -15 -7 0 -11 -19 -10 -47 0 -27 3 -41
6 -33 2 8 7 22 10 30 4 8 6 22 5 30 -1 9 1 10 4 3 3 -7 12 -9 20 -6 11 4 14
-6 14 -46 0 -58 -12 -64 -68 -35 -35 17 -39 26 -19 46 15 16 20 58 7 58 -6 0
-10 -9 -10 -19 0 -11 -5 -23 -10 -26 -6 -4 -8 -11 -5 -16 4 -5 1 -9 -4 -9 -6
0 -11 -7 -11 -15 0 -8 7 -15 15 -15 8 0 15 -5 15 -11 0 -5 5 -7 10 -4 6 3 10
1 10 -5 0 -6 -10 -8 -23 -5 -12 3 -36 -1 -52 -9 -28 -15 -30 -15 -33 4 -5 33
-24 23 -20 -12 2 -21 -2 -32 -12 -35 -13 -4 -13 -3 0 6 11 7 12 13 4 21 -7 7
-9 52 -7 125 4 112 4 115 -17 115 -12 0 -19 4 -15 10 3 5 12 7 19 4 10 -4 13
10 11 63 -1 37 -3 103 -4 146 -1 74 -2 78 -21 72 -11 -3 -20 -2 -20 3 0 18 25
20 43 4 17 -15 17 -14 8 12 -6 15 -11 67 -11 116 0 61 -4 90 -12 93 -10 4 -10
6 0 6 7 1 12 15 12 34 0 18 5 38 12 45 8 8 8 15 -3 28 -9 12 -10 15 -1 10 6
-4 12 -2 12 3 0 6 -4 11 -10 11 -6 0 -10 66 -11 178 -1 97 -4 188 -8 202 -4
14 -4 38 0 53 4 15 4 47 0 70 -5 23 -9 34 -10 25 -1 -21 -21 -25 -21 -5 0 8
-11 19 -24 27 -26 13 -56 8 -56 -10 0 -6 5 -8 12 -4 6 4 8 3 5 -3 -4 -6 0 -16
8 -23 15 -13 10 -35 -6 -25 -5 4 -9 -7 -9 -24 0 -16 -6 -31 -12 -33 -14 -5
-19 -108 -6 -108 4 0 2 -14 -4 -31 -9 -25 -7 -32 8 -44 11 -8 14 -15 7 -15
-12 0 -12 -17 0 -37 5 -8 4 -13 -2 -13 -6 0 -11 -15 -11 -32 0 -25 3 -29 10
-18 6 9 10 10 10 3 0 -6 -5 -15 -10 -18 -10 -6 -13 -412 -3 -467 2 -16 11 -28
19 -28 8 0 14 -4 14 -10 0 -5 -7 -7 -15 -4 -13 5 -15 -10 -15 -104 l0 -111 38
6 c30 5 35 3 25 -8 -7 -7 -13 -22 -14 -33 0 -20 -1 -20 -9 1 -6 15 -15 21 -25
17 -14 -6 -16 -23 -13 -110 1 -57 7 -104 12 -104 4 0 3 -6 -3 -13 -6 -8 -9
-16 -6 -19 3 -3 6 -59 6 -124 1 -65 4 -110 8 -99 7 19 8 19 18 0 10 -17 12
-16 27 13 9 17 16 38 16 47 0 8 6 15 14 15 7 0 19 7 26 15 10 13 9 15 -10 15
-13 0 -20 5 -17 13 2 6 10 11 16 10 6 -2 11 2 11 7 0 6 4 10 8 10 4 0 8 -69 9
-152 1 -193 4 -258 10 -235 5 20 19 22 29 5 4 -7 3 -8 -4 -4 -7 4 -12 1 -12
-8 0 -9 -4 -16 -10 -16 -5 0 -10 -7 -10 -15 0 -8 5 -15 10 -15 6 0 10 5 10 10
0 6 7 10 16 10 8 0 12 -4 9 -10 -3 -5 9 -9 30 -8 33 1 52 18 19 18 -23 0 -8
17 21 22 26 5 35 -6 13 -15 -10 -4 -9 -8 2 -16 13 -9 12 -12 -5 -25 -19 -14
-17 -15 32 -16 28 0 53 -4 55 -9 4 -13 103 -18 103 -6 0 6 -12 10 -27 10 -14
0 -24 3 -21 7 2 5 -5 8 -17 8 -12 0 -19 4 -16 9 4 5 0 12 -6 14 -8 3 -6 6 5 6
9 1 17 7 17 15 0 17 38 23 110 16 48 -4 52 -7 35 -17 -24 -14 -20 -19 25 -28
31 -6 33 -5 17 7 -18 13 -17 15 9 27 25 11 26 11 13 -5 -13 -16 -12 -17 6 -9
32 14 149 19 141 6 -5 -7 5 -11 28 -11 20 0 36 5 36 10 0 6 10 10 23 10 35 0
67 -11 61 -21 -6 -10 25 0 43 13 6 5 24 6 40 3 21 -5 24 -4 13 4 -13 9 -12 12
4 24 12 8 16 19 11 26 -6 10 -3 11 13 2 15 -8 22 -8 25 2 4 9 6 9 6 -1 1 -7 6
-10 12 -6 6 3 26 -2 45 -12 27 -15 33 -23 27 -39 -3 -11 -6 -28 -5 -37 0 -11
-6 -18 -18 -18 -10 0 -22 -4 -25 -10 -6 -9 33 -15 76 -12 10 1 15 -6 13 -21
-1 -12 -3 -30 -3 -39 -1 -22 -21 -24 -21 -2 0 8 -5 12 -10 9 -20 -12 8 -44 35
-39 14 2 25 0 25 -6 0 -5 -3 -9 -7 -9 -5 1 -12 0 -18 -1 -5 -2 -19 -3 -29 -4
-11 -1 -21 -8 -23 -16 -4 -13 -3 -13 6 0 8 11 11 12 11 2 0 -10 8 -12 29 -7
17 3 32 2 36 -4 3 -6 1 -11 -4 -11 -21 0 -10 -25 16 -37 31 -15 46 -7 21 11
-11 8 -15 20 -11 34 3 15 1 22 -8 22 -8 1 0 7 16 14 34 15 47 12 38 -9 -6 -17
32 -22 42 -5 3 6 -2 10 -11 10 -10 0 -15 2 -12 5 3 3 31 2 62 -1 32 -4 53 -10
48 -13 -4 -3 -11 -13 -14 -22 -5 -12 0 -14 26 -11 17 2 38 6 46 8 13 5 13 6 0
14 -11 7 -6 10 18 10 19 0 32 -5 32 -13 0 -6 16 -17 36 -23 31 -10 39 -9 54 6
10 10 20 16 23 14 2 -2 33 -7 68 -10 117 -9 129 -11 136 -18 3 -3 -9 -6 -28
-7 -32 -1 -32 -2 -9 -9 l25 -8 -25 -1 c-15 -1 -31 4 -37 10 -8 8 -13 8 -17 0
-4 -6 -28 -11 -54 -12 l-47 -1 44 -9 c24 -5 76 -7 116 -5 69 4 75 2 105 -25
17 -16 36 -27 41 -23 13 7 112 -6 104 -14 -3 -4 -23 -6 -43 -5 -26 1 -29 0 -9
-4 15 -2 27 -11 27 -19 0 -8 6 -14 13 -14 7 0 20 -9 30 -20 9 -11 28 -20 41
-20 14 0 28 -5 31 -10 4 -6 16 -8 28 -5 19 5 19 4 5 -5 -11 -6 -25 -7 -41 -1
-19 7 -27 6 -31 -4 -3 -8 3 -16 12 -18 9 -3 1 -2 -18 0 -19 3 -69 6 -110 7
-41 1 -85 6 -97 10 -14 4 -23 3 -23 -3 0 -15 39 -25 115 -27 104 -3 99 -2 85
-19 -7 -8 -19 -15 -28 -15 -12 0 -10 -5 7 -24 13 -14 20 -29 16 -35 -3 -7 2
-11 14 -11 26 0 27 13 4 36 -14 14 -15 18 -4 22 7 2 21 12 31 21 19 18 40 25
40 13 0 -4 28 -7 63 -6 73 1 105 -5 86 -16 -8 -5 -9 -17 -4 -36 6 -21 9 -24
12 -11 6 24 21 21 25 -5 2 -13 10 -24 19 -26 18 -3 36 31 20 36 -6 2 -11 10
-11 17 0 7 -6 16 -12 18 -7 3 -3 6 9 6 16 1 21 -3 17 -14 -4 -10 0 -15 14 -15
11 0 40 -9 65 -20 34 -15 57 -19 86 -14 36 6 41 10 42 33 0 23 1 24 9 6 5 -11
9 -15 9 -9 1 10 28 11 134 6 21 -1 36 -6 33 -11 -3 -5 -27 -7 -53 -5 -35 3
-43 2 -28 -5 14 -7 15 -10 5 -10 -8 -1 -25 -4 -38 -7 -18 -5 -21 -3 -16 10 4
9 1 16 -6 16 -8 0 -11 -10 -7 -30 5 -24 4 -28 -11 -24 -16 5 -16 5 1 -9 20
-16 23 -73 5 -80 -8 -3 -6 -6 5 -6 17 -1 21 8 18 42 -3 21 -1 21 46 3 21 -7
64 -21 95 -30 33 -10 57 -22 55 -29 -1 -7 10 -13 25 -15 14 -2 28 -9 31 -15 5
-14 -131 -13 -216 2 -31 5 -70 4 -110 -5 -54 -11 -57 -13 -22 -12 110 0 146
-3 140 -12 -3 -5 1 -10 10 -10 9 0 13 5 10 10 -3 6 -1 10 5 10 7 0 10 -6 7
-14 -3 -8 0 -19 6 -24 18 -14 97 -24 97 -12 0 5 -18 10 -39 10 -40 0 -61 13
-41 25 5 3 10 1 10 -4 0 -6 5 -11 11 -11 5 0 7 5 4 10 -3 6 1 10 10 10 9 0 14
-4 11 -9 -7 -11 43 -21 105 -21 26 0 51 -5 54 -10 4 -6 15 -8 26 -5 12 4 19 2
19 -7 0 -8 -15 -14 -40 -16 -27 -2 -40 2 -40 10 0 9 -3 10 -8 2 -10 -15 -172
3 -193 22 -8 8 -21 14 -27 14 -7 0 -12 5 -12 10 0 6 -8 10 -17 10 -16 0 -16
-2 -3 -11 11 -8 6 -9 -20 -4 -33 6 -53 8 -125 13 -23 2 -27 4 -15 12 12 7 12
12 3 21 -10 10 -18 10 -39 1 -32 -15 -27 -36 12 -40 16 -2 34 -8 39 -13 11
-11 -66 -4 -140 12 -22 5 -54 9 -71 9 l-32 0 4 53 3 52 -9 -43 c-12 -58 -17
-63 -44 -52 -13 5 -33 6 -45 3 -12 -3 -21 -1 -21 5 0 6 -19 7 -46 4 -32 -3
-45 -1 -40 6 4 6 -7 9 -31 7 -21 -1 -30 -1 -20 2 36 9 15 19 -35 17 -44 -2
-49 -1 -28 7 20 8 22 12 10 19 -12 8 -10 10 8 10 12 0 22 4 22 9 0 5 17 3 37
-5 51 -18 77 -16 34 3 -43 18 -207 30 -196 14 4 -7 15 -9 26 -6 10 4 19 2 19
-3 0 -10 -123 -8 -140 3 -6 4 -14 4 -17 1 -4 -3 0 -6 8 -6 11 0 11 -2 1 -9 -9
-5 9 -12 50 -21 35 -7 67 -16 71 -20 12 -10 -76 -1 -138 14 -27 7 -66 11 -87
8 -20 -2 -74 3 -120 12 -77 14 -221 28 -276 27 -13 -1 -21 2 -19 7 3 4 -23 7
-56 7 -82 1 -175 13 -200 26 -12 7 -22 8 -26 1 -3 -5 -15 -7 -26 -5 -11 2 -32
4 -47 4 -16 0 -28 3 -28 7 0 8 -67 12 -178 12 -41 0 -82 5 -93 11 -11 5 -25 7
-31 3 -17 -11 18 -22 70 -23 43 -1 43 -1 38 -32 -5 -35 -16 -51 -16 -25 0 13
-6 17 -20 13 -11 -3 -20 -1 -20 4 0 15 -22 10 -35 -8 -13 -17 -51 -11 -40 7 3
5 2 10 -4 10 -5 0 -13 -5 -16 -10 -4 -6 -10 -8 -15 -5 -5 3 -12 1 -15 -5 -4
-6 -15 -8 -26 -5 -13 4 -19 2 -17 -6 2 -8 -7 -13 -22 -13 -18 -1 -24 -6 -22
-18 4 -26 -15 -22 -22 5 l-7 22 -9 -22 c-9 -23 -43 -39 -60 -28 -5 3 -10 15
-10 25 0 10 -5 22 -12 26 -7 5 -9 2 -5 -9 11 -28 -24 -28 -69 0 -24 15 -45 35
-47 43 -2 8 -7 -6 -11 -32 -8 -46 -18 -59 -31 -38 -6 9 -41 12 -134 10 -31 0
-47 5 -57 17 -9 12 -13 14 -14 5 0 -7 -4 -11 -9 -7 -5 3 -12 1 -16 -5 -4 -6
-17 -5 -38 3 -19 8 -47 10 -70 7 -20 -4 -63 -3 -94 2 -31 5 -64 7 -72 5 -9 -3
-2 -5 16 -6 17 0 34 -5 37 -10 6 -9 98 -22 153 -21 41 1 49 -14 17 -29 -14 -6
-23 -15 -19 -20 3 -5 25 2 50 16 25 13 45 20 45 14 0 -6 -5 -11 -11 -11 -6 0
-9 -6 -7 -12 3 -7 -5 -21 -16 -31 -13 -12 -8 -10 14 4 19 13 38 28 42 34 5 6
8 5 8 -4 0 -8 6 -11 16 -7 14 5 15 4 5 -8 -17 -20 -8 -23 89 -31 79 -6 87 -5
105 15 16 18 26 20 60 14 46 -8 70 -11 105 -13 25 -2 25 -2 -10 -30 -34 -28
-34 -29 -10 -33 13 -1 25 -8 27 -15 3 -9 -4 -10 -27 -3 -25 7 -35 5 -51 -11
-10 -10 -19 -21 -19 -23 0 -2 37 -9 83 -16 45 -7 86 -15 92 -18 5 -4 23 -5 38
-3 16 1 51 -3 78 -9 51 -13 75 -7 49 11 -12 9 -11 10 4 5 13 -5 17 -2 12 9 -6
17 2 19 24 5 11 -7 12 -10 2 -10 -8 0 -12 -9 -10 -23 2 -16 9 -21 27 -19 17 1
22 -2 17 -13 -4 -11 1 -15 17 -15 18 0 19 2 7 11 -11 8 0 9 40 3 30 -3 63 -6
73 -6 9 0 15 -3 12 -8 -3 -5 9 -8 27 -8 57 1 98 -5 98 -13 0 -5 23 -6 51 -4
31 4 48 2 44 -4 -3 -6 -13 -8 -23 -5 -14 5 -14 4 1 -6 18 -11 17 -13 -5 -24
-12 -7 -43 -11 -68 -9 -43 2 -42 2 15 -12 33 -7 94 -17 135 -22 66 -7 77 -6
93 9 14 15 14 18 2 18 -8 0 -15 5 -15 10 0 6 -9 10 -20 10 -11 0 -20 5 -20 11
0 6 9 8 23 3 27 -8 74 -44 58 -44 -15 0 -14 -27 1 -32 8 -3 5 -11 -8 -24 -10
-10 -19 -25 -20 -31 -1 -7 -2 -17 -2 -23 -1 -5 -18 -10 -39 -10 -52 0 -35 -10
23 -14 27 -2 57 -4 67 -5 11 -1 15 -6 11 -13 -4 -7 -3 -8 5 -4 18 12 130 -4
145 -20 10 -9 16 -10 18 -3 2 7 20 8 53 3 38 -5 45 -9 30 -14 -26 -10 64 -25
98 -16 16 4 26 -1 35 -15 13 -20 12 -21 -30 -15 -24 3 -68 11 -98 16 -115 20
-227 34 -282 35 -31 0 -54 3 -52 7 2 4 0 9 -4 12 -8 5 -15 -6 -40 -57 -2 -5 5
-3 15 4 15 9 34 9 79 1 l59 -11 -65 3 -65 4 54 -13 c29 -7 58 -18 64 -24 6 -6
16 -7 27 -1 11 6 36 4 71 -5 30 -8 66 -15 80 -15 15 0 30 -7 33 -16 8 -22 8
-26 -3 -19 -5 3 -12 1 -15 -4 -3 -5 4 -11 16 -14 12 -4 19 -9 16 -13 -4 -3
-42 5 -85 20 -46 15 -121 29 -183 35 -58 5 -111 11 -119 13 -8 1 -16 -4 -18
-12 -3 -13 13 -19 72 -29 41 -7 94 -19 118 -26 46 -16 50 -16 -58 -1 -16 3
-82 14 -145 26 -225 41 -478 78 -485 72 -12 -12 -4 -22 18 -22 34 0 67 -11 62
-21 -7 -10 39 -18 145 -24 47 -2 109 -11 139 -19 30 -7 65 -13 78 -11 14 1 23
-3 23 -11 0 -8 -5 -14 -12 -14 -6 0 -8 -3 -5 -6 4 -4 -2 -19 -13 -34 -11 -16
-20 -30 -20 -33 0 -3 23 -11 50 -18 28 -7 50 -16 50 -20 0 -10 -84 2 -91 14
-4 5 -10 0 -14 -12 -3 -11 -10 -21 -14 -21 -4 0 -7 -9 -8 -20 -2 -22 13 -28
19 -8 3 8 18 5 51 -10 47 -22 63 -36 30 -26 -15 5 -15 4 -3 -4 8 -6 47 -15 87
-21 87 -13 83 -13 83 0 0 23 101 219 112 219 7 0 23 -3 36 -6 18 -5 21 -11 16
-28 -4 -11 -13 -25 -21 -29 -7 -5 -11 -12 -8 -18 4 -5 1 -9 -4 -9 -6 0 -11 14
-11 31 0 17 -4 28 -10 24 -19 -12 -11 -61 13 -81 42 -35 85 -54 120 -54 31 0
36 -4 42 -30 4 -16 13 -30 20 -30 8 0 17 -5 21 -11 5 -8 -1 -10 -19 -7 -20 4
-27 0 -31 -16 -11 -40 -7 -44 34 -41 44 4 48 -3 24 -40 -9 -13 -14 -30 -12
-37 3 -7 15 6 27 29 16 33 27 43 46 43 16 0 25 -6 25 -15 0 -8 5 -15 10 -15 6
0 10 7 10 15 0 13 4 14 21 4 16 -8 23 -8 28 0 5 7 34 9 87 6 l79 -5 -44 17
c-29 10 -46 12 -48 6 -3 -7 -17 -7 -45 0 -32 8 -37 12 -23 17 13 4 -2 11 -46
20 -35 7 -73 19 -84 27 -11 7 -27 13 -37 13 -18 0 -26 34 -10 44 12 7 143 -12
156 -23 14 -11 73 -22 113 -22 18 1 34 -3 37 -8 3 -4 18 -6 32 -3 19 3 25 1
20 -7 -4 -7 0 -11 11 -11 10 0 29 -3 43 -5 22 -5 22 -4 5 4 -19 9 -19 10 3 10
12 1 22 -3 22 -8 0 -9 42 -20 99 -27 18 -2 35 -5 38 -7 2 -3 1 -23 -3 -46 -5
-28 -12 -41 -23 -41 -13 0 -13 -2 -2 -9 26 -17 -7 -21 -48 -6 -23 8 -65 16
-94 17 -29 2 -54 6 -57 10 -3 4 -31 10 -63 14 -48 6 -57 4 -57 -9 0 -9 -5 -19
-11 -23 -8 -5 -10 1 -7 20 4 21 1 26 -14 26 -10 0 -23 -10 -28 -22 -5 -13 -9
-17 -9 -10 -1 18 -21 15 -28 -5 -3 -10 -15 -29 -27 -42 -12 -13 -15 -21 -8
-17 6 4 12 5 12 1 0 -5 -40 -106 -63 -158 -13 -30 -38 -35 -61 -11 -10 10 -16
11 -16 3 0 -11 -41 -8 -110 8 -42 10 -12 -11 33 -23 23 -6 41 -16 39 -22 -1
-7 2 -12 8 -12 5 0 10 6 10 14 0 9 7 12 20 9 11 -3 20 -11 20 -19 0 -8 6 -11
15 -8 11 5 13 2 9 -10 -5 -13 0 -16 24 -16 17 0 37 7 46 15 8 8 17 11 20 6 4
-5 0 -11 -6 -14 -24 -8 -3 -15 65 -19 58 -3 64 -2 45 9 -13 7 -17 12 -8 12 21
-1 68 -17 53 -18 -7 -1 -13 -5 -13 -9 0 -7 118 -27 230 -39 25 -3 47 -7 49 -9
3 -2 4 -30 4 -62 -1 -31 1 -44 4 -29 2 16 11 31 19 34 11 4 12 9 3 19 -6 8 -9
20 -6 28 5 12 15 12 69 1 35 -7 109 -21 165 -30 81 -15 100 -21 95 -33 -3 -10
-1 -13 7 -8 9 6 10 1 5 -18 -8 -34 4 -86 16 -66 7 11 11 11 23 1 9 -6 18 -8
21 -3 3 5 18 8 33 7 20 -2 21 -1 5 2 -18 4 -21 7 -12 18 8 10 8 19 -2 34 -17
27 -9 32 33 21 26 -7 39 -19 50 -42 14 -34 58 -56 46 -24 -4 11 -1 16 11 16
10 1 5 6 -13 15 -29 13 -29 13 -5 13 29 1 74 -16 50 -18 -21 -1 18 -30 41 -30
9 0 19 -7 23 -15 3 -8 9 -15 13 -14 22 4 30 -4 43 -36 13 -33 25 -40 59 -36 7
2 10 -2 7 -8 -4 -6 9 -13 31 -16 21 -3 57 -10 80 -16 23 -5 56 -9 73 -9 17 0
40 -5 51 -11 11 -6 30 -12 42 -15 12 -2 58 -11 102 -20 238 -48 326 -66 380
-79 180 -43 378 -84 435 -90 36 -3 153 -23 260 -45 241 -47 231 -45 310 -63
36 -9 92 -21 125 -27 219 -41 203 -40 823 -40 l602 0 0 3285 c0 1807 -3 3284
-7 3284 -5 -1 -28 -7 -53 -14z m-255 -65 c3 -6 -1 -7 -9 -4 -18 7 -21 14 -7
14 6 0 13 -4 16 -10z m-22 -67 c-7 -2 -21 -2 -30 0 -10 3 -4 5 12 5 17 0 24
-2 18 -5z m70 0 c-7 -2 -19 -2 -25 0 -7 3 -2 5 12 5 14 0 19 -2 13 -5z m105
-320 c-10 -2 -26 -2 -35 0 -10 3 -2 5 17 5 19 0 27 -2 18 -5z m-65 -10 c-7 -2
-21 -2 -30 0 -10 3 -4 5 12 5 17 0 24 -2 18 -5z m-2068 -303 c-16 -4 -41 -8
-55 -8 -22 0 -22 1 5 8 17 4 41 8 55 8 22 0 22 -1 -5 -8z m-155 -54 c0 -2 -7
-6 -15 -10 -8 -3 -15 -1 -15 4 0 6 7 10 15 10 8 0 15 -2 15 -4z m-1193 -518
c-3 -7 -5 -2 -5 12 0 14 2 19 5 13 2 -7 2 -19 0 -25z m570 -135 c1 -24 1 -25
-7 -8 -11 26 -12 35 -2 35 4 0 8 -12 9 -27z m-1147 -122 c0 -4 -7 -8 -15 -8
-16 0 -20 9 -9 20 8 8 24 -1 24 -12z m1187 -23 c-3 -7 -5 -2 -5 12 0 14 2 19
5 13 2 -7 2 -19 0 -25z m-1204 -15 c-7 -2 -19 -2 -25 0 -7 3 -2 5 12 5 14 0
19 -2 13 -5z m1187 -13 c0 -11 -7 -20 -15 -20 -18 0 -19 12 -3 28 16 16 18 15
18 -8z m39 -220 c0 -124 -17 -48 -23 101 l-5 134 14 -80 c7 -44 14 -114 14
-155z m971 205 c36 -37 42 -79 16 -127 -19 -37 -28 -43 -57 -45 -19 -2 -61 -4
-94 -7 -98 -6 -199 -16 -219 -23 -14 -4 -16 -2 -11 8 6 11 5 12 -6 2 -7 -7
-24 -13 -37 -13 -16 0 -21 4 -16 13 6 9 5 9 -7 0 -24 -20 -166 -28 -181 -11
-42 45 -48 96 -20 152 17 35 18 36 82 38 93 2 129 5 293 23 41 4 63 2 75 -7 9
-8 13 -8 9 -1 -5 7 1 10 18 8 14 -1 25 1 25 4 0 3 25 6 55 6 41 0 59 -5 75
-20z m-2520 -35 c0 -5 -2 -10 -4 -10 -3 0 -8 5 -11 10 -3 6 -1 10 4 10 6 0 11
-4 11 -10z m74 -6 c3 -8 2 -12 -4 -9 -6 3 -10 10 -10 16 0 14 7 11 14 -7z
m-127 -14 c1 -11 -2 -20 -6 -20 -5 0 -11 9 -14 20 -3 12 0 20 7 20 6 0 12 -9
13 -20z m330 -2 c-3 -8 -6 -5 -6 6 -1 11 2 17 5 13 3 -3 4 -12 1 -19z m-677
-3 c-14 -16 0 -21 16 -5 6 6 9 -11 9 -46 0 -43 -2 -51 -11 -39 -7 9 -10 24 -7
34 3 11 -2 21 -12 25 -13 5 -16 2 -12 -13 3 -14 0 -17 -14 -14 -11 3 -21 9
-24 13 -6 9 25 45 45 53 23 8 23 8 10 -8z m160 5 c0 -5 -2 -10 -4 -10 -3 0 -8
5 -11 10 -3 6 -1 10 4 10 6 0 11 -4 11 -10z m275 -10 c3 -5 1 -10 -4 -10 -6 0
-11 5 -11 10 0 6 2 10 4 10 3 0 8 -4 11 -10z m-217 -20 c5 -13 3 -13 -12 -1
-15 13 -19 13 -26 1 -5 -8 -12 -11 -17 -7 -9 10 17 28 36 24 8 -1 17 -9 19
-17z m-158 0 c0 -5 -4 -10 -10 -10 -5 0 -10 5 -10 10 0 6 5 10 10 10 6 0 10
-4 10 -10z m-450 -20 c0 -5 -4 -10 -10 -10 -5 0 -10 5 -10 10 0 6 5 10 10 10
6 0 10 -4 10 -10z m877 -19 c0 -11 -5 -18 -9 -15 -4 3 -5 11 -1 19 7 21 12 19
10 -4z m-334 -6 c-14 -11 -13 -14 7 -28 13 -9 20 -20 16 -24 -5 -5 -11 -3 -13
4 -2 7 -11 9 -19 6 -9 -3 -14 1 -14 14 0 10 -5 24 -10 29 -7 7 -1 11 19 11 26
0 28 -2 14 -12z m-163 -22 c0 -20 -23 -11 -26 9 -1 11 3 15 12 11 8 -3 14 -12
14 -20z m210 13 c0 -11 -19 -15 -25 -6 -3 5 1 10 9 10 9 0 16 -2 16 -4z m-526
-22 c9 -24 0 -29 -19 -11 -19 19 -19 27 -1 27 8 0 17 -7 20 -16z m1069 9 c-7
-2 -19 -2 -25 0 -7 3 -2 5 12 5 14 0 19 -2 13 -5z m-1883 -40 c0 -19 -3 -24
-10 -17 -6 6 -8 18 -4 27 9 24 14 21 14 -10z m-43 -5 c-3 -8 -6 -5 -6 6 -1 11
2 17 5 13 3 -3 4 -12 1 -19z m1875 -55 c1 -40 -1 -75 -5 -79 -4 -4 -7 30 -7
76 0 101 8 103 12 3z m1227 35 c0 -31 -3 -37 -8 -24 -7 18 -3 66 5 66 2 0 4
-19 3 -42z m-1584 22 c3 -5 1 -10 -4 -10 -6 0 -11 -13 -11 -30 0 -16 -4 -30
-10 -30 -5 0 -10 -7 -10 -15 0 -8 -3 -15 -7 -15 -5 0 -9 18 -10 40 -1 40 12
55 20 23 3 -10 5 -3 6 15 1 31 14 42 26 22z m-139 -18 c-10 -2 -22 0 -28 6 -6
6 0 7 19 4 21 -5 23 -7 9 -10z m1691 -14 c-3 -8 -6 -5 -6 6 -1 11 2 17 5 13 3
-3 4 -12 1 -19z m-3057 -4 c0 -8 -4 -12 -10 -9 -5 3 -10 10 -10 16 0 5 5 9 10
9 6 0 10 -7 10 -16z m837 10 c-3 -3 -12 -4 -19 -1 -8 3 -5 6 6 6 11 1 17 -2
13 -5z m108 -4 c-3 -5 -11 -10 -16 -10 -6 0 -7 5 -4 10 3 6 11 10 16 10 6 0 7
-4 4 -10z m495 -29 c0 -40 -19 -49 -41 -20 -17 23 -17 24 4 36 32 18 37 16 37
-16z m-955 -8 c-19 -13 -35 -17 -35 -9 0 12 33 35 42 30 7 -5 4 -12 -7 -21z
m750 7 c3 -5 -1 -10 -10 -10 -9 0 -13 5 -10 10 3 6 8 10 10 10 2 0 7 -4 10
-10z m-1255 -10 c0 -5 -4 -10 -10 -10 -5 0 -10 5 -10 10 0 6 5 10 10 10 6 0
10 -4 10 -10z m53 -10 c31 -1 38 -16 22 -46 -10 -19 -15 -23 -15 -11 0 9 -3
17 -7 17 -11 0 -32 48 -25 55 4 3 8 1 10 -4 2 -6 9 -11 15 -11z m1332 10 c-3
-5 -13 -10 -21 -10 -8 0 -14 5 -14 10 0 6 9 10 21 10 11 0 17 -4 14 -10z m185
-6 c0 -2 -9 -4 -21 -4 -11 0 -18 4 -14 10 5 8 35 3 35 -6z m257 10 c-3 -3 -12
-4 -19 -1 -8 3 -5 6 6 6 11 1 17 -2 13 -5z m-172 -14 c3 -5 1 -10 -4 -10 -6 0
-11 5 -11 10 0 6 2 10 4 10 3 0 8 -4 11 -10z m-1625 -31 c0 -6 -4 -7 -10 -4
-5 3 -10 11 -10 16 0 6 5 7 10 4 6 -3 10 -11 10 -16z m1266 9 c4 -7 3 -8 -4
-4 -7 4 -12 0 -12 -10 0 -10 -3 -15 -6 -11 -7 6 2 37 10 37 3 0 8 -5 12 -12z
m60 -1 c4 -4 -5 -7 -20 -7 -15 0 -25 4 -22 9 7 10 31 9 42 -2z m1794 -69 c0
-45 -2 -79 -5 -77 -2 3 -5 36 -6 75 -1 79 -1 84 6 84 3 0 5 -37 5 -82z m-3150
51 c0 -6 -4 -7 -10 -4 -5 3 -10 11 -10 16 0 6 5 7 10 4 6 -3 10 -11 10 -16z
m1990 -29 c-14 -4 -20 -9 -15 -9 6 -1 3 -6 -6 -11 -10 -6 -31 -4 -60 4 -39 12
-41 14 -19 18 14 3 48 5 75 6 39 0 44 -2 25 -8z m-610 -54 c0 -2 -7 -6 -15
-10 -8 -3 -15 -1 -15 4 0 6 7 10 15 10 8 0 15 -2 15 -4z m-1361 -27 c-8 -15
-8 -24 0 -32 14 -14 14 -47 0 -47 -5 0 -8 4 -4 9 3 5 1 12 -5 16 -17 10 -12
75 5 75 13 0 14 -4 4 -21z m1472 -12 c-10 -9 -11 -8 -5 6 3 10 9 15 12 12 3
-3 0 -11 -7 -18z m1636 -49 c-3 -7 -5 -2 -5 12 0 14 2 19 5 13 2 -7 2 -19 0
-25z m12 -280 c0 -42 -2 -79 -6 -81 -5 -3 -9 7 -10 21 -8 105 -10 185 -5 232
l7 55 6 -75 c4 -41 7 -110 8 -152z m-1274 203 c3 -5 1 -12 -5 -16 -5 -3 -10 1
-10 9 0 18 6 21 15 7z m1298 -106 c3 -69 3 -85 -3 -50 -8 51 -13 162 -6 154 2
-2 6 -49 9 -104z m-3135 61 c-7 -8 -15 -12 -17 -11 -5 6 10 25 20 25 5 0 4 -6
-3 -14z m1379 -11 c0 -8 -4 -15 -9 -15 -4 0 -8 7 -8 15 0 8 4 15 8 15 5 0 9
-7 9 -15z m553 5 c0 -5 -5 -10 -11 -10 -5 0 -7 5 -4 10 3 6 8 10 11 10 2 0 4
-4 4 -10z m-1905 -10 c3 -5 1 -10 -4 -10 -6 0 -11 5 -11 10 0 6 2 10 4 10 3 0
8 -4 11 -10z m5082 -26 c-3 -3 -12 -4 -19 -1 -8 3 -5 6 6 6 11 1 17 -2 13 -5z
m86 -1 c-7 -2 -19 -2 -25 0 -7 3 -2 5 12 5 14 0 19 -2 13 -5z m-3659 -28 c-4
-8 -8 -15 -10 -15 -2 0 -4 7 -4 15 0 8 4 15 10 15 5 0 7 -7 4 -15z m-1551 -10
c-3 -9 -8 -14 -10 -11 -3 3 -2 9 2 15 9 16 15 13 8 -4z m1927 0 c-7 -9 -15
-13 -17 -11 -7 7 7 26 19 26 6 0 6 -6 -2 -15z m3247 9 c-3 -3 -12 -4 -19 -1
-8 3 -5 6 6 6 11 1 17 -2 13 -5z m-3552 -24 c3 -5 1 -10 -4 -10 -6 0 -11 5
-11 10 0 6 2 10 4 10 3 0 8 -4 11 -10z m86 -53 c-10 -9 -11 -8 -5 6 3 10 9 15
12 12 3 -3 0 -11 -7 -18z m199 2 c0 -5 -4 -9 -8 -9 -5 0 -9 7 -9 15 0 8 4 12
9 9 4 -3 8 -9 8 -15z m-1875 -19 c-3 -5 -13 -10 -21 -10 -8 0 -14 5 -14 10 0
6 9 10 21 10 11 0 17 -4 14 -10z m1677 -26 c-3 -19 -7 -22 -13 -12 -13 20 -11
38 5 38 9 0 12 -8 8 -26z m152 1 c-4 -8 -8 -15 -10 -15 -2 0 -4 7 -4 15 0 8 4
15 10 15 5 0 7 -7 4 -15z m1303 -92 c-2 -16 -4 -5 -4 22 0 28 2 40 4 28 2 -13
2 -35 0 -50z m-3177 47 c0 -5 -2 -10 -4 -10 -3 0 -8 5 -11 10 -3 6 -1 10 4 10
6 0 11 -4 11 -10z m1860 -5 c0 -8 -2 -15 -4 -15 -2 0 -6 7 -10 15 -3 8 -1 15
4 15 6 0 10 -7 10 -15z m-100 -15 c0 -5 -5 -10 -11 -10 -5 0 -7 5 -4 10 3 6 8
10 11 10 2 0 4 -4 4 -10z m-1740 -15 c-12 -15 -30 -12 -30 6 0 5 10 9 21 9 18
0 19 -2 9 -15z m1920 -7 c0 -16 -3 -19 -11 -11 -6 6 -8 16 -5 22 11 17 16 13
16 -11z m1210 -25 c0 -35 -3 -44 -10 -33 -13 20 -13 80 0 80 6 0 10 -21 10
-47z m-1373 5 c-3 -7 -5 -2 -5 12 0 14 2 19 5 13 2 -7 2 -19 0 -25z m-127 -10
c0 -5 5 -6 10 -3 6 3 10 2 10 -4 0 -16 -18 -22 -24 -9 -5 10 -7 10 -12 1 -8
-18 -17 -16 -30 5 -9 15 -7 17 18 18 15 1 28 -3 28 -8z m-1637 -5 c3 -5 -1
-14 -9 -21 -12 -11 -14 -9 -14 8 0 20 14 27 23 13z m1685 -18 c-3 -3 -9 2 -12
12 -6 14 -5 15 5 6 7 -7 10 -15 7 -18z m-118 -11 c0 -8 -5 -12 -10 -9 -6 4 -8
11 -5 16 9 14 15 11 15 -7z m283 -19 c-8 -22 -22 -18 -16 5 3 11 9 17 14 15 4
-3 6 -12 2 -20z m-1856 -11 c-3 -3 -12 -4 -19 -1 -8 3 -5 6 6 6 11 1 17 -2 13
-5z m1683 -4 c0 -5 -4 -10 -10 -10 -5 0 -10 5 -10 10 0 6 5 10 10 10 6 0 10
-4 10 -10z m-1645 -20 c3 -5 1 -10 -4 -10 -6 0 -11 5 -11 10 0 6 2 10 4 10 3
0 8 -4 11 -10z m3142 -32 c-3 -8 -6 -5 -6 6 -1 11 2 17 5 13 3 -3 4 -12 1 -19z
m893 -16 c0 -4 -19 -9 -42 -11 -23 -1 -45 -5 -48 -8 -3 -3 22 -4 55 -2 33 2
66 0 73 -4 29 -19 7 -27 -75 -29 l-88 -1 72 -6 c39 -3 74 -8 76 -11 9 -8 37
-372 30 -383 -4 -6 -73 -7 -187 -4 -100 4 -197 7 -217 7 l-36 0 -7 108 c-3 59
-12 160 -19 225 -7 65 -11 120 -8 122 8 9 421 5 421 -3z m-893 -59 c-3 -10 -5
-4 -5 12 0 17 2 24 5 18 2 -7 2 -21 0 -30z m-3097 -23 c0 -21 -5 -30 -16 -30
-11 0 -14 5 -10 16 3 9 6 22 6 30 0 8 5 14 10 14 6 0 10 -13 10 -30z m-65 10
c3 -5 -3 -10 -15 -10 -12 0 -18 5 -15 10 3 6 10 10 15 10 5 0 12 -4 15 -10z
m1 -59 c-1 -18 -5 -27 -13 -24 -7 3 -13 -1 -13 -8 0 -7 -3 -9 -6 -6 -4 4 -1
13 5 21 8 10 9 16 1 21 -16 10 -12 25 9 25 14 0 18 -7 17 -29z m58 -7 c3 -8 2
-12 -4 -9 -6 3 -10 10 -10 16 0 14 7 11 14 -7z m1228 -130 c-5 -27 -18 -30
-56 -10 -23 12 -24 15 -11 26 8 7 15 9 15 4 0 -4 5 -3 11 3 19 19 46 4 41 -23z
m-1222 -14 c6 -11 7 -20 1 -20 -5 0 -11 6 -14 13 -3 9 -17 13 -39 10 -26 -2
-29 -1 -13 6 32 15 54 12 65 -9z m3117 -102 c-2 -24 -4 -7 -4 37 0 44 2 63 4
43 2 -21 2 -57 0 -80z m-1907 67 c7 -8 8 -15 2 -15 -5 0 -15 7 -22 15 -7 8 -8
15 -2 15 5 0 15 -7 22 -15z m240 -15 c0 -5 -5 -10 -11 -10 -5 0 -7 5 -4 10 3
6 8 10 11 10 2 0 4 -4 4 -10z m-1440 -10 c0 -5 -4 -10 -10 -10 -5 0 -10 5 -10
10 0 6 5 10 10 10 6 0 10 -4 10 -10z m-40 -10 c0 -5 -4 -10 -9 -10 -6 0 -13 5
-16 10 -3 6 1 10 9 10 9 0 16 -4 16 -10z m-40 -10 c0 -5 -7 -7 -15 -4 -8 4
-15 8 -15 10 0 2 7 4 15 4 8 0 15 -4 15 -10z m1531 -30 c6 0 7 -5 4 -11 -5 -6
-12 -4 -20 8 -7 10 -10 22 -7 28 4 5 8 2 10 -7 2 -10 8 -18 13 -18z m91 18
c-9 -9 -15 -9 -24 0 -9 9 -7 12 12 12 19 0 21 -3 12 -12z m-1582 -28 c0 -5 -4
-10 -10 -10 -5 0 -10 5 -10 10 0 6 5 10 10 10 6 0 10 -4 10 -10z m1076 -27
c-10 -10 -19 5 -10 18 6 11 8 11 12 0 2 -7 1 -15 -2 -18z m449 8 c-3 -6 -11
-11 -16 -11 -5 0 -4 6 3 14 14 16 24 13 13 -3z m40 -1 c-3 -5 -10 -10 -16 -10
-5 0 -9 5 -9 10 0 6 7 10 16 10 8 0 12 -4 9 -10z m-1589 -8 c-3 -5 1 -21 9
-36 8 -14 11 -34 8 -44 -6 -13 -9 -10 -14 13 -4 17 -11 40 -14 53 -5 14 -3 22
4 22 7 0 10 -4 7 -8z m42 -12 c-7 -10 -14 -18 -15 -16 -6 6 9 36 18 36 5 0 4
-9 -3 -20z m1265 13 c-7 -2 -19 -2 -25 0 -7 3 -2 5 12 5 14 0 19 -2 13 -5z
m-1023 -64 c0 -5 -7 -9 -15 -9 -15 0 -20 12 -9 23 8 8 24 -1 24 -14z m-290 1
c0 -5 -4 -10 -10 -10 -5 0 -10 5 -10 10 0 6 5 10 10 10 6 0 10 -4 10 -10z
m216 -27 c-10 -10 -19 5 -10 18 6 11 8 11 12 0 2 -7 1 -15 -2 -18z m-36 3 c0
-3 -4 -8 -10 -11 -5 -3 -10 -1 -10 4 0 6 5 11 10 11 6 0 10 -2 10 -4z m-170
-27 c9 -16 8 -26 -5 -45 -9 -14 -20 -22 -26 -18 -6 3 -3 11 8 19 15 12 16 17
6 34 -16 25 -16 31 -3 31 5 0 14 -9 20 -21z m280 6 c0 -8 -4 -15 -10 -15 -5 0
-7 7 -4 15 4 8 8 15 10 15 2 0 4 -7 4 -15z m937 -51 c-3 -3 -12 -4 -19 -1 -8
3 -5 6 6 6 11 1 17 -2 13 -5z m-1097 -18 c0 -3 -4 -8 -10 -11 -5 -3 -10 -1
-10 4 0 6 5 11 10 11 6 0 10 -2 10 -4z m-116 -33 c-8 -34 -15 -42 -21 -25 -3
6 -9 10 -14 6 -15 -9 -10 5 9 25 24 27 33 25 26 -6z m310 -222 c3 -4 -6 -6
-20 -3 -28 5 -76 -16 -68 -30 3 -4 0 -8 -7 -8 -6 0 -9 8 -6 20 7 27 -7 25 -21
-2 -6 -13 -11 -17 -11 -10 -1 6 -14 12 -29 12 -19 0 -29 5 -29 15 0 12 17 15
93 15 51 0 95 -4 98 -9z m-207 -33 c-3 -8 -6 -5 -6 6 -1 11 2 17 5 13 3 -3 4
-12 1 -19z m188 12 c-3 -5 -12 -10 -18 -10 -7 0 -6 4 3 10 19 12 23 12 15 0z
m900 -50 c17 -7 14 -9 -15 -10 l-35 -2 30 -9 c16 -4 47 -6 67 -2 25 4 38 2 38
-6 0 -12 -18 -14 -90 -11 -76 3 -98 45 -25 48 6 0 19 -3 30 -8z m-918 -6 c-3
-3 -12 -4 -19 -1 -8 3 -5 6 6 6 11 1 17 -2 13 -5z m843 -44 c0 -5 -2 -10 -4
-10 -3 0 -8 5 -11 10 -3 6 -1 10 4 10 6 0 11 -4 11 -10z m-837 -7 c-7 -2 -19
-2 -25 0 -7 3 -2 5 12 5 14 0 19 -2 13 -5z m882 -13 c3 -5 1 -10 -4 -10 -6 0
-11 5 -11 10 0 6 2 10 4 10 3 0 8 -4 11 -10z m-15 -30 c0 -5 -2 -10 -4 -10 -3
0 -8 5 -11 10 -3 6 -1 10 4 10 6 0 11 -4 11 -10z m138 3 c-10 -2 -26 -2 -35 0
-10 3 -2 5 17 5 19 0 27 -2 18 -5z m-45 -40 c-7 -2 -19 -2 -25 0 -7 3 -2 5 12
5 14 0 19 -2 13 -5z m67 -12 c0 -5 -9 -7 -20 -4 -11 3 -20 7 -20 9 0 2 9 4 20
4 11 0 20 -4 20 -9z m507 -137 c-3 -3 -12 -4 -19 -1 -8 3 -5 6 6 6 11 1 17 -2
13 -5z m58 -24 c-3 -5 -12 -10 -18 -10 -7 0 -6 4 3 10 19 12 23 12 15 0z m85
-30 c0 -5 -2 -10 -4 -10 -3 0 -8 5 -11 10 -3 6 -1 10 4 10 6 0 11 -4 11 -10z
m93 -27 c-7 -2 -21 -2 -30 0 -10 3 -4 5 12 5 17 0 24 -2 18 -5z m275 -44 l27
0 -22 -16 c-31 -21 -29 -31 5 -31 51 1 73 9 82 31 8 21 9 21 9 -5 1 -22 -4
-28 -19 -28 -17 0 -20 -7 -20 -47 0 -37 -3 -44 -12 -35 -16 16 -100 15 -117 0
-10 -9 -12 -9 -7 -1 3 6 1 15 -5 18 -5 4 -8 13 -5 21 3 8 -2 18 -11 21 -14 5
-13 8 5 14 14 5 22 17 22 32 0 29 9 39 28 32 7 -3 26 -5 40 -6z m804 -179 c-2
-3 -7 0 -9 7 -2 7 -12 9 -21 6 -14 -5 -15 -3 -4 8 17 19 15 26 -9 25 -12 -1
-24 5 -27 13 -3 9 0 11 7 6 8 -4 15 2 18 16 6 21 9 19 29 -26 12 -27 19 -52
16 -55z m-619 75 c-3 -9 -8 -14 -10 -11 -3 3 -2 9 2 15 9 16 15 13 8 -4z m-40
-42 c-7 -2 -21 -2 -30 0 -10 3 -4 5 12 5 17 0 24 -2 18 -5z m347 -3 c8 -5 11
-10 5 -10 -5 0 -17 5 -25 10 -8 5 -10 10 -5 10 6 0 17 -5 25 -10z m-69 -50
c10 0 19 5 19 10 0 6 7 10 15 10 13 0 14 -4 5 -20 -9 -17 -8 -20 9 -20 11 0
26 7 34 15 17 16 28 10 20 -11 -6 -17 11 -18 38 -4 13 7 19 7 19 0 0 -5 7 -10
16 -10 8 0 22 -7 30 -15 9 -8 27 -15 42 -16 24 0 25 -1 7 -9 -16 -7 -13 -9 17
-9 20 -1 40 -5 43 -11 3 -5 15 -10 25 -10 10 0 22 -5 25 -11 5 -7 -13 -9 -52
-7 -32 2 -56 7 -55 12 10 27 -63 29 -80 3 -4 -7 -11 -7 -22 2 -8 7 -20 10 -25
7 -6 -4 -27 0 -47 9 -20 8 -40 13 -44 10 -5 -3 -19 -1 -32 4 -21 9 -21 10 -3
11 11 1 30 1 42 1 11 -1 24 3 28 8 4 7 -9 11 -37 12 -88 3 -198 19 -198 30 0
5 6 9 13 9 6 0 30 3 51 7 26 4 37 3 33 -4 -7 -11 22 -28 31 -18 3 3 0 5 -8 5
-10 0 -10 3 1 16 8 10 15 12 17 5 2 -6 12 -11 23 -11z m223 13 c4 -4 27 -6 51
-4 32 2 45 -1 45 -11 0 -10 3 -9 11 2 9 13 10 13 6 0 -2 -8 -18 -17 -38 -19
l-34 -4 30 -6 c19 -4 31 -13 33 -25 4 -18 3 -19 -13 -3 -9 9 -30 17 -46 17
-32 0 -41 26 -11 33 10 2 7 4 -8 4 -48 0 -61 3 -55 13 7 12 19 13 29 3z m-364
-55 c0 -4 -9 -6 -20 -5 -12 1 -20 8 -20 19 0 16 3 16 20 6 11 -7 20 -16 20
-20z m-1875 -7 c44 -6 112 -13 150 -16 103 -8 256 -25 288 -31 27 -5 27 -7 27
-79 0 -45 -5 -77 -12 -81 -7 -4 -8 -3 -4 4 6 11 -6 16 -26 13 -5 0 -8 5 -8 13
0 18 -58 27 -64 9 -3 -7 -10 -13 -15 -13 -14 0 -42 30 -36 40 11 18 -41 -4
-57 -24 l-18 -21 0 23 c0 12 -4 22 -10 22 -5 0 -10 -9 -10 -20 0 -11 -4 -20
-10 -20 -5 0 -10 7 -10 15 0 9 -6 12 -15 9 -8 -4 -15 -12 -15 -20 0 -20 -17
-17 -29 4 -9 16 -11 16 -24 -2 -13 -18 -14 -18 -21 5 l-6 24 -20 -25 c-19 -23
-21 -24 -34 -7 -14 18 -32 24 -21 7 3 -5 -3 -10 -14 -10 -11 0 -23 5 -27 11
-4 7 -21 9 -40 6 l-34 -6 0 48 c0 27 -3 69 -6 95 -7 46 -6 47 17 42 13 -3 60
-9 104 -15z m2436 -44 c-10 -9 -11 -8 -5 6 3 10 9 15 12 12 3 -3 0 -11 -7 -18z
m-1786 -23 c28 -3 102 -11 165 -19 63 -7 149 -17 190 -20 109 -9 110 -10 110
-56 0 -36 -3 -40 -30 -45 -16 -4 -30 -10 -30 -15 0 -4 9 -6 20 -4 11 2 22 0
25 -6 4 -5 -5 -9 -19 -9 -14 0 -26 -5 -26 -10 0 -6 3 -9 8 -9 20 3 32 -3 32
-17 0 -8 4 -13 8 -10 5 3 9 -1 9 -9 0 -8 -4 -12 -9 -9 -4 3 -8 1 -8 -5 0 -6
-7 -8 -16 -4 -9 3 -11 9 -6 12 6 4 4 11 -4 18 -8 8 -15 9 -19 3 -3 -6 -2 -10
4 -10 6 0 8 -6 5 -13 -3 -8 -18 -11 -45 -9 -23 3 -37 7 -31 11 7 4 8 12 2 21
-8 13 -10 12 -10 -3 0 -29 -27 -31 -87 -6 -54 22 -57 22 -86 5 -16 -9 -32 -14
-35 -11 -3 3 1 5 9 5 11 0 11 2 -1 10 -8 5 -27 10 -42 10 -26 0 -28 3 -28 44
0 26 5 46 13 49 7 4 6 6 -4 6 -19 1 -33 -40 -24 -69 4 -12 -1 -19 -14 -23 -11
-3 -21 -2 -23 3 -2 4 -21 10 -43 13 -27 4 -35 3 -25 -3 8 -5 25 -10 38 -10 12
0 22 -5 22 -11 0 -7 -9 -9 -22 -5 -13 3 -28 6 -35 6 -7 0 -21 10 -33 22 -11
12 -20 16 -20 10 0 -7 -7 -12 -15 -12 -8 0 -15 5 -15 11 0 5 -4 8 -9 5 -12 -8
-21 44 -21 121 l0 65 63 -6 c34 -4 85 -9 112 -12z m453 -19 c-3 -3 -9 2 -12
12 -6 14 -5 15 5 6 7 -7 10 -15 7 -18z m1059 -30 c0 -17 -42 -21 -52 -5 -3 6
1 7 9 4 9 -3 16 -1 16 5 0 6 6 11 13 11 8 0 14 -7 14 -15z m53 6 c0 -6 -4 -13
-10 -16 -5 -3 -10 1 -10 9 0 9 5 16 10 16 6 0 10 -4 10 -9z m-2917 -21 c4 -4
-13 -4 -38 0 -25 4 -48 10 -52 14 -9 9 80 -4 90 -14z m2009 -10 c38 0 46 -3
42 -15 -4 -8 -1 -22 6 -30 7 -8 9 -15 5 -15 -4 0 -13 8 -20 17 -11 15 -14 15
-26 2 -20 -21 -21 -39 -3 -39 8 0 12 5 9 10 -3 6 -1 10 4 10 13 0 14 -10 1
-30 -7 -12 -12 -12 -29 4 -19 17 -20 17 -37 -16 -16 -31 -35 -51 -41 -44 -2 2
4 19 12 39 19 46 19 47 -6 44 -12 -1 -24 4 -27 12 -3 8 0 11 7 7 10 -7 15 8
14 42 -1 9 6 12 20 8 12 -3 43 -6 69 -6z m867 -16 c8 -8 -74 -3 -94 6 -13 6 0
7 35 3 30 -2 57 -7 59 -9z m-771 -29 c1 -25 -2 -33 -12 -29 -8 3 -13 13 -11
22 2 9 4 23 4 30 2 28 18 9 19 -23z m152 15 c25 -8 25 -8 2 -9 -13 -1 -21 -5
-18 -9 2 -4 0 -14 -6 -22 -8 -12 -9 -12 -4 3 4 13 -1 17 -23 17 -16 0 -31 5
-33 11 -4 12 -38 1 -38 -13 0 -5 4 -7 9 -4 5 4 4 -5 -2 -18 -7 -13 -15 -22
-19 -20 -10 6 -11 58 -1 67 9 9 102 7 133 -3z m260 -6 c0 -2 -9 -4 -20 -4 -11
0 -20 4 -20 9 0 5 9 7 20 4 11 -3 20 -7 20 -9z m55 -4 c13 -5 14 -9 5 -9 -8 0
-24 4 -35 9 -13 5 -14 9 -5 9 8 0 24 -4 35 -9z m-2055 -10 c0 -5 -8 -10 -17
-10 -15 0 -16 2 -3 10 19 12 20 12 20 0z m45 -2 c5 4 5 2 1 -5 -8 -14 -36 -6
-36 9 0 7 5 6 13 -1 8 -6 18 -7 22 -3z m1312 6 c-3 -3 -12 -4 -19 -1 -8 3 -5
6 6 6 11 1 17 -2 13 -5z m-1407 -14 c0 -5 -4 -10 -10 -10 -5 0 -10 5 -10 10 0
6 5 10 10 10 6 0 10 -4 10 -10z m2606 -15 c-8 -8 -18 -15 -22 -15 -3 0 -1 7 6
15 7 8 17 15 22 15 5 0 3 -7 -6 -15z m-2533 -42 c-22 -17 -38 -16 -53 2 -11
14 -8 15 29 13 36 -3 39 -5 24 -15z m917 -60 c0 -3 -6 -3 -14 0 -8 3 -16 -2
-19 -14 -4 -14 0 -19 16 -19 18 0 19 2 7 10 -12 8 -10 10 8 10 13 0 21 4 17 9
-3 6 6 6 25 1 17 -5 37 -8 43 -6 7 1 9 1 4 -1 -4 -3 -5 -8 -2 -13 3 -4 -1 -7
-8 -6 -6 0 -14 -3 -17 -9 -3 -6 13 -10 38 -11 23 0 42 3 42 8 0 5 -4 7 -9 4
-5 -3 -11 1 -15 9 -7 19 8 20 23 1 14 -17 -16 -116 -35 -116 -8 0 -11 6 -8 15
4 9 0 15 -9 15 -8 0 -17 9 -20 20 -6 23 -27 27 -27 5 0 -8 -8 -16 -17 -17 -24
-2 -47 -5 -53 -8 -15 -5 -70 -9 -70 -5 0 4 51 101 66 127 5 7 34 -1 34 -9z
m-240 -7 c0 -2 -7 -6 -15 -10 -8 -3 -15 -1 -15 4 0 6 7 10 15 10 8 0 15 -2 15
-4z m52 -39 c-4 -15 -11 -17 -31 -12 -14 3 -35 7 -45 9 -11 1 -21 7 -23 13 -3
7 15 11 50 10 47 -2 53 -4 49 -20z m51 3 c4 -15 0 -20 -14 -20 -17 0 -18 3 -9
20 6 11 12 20 14 20 2 0 6 -9 9 -20z m31 8 c-5 -7 -2 -9 9 -5 11 4 14 2 11 -8
-3 -8 -12 -11 -20 -8 -15 6 -18 16 -7 26 10 11 15 8 7 -5z m-374 -48 c0 -5 -4
-10 -10 -10 -5 0 -10 5 -10 10 0 6 5 10 10 10 6 0 10 -4 10 -10z m40 -46 l35
-12 -45 0 c-50 0 -115 15 -72 17 12 1 22 6 22 12 0 6 5 7 13 2 6 -4 28 -13 47
-19z m-113 10 c-3 -3 -12 -4 -19 -1 -8 3 -5 6 6 6 11 1 17 -2 13 -5z m436 -24
c9 -9 -2 -10 -48 -4 -91 10 -113 25 -32 20 38 -2 74 -9 80 -16z m270 -167 c-7
-2 -19 -2 -25 0 -7 3 -2 5 12 5 14 0 19 -2 13 -5z m-180 -20 c-7 -2 -19 -2
-25 0 -7 3 -2 5 12 5 14 0 19 -2 13 -5z m262 -35 c33 -6 68 -10 78 -10 12 1
16 -4 13 -16 -3 -9 -8 -34 -12 -55 -3 -20 -10 -40 -15 -43 -5 -3 -7 -10 -4
-15 8 -12 -2 -11 -26 1 -22 12 -26 32 -4 24 9 -4 15 0 15 9 0 13 -5 13 -30 4
-23 -9 -36 -8 -65 6 -19 9 -35 13 -35 8 0 -5 6 -12 13 -15 10 -5 10 -7 0 -12
-7 -3 -13 -10 -13 -16 0 -7 4 -7 13 -1 7 6 28 6 56 0 33 -6 41 -11 30 -18 -12
-8 -12 -10 1 -8 39 4 47 -1 42 -26 -2 -14 -9 -28 -14 -31 -16 -10 -228 29
-228 42 0 7 -4 14 -10 16 -6 2 -3 24 8 55 17 51 17 51 56 48 39 -4 40 10 1 17
-24 4 -36 28 -22 46 10 13 36 11 152 -10z m-332 -25 c-7 -2 -21 -2 -30 0 -10
3 -4 5 12 5 17 0 24 -2 18 -5z m44 -9 c-3 -3 -12 -4 -19 -1 -8 3 -5 6 6 6 11
1 17 -2 13 -5z m88 -14 c18 -8 18 -9 -5 -9 -14 0 -32 4 -40 9 -12 8 -12 10 5
9 11 0 29 -4 40 -9z m-40 -31 c6 -7 0 -6 -19 1 -16 6 -35 9 -43 6 -7 -3 -13 0
-13 6 0 13 59 3 75 -13z m42 -5 c-3 -3 -12 -4 -19 -1 -8 3 -5 6 6 6 11 1 17
-2 13 -5z m-102 -14 c-4 -6 3 -9 16 -7 12 1 23 -4 25 -11 1 -7 0 -8 -2 -3 -4
7 -15 6 -32 0 -15 -6 -23 -7 -19 -3 3 4 -1 13 -11 20 -16 12 -15 13 6 14 13 0
20 -4 17 -10z m79 -18 c3 -5 -1 -9 -9 -9 -8 0 -12 4 -9 9 3 4 7 8 9 8 2 0 6
-4 9 -8z m-487 -28 c-3 -3 -12 -4 -19 -1 -8 3 -5 6 6 6 11 1 17 -2 13 -5z
m453 -40 c0 -2 -12 -4 -26 -4 -14 0 -23 4 -20 9 6 8 46 4 46 -5z m630 -14 c5
0 6 8 3 17 -5 12 -2 15 10 10 9 -3 39 -9 67 -13 27 -4 50 -10 50 -15 0 -5 -5
-9 -12 -9 -6 0 -9 -2 -6 -5 3 -3 17 -1 32 4 14 6 26 7 26 2 0 -12 -26 -21 -61
-21 -20 0 -28 4 -23 12 4 7 3 8 -4 4 -7 -4 -32 -4 -57 0 -38 5 -45 10 -44 28
1 17 2 17 6 4 2 -10 8 -18 13 -18z m195 -10 c3 -5 1 -10 -4 -10 -6 0 -11 5
-11 10 0 6 2 10 4 10 3 0 8 -4 11 -10z m-981 -24 c-3 -9 -10 -16 -15 -16 -5 0
-4 9 3 20 14 22 21 20 12 -4z m153 -11 c-7 -14 -18 -23 -24 -20 -7 2 -13 0
-13 -5 0 -6 -5 -10 -12 -10 -6 0 -4 8 6 19 10 11 15 25 11 30 -4 7 4 11 18 11
23 0 24 -2 14 -25z m-340 -41 c-3 -3 -12 -4 -19 -1 -8 3 -5 6 6 6 11 1 17 -2
13 -5z m537 -221 c-4 -16 -11 -37 -16 -48 -7 -17 -8 -16 -3 5 2 14 5 35 5 48
0 12 5 22 10 22 6 0 8 -11 4 -27z m37 -69 l-9 -39 -1 41 c-1 22 2 44 6 48 12
12 14 -8 4 -50z m366 20 c-3 -3 -12 -4 -19 -1 -8 3 -5 6 6 6 11 1 17 -2 13 -5z
m150 -35 c-11 -7 -23 -7 -28 -2 -5 5 3 9 19 11 24 1 25 0 9 -9z m66 -6 c-7 -2
-21 -2 -30 0 -10 3 -4 5 12 5 17 0 24 -2 18 -5z m159 -27 c81 -16 125 -30 145
-46 20 -16 22 -21 8 -16 -11 4 -32 10 -47 13 -16 3 -25 10 -21 16 4 6 0 8 -10
4 -10 -4 -17 -2 -17 4 0 7 -11 9 -25 7 -14 -3 -28 -1 -31 3 -7 12 -44 11 -44
-1 0 -5 -4 -10 -10 -10 -5 0 -7 7 -3 17 5 14 1 15 -28 10 -25 -5 -30 -4 -19 4
11 8 6 9 -20 4 -26 -5 -31 -4 -20 4 19 13 5 15 142 -13z m-804 -51 c0 -14 -3
-23 -7 -20 -8 9 -9 55 0 50 3 -3 7 -16 7 -30z m419 19 c-3 -3 -12 -4 -19 -1
-8 3 -5 6 6 6 11 1 17 -2 13 -5z m-470 -36 c-3 -8 -6 -5 -6 6 -1 11 2 17 5 13
3 -3 4 -12 1 -19z m503 1 c13 -7 13 -8 0 -9 -27 0 -60 12 -60 22 0 9 33 3 60
-13z m27 15 c-3 -3 -12 -4 -19 -1 -8 3 -5 6 6 6 11 1 17 -2 13 -5z m150 -42
c51 -14 91 -27 90 -29 -4 -3 -200 33 -231 43 -21 7 -21 7 -1 15 11 4 27 5 35
2 8 -2 57 -16 107 -31z m270 32 c-3 -3 -12 -4 -19 -1 -8 3 -5 6 6 6 11 1 17
-2 13 -5z m163 -28 c0 -9 -40 -13 -46 -5 -3 5 6 9 20 9 14 0 26 -2 26 -4z
m-729 -71 c-7 -39 -7 -39 -13 -11 -3 16 -1 35 6 42 15 16 15 15 7 -31z m-333
-12 c-10 -2 -26 -2 -35 0 -10 3 -2 5 17 5 19 0 27 -2 18 -5z m1353 -246 c-10
-9 -11 -8 -5 6 3 10 9 15 12 12 3 -3 0 -11 -7 -18z"/>
<path d="M10450 4882 c-8 -2 -23 -11 -32 -20 -39 -33 -7 -88 45 -78 25 5 28 4
17 -9 -6 -8 -20 -17 -31 -20 -25 -8 -25 -25 0 -25 11 0 33 14 50 31 27 27 31
37 29 79 -1 27 -5 45 -8 39 -4 -6 -16 -6 -31 -1 -13 5 -31 7 -39 4z m38 -48
c2 -14 -3 -23 -17 -27 -25 -6 -31 0 -31 30 0 20 5 24 23 21 13 -2 23 -11 25
-24z"/>
<path d="M10589 4874 c-5 -6 -6 -14 -2 -18 4 -3 -6 -19 -21 -35 -34 -36 -27
-52 18 -44 30 5 35 3 38 -18 4 -29 31 -32 37 -4 2 11 8 23 15 28 8 5 6 11 -6
21 -11 8 -18 27 -18 49 0 33 -2 37 -26 35 -14 -2 -29 -8 -35 -14z m31 -64 c0
-5 -10 -10 -22 -10 -19 0 -20 2 -8 10 19 13 30 13 30 0z"/>
<path d="M10268 4859 c-19 -11 -25 -59 -7 -59 6 0 4 -9 -5 -22 -22 -32 -5 -58
40 -58 19 0 44 5 55 10 19 11 26 54 10 64 -5 3 -7 15 -4 26 11 41 -44 65 -89
39z m60 -32 c4 -18 -14 -22 -37 -8 -7 5 -10 14 -6 20 10 17 39 9 43 -12z m-4
-53 c28 -11 18 -34 -14 -34 -23 0 -30 4 -30 20 0 20 15 25 44 14z"/>
<path d="M10756 4831 c-4 -5 -2 -12 3 -15 5 -4 12 -2 15 3 4 5 2 12 -3 15 -5
4 -12 2 -15 -3z"/>
<path d="M10145 4780 c3 -5 10 -10 16 -10 5 0 9 5 9 10 0 6 -7 10 -16 10 -8 0
-12 -4 -9 -10z"/>
<path d="M6711 4594 c0 -11 3 -14 6 -6 3 7 2 16 -1 19 -3 4 -6 -2 -5 -13z"/>
<path d="M10560 3830 c0 -5 7 -10 16 -10 8 0 12 5 9 10 -3 6 -10 10 -16 10 -5
0 -9 -4 -9 -10z"/>
<path d="M10608 3833 c7 -3 16 -2 19 1 4 3 -2 6 -13 5 -11 0 -14 -3 -6 -6z"/>
<path d="M10490 3653 c-70 -22 -81 -61 -27 -90 46 -25 182 -25 221 0 65 43 0
98 -114 96 -36 0 -72 -3 -80 -6z"/>
<path d="M8968 2483 c7 -3 16 -2 19 1 4 3 -2 6 -13 5 -11 0 -14 -3 -6 -6z"/>
<path d="M9548 2233 c7 -3 16 -2 19 1 4 3 -2 6 -13 5 -11 0 -14 -3 -6 -6z"/>
<path d="M7995 2170 c3 -5 11 -10 16 -10 6 0 7 5 4 10 -3 6 -11 10 -16 10 -6
0 -7 -4 -4 -10z"/>
<path d="M8066 2132 c11 -10 19 -22 17 -28 -2 -7 6 -10 22 -6 16 3 33 -2 44
-12 10 -9 21 -13 24 -9 4 3 7 1 7 -6 0 -7 9 -9 24 -5 13 3 34 0 46 -6 12 -6
25 -9 28 -5 3 3 -4 8 -16 12 -17 4 -20 9 -12 18 13 16 -1 22 -77 30 -32 4 -71
13 -87 21 -39 19 -46 17 -20 -4z"/>
<path d="M8386 2118 c3 -4 11 -5 19 -1 21 7 19 12 -4 10 -11 0 -18 -5 -15 -9z"/>
<path d="M8410 2020 c0 -5 5 -10 10 -10 6 0 10 5 10 10 0 6 -4 10 -10 10 -5 0
-10 -4 -10 -10z"/>
<path d="M8450 2006 c0 -9 5 -16 10 -16 6 0 10 4 10 9 0 6 -4 13 -10 16 -5 3
-10 -1 -10 -9z"/>
<path d="M8671 2084 c0 -11 3 -14 6 -6 3 7 2 16 -1 19 -3 4 -6 -2 -5 -13z"/>
<path d="M8923 2073 c9 -2 23 -2 30 0 6 3 -1 5 -18 5 -16 0 -22 -2 -12 -5z"/>
<path d="M8281 1473 c-6 -10 -11 -12 -11 -5 0 14 -30 17 -30 2 0 -10 20 -14
55 -10 16 2 17 -1 7 -13 -10 -12 -10 -16 1 -20 9 -3 13 5 12 26 0 35 -19 46
-34 20z"/>
<path d="M8385 1420 c-3 -6 1 -7 9 -4 18 7 21 14 7 14 -6 0 -13 -4 -16 -10z"/>
<path d="M8443 1385 c-3 -9 -3 -18 -1 -21 3 -3 8 4 11 16 6 23 -1 27 -10 5z"/>
<path d="M12233 6473 c9 -2 25 -2 35 0 9 3 1 5 -18 5 -19 0 -27 -2 -17 -5z"/>
<path d="M12394 6471 c4 -6 2 -11 -3 -11 -6 0 -11 -4 -11 -10 0 -12 38 2 40
15 1 6 -6 12 -16 13 -10 3 -14 0 -10 -7z"/>
<path d="M12168 6463 c6 -2 18 -2 25 0 6 3 1 5 -13 5 -14 0 -19 -2 -12 -5z"/>
<path d="M12308 6463 c7 -3 16 -2 19 1 4 3 -2 6 -13 5 -11 0 -14 -3 -6 -6z"/>
<path d="M12350 6440 c-9 -6 -10 -10 -3 -10 6 0 15 5 18 10 8 12 4 12 -15 0z"/>
<path d="M10273 6362 c1 -5 -17 -29 -40 -55 l-42 -45 -198 -41 c-109 -23 -223
-48 -253 -56 -95 -25 4 -8 205 34 105 23 196 41 203 41 6 0 12 -8 12 -19 0
-15 -16 -22 -82 -37 -46 -10 -91 -19 -100 -18 -9 0 -15 -3 -12 -8 5 -7 -25
-12 -71 -11 -11 0 -23 -4 -26 -9 -3 -5 -20 -10 -37 -11 -18 -1 -32 -5 -32 -8
0 -3 -11 -5 -25 -4 -14 2 -25 -1 -25 -5 0 -5 -8 -11 -17 -13 -11 -3 -7 -5 10
-6 15 0 27 4 27 9 0 6 5 10 11 10 5 0 7 -5 3 -11 -4 -8 1 -9 16 -4 14 4 20 3
16 -3 -3 -5 5 -17 18 -26 17 -10 23 -22 19 -35 -4 -18 -1 -20 27 -16 38 5 32
-5 -13 -20 -18 -5 -30 -14 -27 -20 3 -5 8 -9 13 -7 15 5 6 -39 -18 -84 -20
-38 -25 -42 -25 -23 -1 21 -2 22 -11 7 -7 -13 -4 -26 13 -51 18 -28 28 -34 52
-32 24 1 35 10 48 36 20 37 24 94 8 104 -16 10 -11 45 8 52 9 3 25 14 35 25
15 15 15 18 2 18 -21 0 -19 27 5 47 11 10 20 23 20 30 0 7 2 13 4 13 3 0 35 6
73 14 37 8 88 17 112 20 24 2 48 9 54 15 6 6 8 11 4 11 -8 0 37 84 60 111 16
20 16 49 -1 72 -14 18 -28 23 -23 9z m-335 -278 c-13 -14 -24 -20 -26 -15 -2
6 -15 11 -28 11 -14 0 -23 4 -20 9 3 5 19 8 35 7 17 -1 28 2 25 6 -3 4 4 8 15
8 21 0 21 0 -1 -26z"/>
<path d="M9657 6233 c-9 -9 -9 -53 1 -53 4 0 7 14 7 30 0 17 0 30 -1 30 0 0
-4 -3 -7 -7z"/>
<path d="M9640 6155 c0 -8 -5 -15 -11 -15 -5 0 -7 5 -3 12 5 7 3 8 -5 3 -9 -5
-11 -19 -6 -44 8 -43 30 -70 56 -68 24 2 24 3 -1 34 -25 32 -25 49 -2 62 16
10 16 10 -1 11 -10 0 -15 5 -12 10 3 6 1 10 -4 10 -6 0 -11 -7 -11 -15z m21
-92 c13 -16 12 -17 -3 -4 -10 7 -18 15 -18 17 0 8 8 3 21 -13z"/>
<path d="M9728 6074 c-3 -3 -4 -14 -1 -25 7 -24 31 -25 40 -1 4 9 11 20 17 24
6 4 -3 8 -20 8 -17 0 -33 -3 -36 -6z"/>
<path d="M9998 6013 c7 -3 16 -2 19 1 4 3 -2 6 -13 5 -11 0 -14 -3 -6 -6z"/>
<path d="M9794 5909 c-7 -12 15 -31 28 -23 4 3 8 12 8 20 0 17 -26 19 -36 3z"/>
<path d="M8992 5878 c-30 -5 -51 -12 -49 -14 5 -6 137 16 137 22 0 6 -26 3
-88 -8z"/>
<path d="M10328 5773 c6 -2 18 -2 25 0 6 3 1 5 -13 5 -14 0 -19 -2 -12 -5z"/>
<path d="M10248 5743 c7 -3 16 -2 19 1 4 3 -2 6 -13 5 -11 0 -14 -3 -6 -6z"/>
<path d="M9541 5518 c0 -9 -4 -25 -7 -35 -5 -17 -5 -17 6 0 6 10 9 25 7 35 -4
15 -5 15 -6 0z"/>
<path d="M9391 5474 c0 -11 3 -14 6 -6 3 7 2 16 -1 19 -3 4 -6 -2 -5 -13z"/>
<path d="M9520 5449 c0 -5 5 -7 10 -4 6 3 10 8 10 11 0 2 -4 4 -10 4 -5 0 -10
-5 -10 -11z"/>
<path d="M9250 5380 c0 -5 5 -10 11 -10 5 0 7 5 4 10 -3 6 -8 10 -11 10 -2 0
-4 -4 -4 -10z"/>
<path d="M6612 5236 c1 -26 5 -33 16 -28 12 4 14 -1 9 -26 -5 -22 -3 -32 6
-32 8 0 8 -3 -2 -9 -10 -7 -10 -10 -1 -16 7 -4 16 -1 21 6 6 10 9 7 9 -11 0
-14 3 -35 6 -47 5 -17 2 -23 -9 -23 -9 0 -18 -9 -22 -19 -4 -12 -12 -18 -21
-14 -11 4 -14 -3 -13 -28 1 -21 3 -26 6 -13 2 13 20 28 46 40 37 17 42 23 42
53 0 19 5 36 10 38 11 3 13 -46 2 -63 -4 -7 0 -17 8 -24 12 -10 14 2 14 85 l0
96 -54 34 c-30 19 -59 35 -64 35 -6 0 -10 -15 -9 -34z m58 -46 c0 -5 -4 -10
-10 -10 -5 0 -10 5 -10 10 0 6 5 10 10 10 6 0 10 -4 10 -10z"/>
<path d="M8991 5184 c0 -11 3 -14 6 -6 3 7 2 16 -1 19 -3 4 -6 -2 -5 -13z"/>
<path d="M6610 5171 c0 -25 6 -27 13 -6 4 8 2 17 -3 20 -6 4 -10 -3 -10 -14z"/>
<path d="M8490 5120 c0 -5 5 -10 11 -10 5 0 7 5 4 10 -3 6 -8 10 -11 10 -2 0
-4 -4 -4 -10z"/>
<path d="M8892 5110 c0 -14 2 -19 5 -12 2 6 2 18 0 25 -3 6 -5 1 -5 -13z"/>
<path d="M6610 5095 c0 -8 4 -15 10 -15 5 0 7 7 4 15 -4 8 -8 15 -10 15 -2 0
-4 -7 -4 -15z"/>
<path d="M6014 5080 c-7 -7 -44 -10 -101 -8 -64 2 -89 0 -86 -8 3 -8 -24 -12
-84 -13 -48 -1 -89 -6 -91 -12 -2 -5 -46 -9 -98 -9 -56 0 -94 -4 -94 -10 0 -5
-24 -10 -54 -10 -29 0 -76 -4 -105 -10 -28 -5 -93 -13 -144 -16 -50 -4 -93
-11 -95 -15 -2 -5 -50 -9 -107 -9 -59 0 -105 -4 -107 -10 -1 -5 -49 -13 -105
-16 -57 -4 -103 -11 -103 -16 0 -4 -40 -8 -89 -8 -49 0 -102 -5 -118 -11 -15
-6 -57 -12 -93 -13 -36 -2 -82 -4 -103 -5 l-39 -1 3 -45 c2 -24 0 -47 -3 -51
-4 -3 -4 -12 -1 -20 3 -8 -1 -14 -11 -14 -9 0 -16 6 -16 13 0 9 -3 8 -9 -2 -5
-7 -13 -11 -19 -7 -6 3 -12 3 -14 -2 -8 -19 -62 -51 -72 -43 -13 10 -31 12
-106 11 -51 0 -83 9 -81 24 1 3 -2 6 -6 6 -5 0 -9 -4 -9 -10 -3 -22 -4 -24
-16 -12 -17 17 -100 15 -134 -3 -16 -8 -26 -15 -22 -15 4 0 -4 -11 -18 -25
-25 -25 -40 -33 -29 -15 10 16 -12 12 -29 -5 -16 -17 -56 -20 -56 -5 0 6 -7
10 -16 10 -8 0 -13 -4 -9 -9 10 -17 -13 -22 -54 -12 -24 5 -43 5 -47 0 -3 -5
-10 -9 -15 -9 -6 0 -7 4 -4 10 3 6 -1 7 -9 4 -10 -4 -16 -1 -16 7 -1 9 -4 8
-11 -4 -8 -13 -14 -15 -30 -7 -13 8 -26 7 -41 0 -21 -10 -21 -10 -5 3 9 8 17
16 17 18 0 2 -28 4 -62 3 -53 0 -64 -3 -66 -18 -2 -10 7 -29 20 -41 34 -31
130 -43 112 -13 -6 10 10 9 121 -6 51 -7 353 -44 423 -51 34 -4 52 -2 52 5 0
6 10 10 22 8 12 -2 23 3 26 11 3 10 0 12 -12 8 -23 -9 -20 6 7 30 25 24 74 42
63 24 -4 -6 -16 -11 -27 -11 -10 0 -19 -4 -19 -9 0 -6 9 -8 20 -6 25 5 27 -13
3 -23 -10 -4 -19 -13 -21 -19 -2 -15 20 -17 34 -3 6 6 15 6 24 0 8 -5 10 -10
4 -10 -22 0 -22 -26 0 -28 66 -5 222 -34 230 -42 13 -13 29 -13 21 -1 -8 14
67 1 85 -15 8 -7 29 -15 45 -19 17 -4 38 -9 48 -12 9 -2 17 0 17 6 0 5 -8 12
-17 14 -24 6 33 -3 80 -13 l37 -7 1 61 c1 33 2 72 3 86 2 23 0 25 -42 25 -38
0 -46 -4 -58 -27 -8 -16 -23 -28 -34 -28 -32 0 -32 17 0 24 17 3 30 11 30 17
0 7 8 18 18 25 16 13 16 13 0 14 -26 0 -22 28 5 33 15 3 12 5 -11 6 -18 0 -31
-3 -28 -7 3 -5 -8 -7 -23 -4 -29 4 -56 -18 -33 -26 7 -2 12 -10 12 -18 0 -9 4
-13 9 -9 10 6 26 -13 18 -21 -8 -9 -37 8 -37 22 0 7 -12 16 -27 19 -16 3 -45
11 -65 17 -20 6 -51 8 -68 5 -18 -4 -29 -3 -25 2 3 5 0 13 -6 17 -8 4 -7 9 2
15 12 8 11 12 -3 23 -10 7 -15 16 -11 19 3 4 -2 7 -12 7 -14 0 -11 6 15 25 19
14 48 25 64 25 57 0 655 63 941 99 145 18 529 61 695 76 36 4 92 11 125 16 33
5 79 9 102 9 23 0 44 4 47 8 5 8 -116 92 -144 99 -8 2 -20 -1 -26 -7z m-13
-40 c10 0 19 -4 19 -10 0 -10 -90 -2 -103 10 -4 3 6 5 23 2 21 -3 30 0 31 9 0
10 2 11 6 2 2 -7 13 -13 24 -13z m-162 -26 c9 -8 -6 -10 -51 -6 -27 2 -48 8
-48 12 0 7 90 2 99 -6z m-179 -18 c8 -2 -11 -4 -43 -5 -32 0 -56 3 -53 7 4 7
57 6 96 -2z m-199 -24 c-24 -2 -47 0 -52 5 -4 4 15 6 44 3 l52 -5 -44 -3z
m-131 -16 c8 -2 -9 -4 -37 -5 -29 0 -53 3 -53 7 0 7 52 6 90 -2z m-153 -20 c3
-3 -12 -6 -35 -6 -22 0 -43 4 -46 9 -6 10 71 7 81 -3z m-147 -16 c0 -12 -64
-12 -100 0 -19 6 -9 8 38 9 35 1 62 -3 62 -9z m-150 -19 c0 -12 -73 -12 -91 0
-9 6 5 9 39 9 28 0 52 -4 52 -9z m-140 -11 c0 -5 -20 -10 -45 -10 -25 0 -45 5
-45 10 0 6 20 10 45 10 25 0 45 -4 45 -10z m-145 -20 c-8 -13 -55 -13 -75 0
-11 7 -2 10 33 10 30 0 46 -4 42 -10z m-135 -11 c0 -5 -18 -9 -40 -9 -22 0
-40 4 -40 9 0 6 18 9 40 9 22 0 40 -4 40 -9z m-693 -135 c-3 -3 -12 -4 -19 -1
-8 3 -5 6 6 6 11 1 17 -2 13 -5z m43 -8 c0 -3 -4 -8 -10 -11 -5 -3 -10 -1 -10
4 0 6 5 11 10 11 6 0 10 -2 10 -4z m240 -15 c0 -5 -7 -12 -16 -15 -24 -9 -28
-7 -14 9 14 17 30 20 30 6z m130 -40 c0 -5 -7 -12 -16 -15 -14 -5 -15 -4 -4 9
14 17 20 19 20 6z m-110 -25 c0 -2 -7 -7 -16 -10 -8 -3 -12 -2 -9 4 6 10 25
14 25 6z m220 -16 c0 -5 -7 -10 -16 -10 -8 0 -12 5 -9 10 3 6 10 10 16 10 5 0
9 -4 9 -10z m175 0 c3 -5 -1 -10 -9 -10 -8 0 -18 5 -21 10 -3 6 1 10 9 10 8 0
18 -4 21 -10z m-315 -70 c0 -5 -5 -10 -11 -10 -5 0 -7 5 -4 10 3 6 8 10 11 10
2 0 4 -4 4 -10z m65 0 c3 -5 1 -10 -4 -10 -6 0 -11 5 -11 10 0 6 2 10 4 10 3
0 8 -4 11 -10z m-25 -4 c0 -3 -4 -8 -10 -11 -5 -3 -10 -1 -10 4 0 6 5 11 10
11 6 0 10 -2 10 -4z m241 -26 c31 -17 24 -40 -13 -39 l-33 1 30 8 c21 5 24 8
9 9 -11 0 -29 8 -40 16 -18 14 -18 14 4 15 13 0 32 -5 43 -10z"/>
<path d="M8220 5056 c0 -2 8 -10 18 -17 15 -13 16 -12 3 4 -13 16 -21 21 -21
13z"/>
<path d="M4946 5023 c7 -34 -9 -47 -20 -17 -4 9 -9 15 -11 12 -11 -11 8 -38
26 -38 21 0 26 34 9 60 -7 11 -8 6 -4 -17z"/>
<path d="M8167 5009 c7 -7 15 -10 18 -7 3 3 -2 9 -12 12 -14 6 -15 5 -6 -5z"/>
<path d="M8276 4995 c4 -8 11 -15 16 -15 6 0 5 6 -2 15 -7 8 -14 15 -16 15 -2
0 -1 -7 2 -15z"/>
<path d="M6670 4990 c0 -5 5 -10 10 -10 6 0 10 5 10 10 0 6 -4 10 -10 10 -5 0
-10 -4 -10 -10z"/>
<path d="M6712 4973 c-9 -18 -8 -32 8 -68 5 -11 11 -29 13 -40 3 -11 5 13 6
53 1 70 -9 90 -27 55z"/>
<path d="M8320 4940 c6 -11 16 -20 22 -20 6 0 3 9 -7 20 -10 11 -20 20 -22 20
-2 0 1 -9 7 -20z"/>
<path d="M6676 4941 c-4 -5 -2 -20 3 -33 9 -21 10 -21 10 10 1 32 -3 39 -13
23z"/>
<path d="M6630 4930 c0 -5 5 -10 11 -10 5 0 7 5 4 10 -3 6 -8 10 -11 10 -2 0
-4 -4 -4 -10z"/>
<path d="M8230 4936 c0 -2 7 -7 16 -10 8 -3 12 -2 9 4 -6 10 -25 14 -25 6z"/>
<path d="M6610 4890 c0 -5 5 -10 10 -10 6 0 10 5 10 10 0 6 -4 10 -10 10 -5 0
-10 -4 -10 -10z"/>
<path d="M6615 4860 c-3 -5 1 -10 9 -10 9 0 16 5 16 10 0 6 -4 10 -9 10 -6 0
-13 -4 -16 -10z"/>
<path d="M6695 4850 c3 -5 11 -10 16 -10 6 0 7 5 4 10 -3 6 -11 10 -16 10 -6
0 -7 -4 -4 -10z"/>
<path d="M6610 4814 c0 -8 5 -12 10 -9 6 4 8 11 5 16 -9 14 -15 11 -15 -7z"/>
<path d="M1505 4778 c-22 -4 -143 -26 -270 -48 -126 -22 -456 -81 -732 -132
l-503 -92 0 -572 c0 -449 3 -573 13 -577 9 -4 9 -6 0 -6 -7 -1 -13 -8 -13 -17
0 -8 3 -13 8 -10 4 2 18 -2 32 -10 l25 -15 -32 5 -33 6 0 -509 0 -508 47 9
c46 8 143 23 211 32 18 3 37 8 43 11 5 4 85 10 177 15 123 5 178 12 207 25 22
9 87 25 145 35 112 20 383 68 695 125 105 18 219 41 255 49 36 9 111 20 166
25 56 5 112 15 125 22 13 7 67 21 119 30 52 10 133 25 180 33 47 9 114 21 150
26 36 5 99 14 140 20 41 6 89 15 105 20 68 21 275 59 348 64 44 3 85 10 93 17
8 6 87 25 177 41 89 15 238 42 331 58 169 30 225 34 237 17 8 -12 124 -23 374
-37 256 -14 293 -19 300 -39 3 -10 17 -18 37 -19 17 -2 38 -8 45 -14 9 -7 37
-8 86 -4 108 11 262 13 235 2 -13 -4 -30 -11 -38 -16 -8 -4 -39 -4 -69 0 -58
7 -178 -12 -196 -32 -7 -8 0 -9 25 -4 19 4 51 9 70 12 29 4 31 3 15 -6 -16 -8
-14 -9 10 -3 17 4 48 6 70 6 139 -5 167 -5 173 1 3 4 0 11 -8 16 -13 9 -13 10
0 11 8 1 26 4 40 7 45 8 200 10 205 2 3 -4 -5 -6 -17 -3 -18 4 -20 3 -8 -6 11
-8 1 -9 -38 -4 -45 5 -52 4 -46 -10 4 -11 -2 -17 -18 -20 -18 -3 -16 -5 9 -6
17 0 35 4 38 10 4 6 28 9 54 7 35 -2 45 0 43 11 -2 9 3 11 13 7 9 -3 48 -9 86
-12 38 -4 69 -10 69 -14 0 -4 51 -10 114 -13 90 -6 121 -4 150 8 19 8 41 15
48 14 7 0 -6 -8 -30 -18 -23 -9 -41 -19 -38 -22 3 -2 -38 -1 -91 4 -72 7 -107
6 -137 -4 l-41 -13 30 -7 c18 -5 3 -6 -40 -3 -118 7 -175 13 -183 18 -4 3 -21
-1 -37 -9 -17 -7 -47 -16 -69 -20 -21 -3 -36 -8 -33 -11 12 -12 97 -5 126 11
18 9 31 12 27 7 -8 -13 170 -26 237 -17 28 4 49 4 45 0 -3 -3 -27 -9 -54 -13
-38 -6 -44 -9 -33 -19 11 -9 29 -7 81 11 67 22 85 20 28 -4 -23 -9 -28 -15
-18 -21 10 -7 10 -9 -2 -9 -13 -1 -12 -2 1 -10 10 -6 29 -6 49 0 41 12 52 4
25 -17 -19 -15 -19 -15 10 -10 17 3 39 9 50 12 19 6 19 6 3 -8 -10 -8 -18 -17
-18 -21 0 -10 38 -7 45 4 3 6 12 10 18 10 8 0 8 -3 -2 -9 -8 -5 15 -11 65 -16
74 -7 77 -8 44 -18 -19 -5 -29 -12 -22 -14 22 -8 62 6 62 22 0 18 2 18 34 4
19 -9 29 -8 46 4 20 14 20 15 3 21 -10 3 -62 7 -115 8 -54 2 -98 4 -98 6 0 1
12 7 26 13 15 5 24 12 21 15 -10 10 -122 12 -133 3 -8 -6 -14 -4 -18 7 -4 9
-5 19 -2 21 2 3 42 4 88 3 45 -1 94 -1 107 -1 14 1 27 -3 30 -8 4 -5 23 -3 46
6 22 8 60 16 85 18 l45 3 -40 -18 c-22 -10 -46 -19 -52 -19 -7 -1 -13 -5 -13
-11 0 -14 5 -13 50 10 22 11 44 20 50 20 6 0 18 7 26 15 10 9 29 13 55 11 l40
-3 -7 291 c-4 160 -6 302 -6 316 0 14 -2 19 -5 10 -3 -8 -11 -21 -17 -29 -8
-11 -8 -13 2 -7 7 4 12 2 12 -6 0 -8 -6 -20 -12 -27 -10 -11 -10 -13 0 -7 15
9 17 -59 2 -69 -6 -3 -7 1 -4 9 5 12 0 16 -20 16 -16 0 -26 6 -26 15 0 8 -9
15 -20 15 -11 0 -20 5 -20 11 0 8 -16 9 -52 5 -29 -4 -64 -7 -78 -8 -14 0 -28
-5 -32 -11 -9 -15 -37 1 -52 29 -6 10 -14 21 -17 24 -4 3 -10 19 -13 37 -4 17
-13 36 -20 42 -34 28 -126 5 -126 -31 0 -11 -5 -28 -10 -39 -8 -13 -7 -19 0
-19 6 0 9 -4 5 -9 -3 -5 -1 -12 4 -15 5 -3 7 -15 4 -26 -4 -16 -14 -20 -52
-20 -98 0 -121 -3 -121 -17 0 -11 -4 -11 -21 -3 -16 9 -26 8 -46 -5 -13 -9
-27 -14 -31 -11 -3 3 0 6 6 6 7 0 12 4 12 10 0 6 -9 6 -24 0 -13 -5 -85 -10
-160 -12 -75 -2 -136 -6 -136 -11 0 -4 -33 -7 -72 -6 -40 1 -93 0 -118 -1 -97
-4 -130 0 -130 14 0 10 -22 16 -80 21 -64 6 -80 10 -81 24 0 13 -1 14 -7 1
-10 -22 -31 -23 -40 -3 -5 13 -9 5 -14 -27 -4 -25 -5 215 -2 533 3 455 1 579
-9 582 -13 5 -322 38 -512 55 -66 6 -126 13 -134 16 -7 2 -52 7 -100 10 -107
7 -864 82 -946 94 -33 5 -94 11 -135 15 -41 4 -163 16 -270 27 -107 11 -221
22 -252 25 -48 5 -55 7 -43 19 7 7 26 14 42 15 48 3 221 -12 255 -22 18 -5 66
-9 106 -9 40 0 71 -4 68 -9 -3 -5 47 -12 112 -16 64 -4 126 -9 137 -11 11 -2
47 -6 80 -9 96 -8 145 -17 140 -25 -3 -5 8 -3 25 3 22 8 38 8 62 -1 18 -6 49
-11 68 -11 19 0 50 -4 68 -10 17 -5 32 -6 32 -2 0 4 14 6 30 3 17 -2 30 -10
30 -18 0 -8 5 -14 10 -14 6 0 10 5 10 11 0 11 44 9 258 -12 72 -7 132 -16 132
-19 0 -3 28 -7 63 -8 34 -1 141 -11 237 -22 231 -28 212 -26 322 -35 67 -5 96
-11 91 -19 -3 -6 2 -3 12 6 11 10 17 20 14 22 -3 3 -34 8 -69 11 -36 3 -82 10
-102 14 -20 5 -48 6 -62 4 -16 -3 -26 -1 -26 7 0 6 -8 9 -18 6 -10 -4 -61 -2
-113 4 -110 12 -152 17 -236 25 -35 4 -65 10 -67 14 -3 4 -32 7 -65 5 -34 -1
-59 1 -57 5 2 3 -10 6 -27 7 -78 2 -145 10 -141 16 3 4 -19 5 -48 3 -41 -4
-47 -3 -28 5 19 7 8 8 -40 5 -46 -3 -58 -2 -40 5 19 7 11 8 -32 6 -34 -2 -55
1 -52 6 4 5 -3 8 -13 6 -11 -2 -27 3 -36 10 -12 10 -17 10 -23 1 -5 -8 -3 -9
6 -4 9 5 11 4 6 -3 -9 -14 -42 -16 -51 -3 -6 11 -19 13 -95 13 -37 1 -49 3
-35 9 22 8 3 10 -135 11 -58 0 -68 2 -45 8 20 6 2 8 -55 5 -61 -3 -78 -2 -60
5 20 8 17 9 -16 5 -57 -7 -175 6 -149 16 11 4 -8 4 -42 2 -40 -4 -63 -2 -63 4
0 6 -19 9 -47 7 -38 -3 -44 -2 -28 6 16 8 13 9 -15 5 -39 -7 -255 15 -241 24
5 3 -37 7 -92 8 -69 1 -103 6 -108 15 -5 7 -9 8 -9 3 0 -8 -45 -5 -137 6 -76
9 -174 20 -218 24 -59 6 -74 10 -55 16 l25 7 -26 1 c-22 1 -39 17 -39 37 0 2
17 4 37 4 20 0 34 2 32 4 -10 9 -88 11 -124 4z m310 -127 c2 -5 27 -7 55 -4
29 3 50 1 50 -5 0 -5 20 -13 44 -16 46 -7 86 -36 50 -36 -27 0 -325 30 -351
36 -13 2 -23 10 -23 18 0 10 20 14 85 14 46 1 87 -3 90 -7z m335 -31 c0 -11
-6 -20 -12 -20 -10 0 -9 -3 1 -9 10 -7 11 -13 2 -27 -10 -18 -10 -18 -11 0 0
11 -3 17 -6 13 -10 -10 -34 20 -34 42 0 17 6 21 30 21 23 0 30 -4 30 -20z
m887 -66 c-3 -3 -12 -4 -19 -1 -8 3 -5 6 6 6 11 1 17 -2 13 -5z m56 -341 c-7
-2 -19 -2 -25 0 -7 3 -2 5 12 5 14 0 19 -2 13 -5z m210 -10 c-7 -2 -19 -2 -25
0 -7 3 -2 5 12 5 14 0 19 -2 13 -5z m-93 -19 c0 -2 -7 -4 -15 -4 -8 0 -15 4
-15 10 0 5 7 7 15 4 8 -4 15 -8 15 -10z m253 9 c-7 -2 -19 -2 -25 0 -7 3 -2 5
12 5 14 0 19 -2 13 -5z m-60 -20 c-7 -2 -21 -2 -30 0 -10 3 -4 5 12 5 17 0 24
-2 18 -5z m-226 -75 c-3 -7 -5 -2 -5 12 0 14 2 19 5 13 2 -7 2 -19 0 -25z
m-2640 -334 c-3 -3 -12 -4 -19 -1 -8 3 -5 6 6 6 11 1 17 -2 13 -5z m-84 -38
c-3 -4 -9 -2 -14 5 -13 22 -11 31 5 17 8 -7 12 -17 9 -22z m2604 -172 c-3 -3
-12 -4 -19 -1 -8 3 -5 6 6 6 11 1 17 -2 13 -5z m-570 -30 c-3 -3 -12 -4 -19
-1 -8 3 -5 6 6 6 11 1 17 -2 13 -5z m333 -26 c0 -6 -6 -5 -15 2 -8 7 -15 14
-15 16 0 2 7 1 15 -2 8 -4 15 -11 15 -16z m45 12 c-3 -5 -12 -10 -18 -10 -7 0
-6 4 3 10 19 12 23 12 15 0z m-2177 -11 c18 -6 29 -15 26 -20 -3 -5 -15 -4
-27 3 -12 7 -25 11 -29 10 -5 -1 -8 3 -8 8 0 12 0 12 38 -1z m2219 -5 c-3 -3
-12 -4 -19 -1 -8 3 -5 6 6 6 11 1 17 -2 13 -5z m-2322 -23 c3 -5 1 -12 -5 -16
-5 -3 -10 1 -10 9 0 18 6 21 15 7z m2020 -1 c3 -5 -1 -10 -10 -10 -9 0 -13 5
-10 10 3 6 8 10 10 10 2 0 7 -4 10 -10z m-2130 -10 c3 -5 2 -10 -4 -10 -5 0
-13 5 -16 10 -3 6 -2 10 4 10 5 0 13 -4 16 -10z m45 -21 c0 -6 -4 -7 -10 -4
-5 3 -10 11 -10 16 0 6 5 7 10 4 6 -3 10 -11 10 -16z m1227 15 c-3 -3 -12 -4
-19 -1 -8 3 -5 6 6 6 11 1 17 -2 13 -5z m130 0 c-3 -3 -12 -4 -19 -1 -8 3 -5
6 6 6 11 1 17 -2 13 -5z m-1762 -25 c11 -17 -1 -21 -15 -4 -8 9 -8 15 -2 15 6
0 14 -5 17 -11z m245 -9 c-24 -15 -36 -11 -14 4 10 8 21 12 24 10 2 -3 -2 -9
-10 -14z m67 14 c-3 -3 -12 -4 -19 -1 -8 3 -5 6 6 6 11 1 17 -2 13 -5z m-367
-24 c0 -5 -7 -7 -15 -4 -8 4 -15 8 -15 10 0 2 7 4 15 4 8 0 15 -4 15 -10z
m5940 -170 c0 -5 -4 -10 -9 -10 -6 0 -13 5 -16 10 -3 6 1 10 9 10 9 0 16 -4
16 -10z m-1440 -200 c0 -5 -15 -10 -32 -10 -25 0 -29 3 -18 10 20 13 50 13 50
0z m463 -157 c-7 -2 -19 -2 -25 0 -7 3 -2 5 12 5 14 0 19 -2 13 -5z m627 -23
c-8 -5 -35 -9 -60 -9 l-45 2 35 7 c19 4 46 8 60 9 20 0 22 -1 10 -9z m397 4
c-3 -3 -12 -4 -19 -1 -8 3 -5 6 6 6 11 1 17 -2 13 -5z m-619 -11 c-10 -2 -26
-2 -35 0 -10 3 -2 5 17 5 19 0 27 -2 18 -5z m92 -2 c-26 -14 -70 -22 -70 -12
0 10 26 17 65 19 16 1 17 0 5 -7z m210 5 c0 -2 -7 -6 -15 -10 -8 -3 -15 -1
-15 4 0 6 7 10 15 10 8 0 15 -2 15 -4z m174 -76 c38 -1 22 -16 -24 -24 -26 -4
-30 -4 -15 3 l20 10 -20 1 c-11 1 -37 1 -59 0 -27 -1 -36 2 -31 10 5 8 23 10
54 6 25 -4 59 -6 75 -6z m136 -18 c-19 -8 -45 -18 -57 -23 -13 -5 -23 -13 -23
-19 0 -5 -10 -10 -22 -9 -22 0 -22 1 -3 9 17 7 15 9 -12 9 -18 1 -33 5 -33 9
0 14 92 40 140 39 l45 0 -35 -15z m-217 -29 c-7 -2 -19 -2 -25 0 -7 3 -2 5 12
5 14 0 19 -2 13 -5z"/>
<path d="M7103 4775 c-9 -25 4 -29 17 -6 7 15 7 21 0 21 -6 0 -13 -7 -17 -15z"/>
<path d="M7168 4783 c7 -3 16 -2 19 1 4 3 -2 6 -13 5 -11 0 -14 -3 -6 -6z"/>
<path d="M6990 4769 c0 -5 5 -7 10 -4 6 3 10 8 10 11 0 2 -4 4 -10 4 -5 0 -10
-5 -10 -11z"/>
<path d="M1680 4761 c79 -14 146 -20 125 -12 -11 5 -54 11 -95 14 -53 4 -62 4
-30 -2z"/>
<path d="M6610 4733 c1 -31 3 -35 11 -20 5 9 7 22 3 29 -4 7 -3 8 4 4 7 -4 12
-1 12 8 0 9 -7 16 -15 16 -11 0 -15 -11 -15 -37z"/>
<path d="M6904 4753 c3 -16 16 -22 16 -8 0 3 0 10 0 15 0 6 -4 10 -9 10 -5 0
-8 -8 -7 -17z"/>
<path d="M1860 4741 c36 -11 139 -22 115 -12 -11 4 -47 11 -80 14 -34 3 -49 2
-35 -2z"/>
<path d="M2902 4722 c-14 -30 -16 -52 -3 -52 7 0 24 70 18 76 -1 2 -8 -9 -15
-24z"/>
<path d="M7901 4734 c0 -11 3 -14 6 -6 3 7 2 16 -1 19 -3 4 -6 -2 -5 -13z"/>
<path d="M6837 4733 c-15 -14 -6 -25 16 -21 13 2 29 -2 36 -9 15 -16 33 -13
39 7 3 9 -1 11 -12 7 -10 -4 -24 -1 -32 8 -16 16 -36 19 -47 8z"/>
<path d="M2001 4726 c3 -4 150 -24 325 -46 175 -22 365 -46 421 -53 56 -8 100
-10 98 -6 -3 3 -28 9 -57 13 -159 18 -719 87 -753 92 -22 4 -37 3 -34 0z"/>
<path d="M6990 4725 c0 -8 39 -45 47 -45 2 0 2 4 -1 9 -4 5 0 11 6 14 7 2 11
7 8 10 -9 9 -60 20 -60 12z"/>
<path d="M7060 4720 c0 -3 5 -12 10 -20 9 -13 11 -13 20 0 15 22 12 29 -10 27
-11 -1 -20 -4 -20 -7z"/>
<path d="M1663 4713 c9 -2 25 -2 35 0 9 3 1 5 -18 5 -19 0 -27 -2 -17 -5z"/>
<path d="M6800 4710 c0 -5 5 -10 10 -10 6 0 10 5 10 10 0 6 -4 10 -10 10 -5 0
-10 -4 -10 -10z"/>
<path d="M1768 4703 c6 -2 18 -2 25 0 6 3 1 5 -13 5 -14 0 -19 -2 -12 -5z"/>
<path d="M2766 4701 c-4 -6 -13 -8 -20 -5 -12 5 -35 -33 -24 -40 1 -1 37 2 78
8 41 5 68 11 60 14 -8 3 -17 8 -20 12 -9 13 -68 22 -74 11z"/>
<path d="M1953 4683 c9 -2 23 -2 30 0 6 3 -1 5 -18 5 -16 0 -22 -2 -12 -5z"/>
<path d="M2942 4648 c2 -6 24 -12 48 -14 48 -3 46 -1 -13 15 -27 7 -37 7 -35
-1z"/>
<path d="M2905 4640 c3 -5 11 -10 16 -10 6 0 7 5 4 10 -3 6 -11 10 -16 10 -6
0 -7 -4 -4 -10z"/>
<path d="M2393 4633 c9 -2 23 -2 30 0 6 3 -1 5 -18 5 -16 0 -22 -2 -12 -5z"/>
<path d="M3045 4630 c3 -5 16 -10 28 -9 21 0 21 1 2 9 -28 12 -37 12 -30 0z"/>
<path d="M7070 4626 c0 -9 5 -16 10 -16 6 0 10 4 10 9 0 6 -4 13 -10 16 -5 3
-10 -1 -10 -9z"/>
<path d="M7238 4623 c7 -3 16 -2 19 1 4 3 -2 6 -13 5 -11 0 -14 -3 -6 -6z"/>
<path d="M2873 4613 c9 -2 25 -2 35 0 9 3 1 5 -18 5 -19 0 -27 -2 -17 -5z"/>
<path d="M6898 4613 c6 -2 18 -2 25 0 6 3 1 5 -13 5 -14 0 -19 -2 -12 -5z"/>
<path d="M7785 4610 c-3 -5 -1 -10 4 -10 6 0 11 5 11 10 0 6 -2 10 -4 10 -3 0
-8 -4 -11 -10z"/>
<path d="M2975 4600 c69 -11 126 -10 65 1 -25 4 -61 7 -80 7 -29 -1 -26 -2 15
-8z"/>
<path d="M2728 4593 c6 -2 18 -2 25 0 6 3 1 5 -13 5 -14 0 -19 -2 -12 -5z"/>
<path d="M3180 4575 c197 -27 307 -39 300 -31 -7 6 -341 47 -373 45 -12 -1 21
-7 73 -14z"/>
<path d="M3375 4580 c27 -12 43 -12 25 0 -8 5 -22 9 -30 9 -10 0 -8 -3 5 -9z"/>
<path d="M6961 4578 c-1 -10 5 -18 12 -18 9 0 9 -2 -1 -9 -11 -7 -11 -9 1 -14
9 -3 17 2 20 14 3 12 0 19 -8 19 -7 0 -16 6 -18 13 -3 7 -6 5 -6 -5z"/>
<path d="M7548 4583 c18 -2 45 -2 60 0 15 2 0 4 -33 4 -33 0 -45 -2 -27 -4z"/>
<path d="M6905 4570 c3 -5 8 -10 11 -10 2 0 4 5 4 10 0 6 -5 10 -11 10 -5 0
-7 -4 -4 -10z"/>
<path d="M7280 4569 c-47 -4 -121 -8 -165 -8 -44 -1 -87 -6 -95 -11 -16 -11
39 -9 335 15 100 8 132 12 85 12 -41 0 -113 -3 -160 -8z"/>
<path d="M3513 4563 c9 -2 23 -2 30 0 6 3 -1 5 -18 5 -16 0 -22 -2 -12 -5z"/>
<path d="M3565 4560 c3 -5 8 -10 11 -10 2 0 4 5 4 10 0 6 -5 10 -11 10 -5 0
-7 -4 -4 -10z"/>
<path d="M3591 4556 c2 -2 27 -6 54 -10 34 -4 45 -3 35 4 -14 9 -99 15 -89 6z"/>
<path d="M3490 4541 c0 -4 53 -13 118 -20 64 -7 128 -15 142 -18 14 -3 22 -3
19 1 -5 6 -73 17 -246 40 -18 3 -33 1 -33 -3z"/>
<path d="M3750 4538 c0 -4 14 -8 30 -8 17 0 30 2 30 4 0 2 -13 6 -30 8 -16 3
-30 1 -30 -4z"/>
<path d="M3985 4540 c-16 -7 -17 -9 -3 -9 9 -1 20 4 23 9 7 11 7 11 -20 0z"/>
<path d="M3820 4530 c0 -5 5 -10 10 -10 6 0 10 5 10 10 0 6 -4 10 -10 10 -5 0
-10 -4 -10 -10z"/>
<path d="M6910 4520 c0 -30 -1 -34 -12 -47 -8 -10 -6 -13 6 -13 9 0 16 5 16
10 0 6 5 9 12 8 6 -2 14 5 16 16 3 13 0 16 -9 11 -9 -6 -11 -2 -7 13 4 15 2
22 -8 22 -8 0 -14 -9 -14 -20z"/>
<path d="M3915 4516 c64 -11 85 -12 74 -2 -2 2 -35 6 -74 9 l-70 5 70 -12z"/>
<path d="M3827 4499 c7 -7 15 -10 18 -7 3 3 -2 9 -12 12 -14 6 -15 5 -6 -5z"/>
<path d="M4030 4500 c14 -4 32 -8 40 -9 13 -1 13 0 0 9 -8 5 -26 9 -40 9 l-25
-1 25 -8z"/>
<path d="M6152 4499 c-13 -5 -28 -7 -33 -4 -14 9 -444 -26 -447 -36 -3 -6 -9
-6 -15 -1 -10 7 -455 -15 -464 -23 -2 -1 -6 -204 -10 -452 l-6 -450 33 -6 c18
-4 119 -7 224 -8 105 0 317 -4 471 -8 154 -5 282 -6 285 -2 3 3 3 29 -1 56 -3
28 -7 38 -7 23 -2 -25 -5 -27 -68 -34 -55 -5 -72 -3 -97 11 -27 16 -30 16 -24
2 5 -14 0 -17 -33 -17 -36 0 -52 11 -32 23 4 2 0 2 -8 -1 -8 -2 -19 -4 -25 -3
-50 6 -135 6 -135 -1 0 -4 -18 -8 -41 -8 -22 0 -38 3 -36 8 3 4 -19 5 -49 4
-29 -2 -108 1 -174 7 -141 13 -156 22 -158 95 -1 25 -7 55 -14 65 -9 15 -8 30
5 72 11 32 14 56 8 62 -5 5 -5 21 0 39 5 19 4 38 -2 49 -6 13 -6 19 1 19 17 0
11 28 -7 39 -14 8 -15 12 -6 22 13 13 -5 38 -29 40 -7 1 5 7 27 14 22 8 35 14
28 14 -8 1 -11 21 -10 62 1 33 -1 63 -5 65 -4 3 -5 11 -1 19 3 10 -2 15 -16
15 -18 0 -21 6 -20 38 0 30 2 33 9 17 8 -19 9 -19 9 3 1 12 -5 22 -11 22 -9 0
-8 4 2 10 10 6 11 10 3 10 -7 0 -13 8 -12 18 0 11 2 12 6 4 3 -9 10 -7 24 9
17 20 33 23 137 30 182 12 683 42 721 43 19 1 36 6 38 13 6 17 -9 22 -35 12z
m-915 -169 c-2 -28 -7 -53 -11 -57 -4 -4 -5 17 -2 47 4 62 4 60 12 60 3 0 3
-23 1 -50z m-7 -244 c0 -2 -7 -6 -15 -10 -8 -3 -15 -1 -15 4 0 6 7 10 15 10 8
0 15 -2 15 -4z"/>
<path d="M3178 4493 c7 -3 16 -2 19 1 4 3 -2 6 -13 5 -11 0 -14 -3 -6 -6z"/>
<path d="M3890 4490 c19 -5 69 -11 110 -14 l75 -5 -90 14 c-100 15 -149 17
-95 5z"/>
<path d="M4085 4465 c23 -8 83 -10 79 -3 -3 4 -24 8 -47 7 -23 0 -37 -2 -32
-4z"/>
<path d="M4313 4463 c9 -2 23 -2 30 0 6 3 -1 5 -18 5 -16 0 -22 -2 -12 -5z"/>
<path d="M5140 4258 c0 -117 -3 -338 -7 -490 -5 -236 -4 -278 8 -278 12 0 14
75 14 490 0 270 -3 490 -7 490 -5 0 -8 -96 -8 -212z"/>
<path d="M4215 4451 c22 -5 69 -11 105 -14 49 -5 55 -4 25 2 -22 5 -69 11
-105 14 -49 5 -55 4 -25 -2z"/>
<path d="M7390 4454 c-14 -2 -74 -6 -134 -10 l-109 -6 6 -277 c4 -152 10 -405
13 -562 l7 -286 179 -8 c99 -3 182 -4 185 -2 4 5 -4 347 -23 960 l-6 197 -47
-1 c-25 -1 -57 -3 -71 -5z m-110 -374 c24 -8 24 -8 -5 -8 -16 0 -41 4 -55 8
-24 8 -24 8 5 8 17 0 41 -4 55 -8z m230 -191 c0 -5 -4 -8 -9 -4 -15 9 -22 -11
-22 -70 -1 -31 -3 -54 -6 -52 -6 7 -12 120 -7 129 8 12 44 10 44 -3z m-300
-379 c0 -5 -2 -10 -4 -10 -3 0 -8 5 -11 10 -3 6 -1 10 4 10 6 0 11 -4 11 -10z
m20 -180 c0 -5 -8 -10 -17 -10 -15 0 -16 2 -3 10 19 12 20 12 20 0z"/>
<path d="M7768 4453 c7 -3 16 -2 19 1 4 3 -2 6 -13 5 -11 0 -14 -3 -6 -6z"/>
<path d="M6781 4433 c0 -13 -5 -23 -11 -23 -5 0 -10 -10 -10 -22 0 -19 2 -20
11 -8 8 11 12 12 16 3 8 -20 23 -15 23 7 0 11 -4 20 -9 20 -5 0 -12 10 -14 23
l-4 22 -2 -22z"/>
<path d="M6873 4436 c-3 -4 0 -12 7 -16 7 -4 9 -13 6 -19 -4 -6 -3 -11 2 -11
5 0 12 -9 15 -20 3 -11 2 -20 -2 -20 -4 0 -14 -11 -21 -25 -12 -22 -11 -27 4
-38 12 -9 19 -28 20 -55 0 -30 5 -42 16 -42 32 0 39 15 38 82 0 59 -3 69 -24
85 -28 21 -33 49 -6 38 13 -5 14 -4 5 6 -8 8 -9 18 -3 29 8 15 5 17 -21 16
-17 0 -33 -5 -36 -10z m67 -158 c-1 -31 -1 -32 -15 -14 -19 25 -19 46 0 46 10
0 15 -10 15 -32z"/>
<path d="M4418 4423 c7 -3 16 -2 19 1 4 3 -2 6 -13 5 -11 0 -14 -3 -6 -6z"/>
<path d="M4503 4413 c15 -2 39 -2 55 0 15 2 2 4 -28 4 -30 0 -43 -2 -27 -4z"/>
<path d="M6809 4333 c-1 -5 -1 -17 0 -28 2 -17 0 -18 -9 -5 -10 13 -11 13 -7
0 7 -26 32 -17 32 13 1 23 -13 40 -16 20z"/>
<path d="M6841 4314 c0 -11 3 -14 6 -6 3 7 2 16 -1 19 -3 4 -6 -2 -5 -13z"/>
<path d="M7710 4320 c0 -5 5 -10 10 -10 6 0 10 5 10 10 0 6 -4 10 -10 10 -5 0
-10 -4 -10 -10z"/>
<path d="M7690 4219 c0 -4 8 -9 18 -11 11 -3 19 0 19 8 0 7 -9 12 -19 11 -10
-1 -18 -4 -18 -8z"/>
<path d="M7830 4219 c-12 -8 -10 -9 9 -4 16 5 21 4 17 -4 -10 -16 0 -13 14 4
10 12 9 15 -6 15 -11 0 -26 -5 -34 -11z"/>
<path d="M8020 4209 c0 -5 5 -7 10 -4 6 3 10 8 10 11 0 2 -4 4 -10 4 -5 0 -10
-5 -10 -11z"/>
<path d="M7703 4150 c2 -39 11 -52 19 -28 6 18 -3 68 -13 68 -5 0 -8 -18 -6
-40z"/>
<path d="M7898 4175 c-10 -10 12 -66 23 -59 6 4 6 10 1 17 -6 7 -11 20 -13 30
-2 11 -7 16 -11 12z"/>
<path d="M7940 4108 c-7 -18 -15 -37 -18 -41 -2 -5 4 -7 14 -5 13 2 21 15 25
41 7 46 -2 48 -21 5z"/>
<path d="M7990 4128 c0 -8 9 -23 20 -33 11 -10 20 -15 20 -11 0 4 -9 19 -20
33 -13 17 -20 20 -20 11z"/>
<path d="M8040 4111 c0 -6 5 -13 10 -16 6 -4 8 -10 5 -15 -3 -4 -1 -19 4 -32
l9 -23 7 27 c4 14 2 35 -5 47 -11 21 -30 29 -30 12z"/>
<path d="M7840 4075 c0 -9 5 -15 11 -13 6 2 11 8 11 13 0 5 -5 11 -11 13 -6 2
-11 -4 -11 -13z"/>
<path d="M7688 4059 c6 -7 12 -24 12 -38 0 -30 16 -59 26 -48 4 4 2 17 -4 30
-6 12 -12 31 -14 41 -2 11 -10 21 -18 24 -12 4 -13 2 -2 -9z"/>
<path d="M6993 4010 c0 -25 2 -35 4 -22 2 12 2 32 0 45 -2 12 -4 2 -4 -23z"/>
<path d="M8154 4036 c-3 -8 -4 -23 -1 -33 3 -12 5 -8 6 10 0 16 5 26 11 22 6
-3 10 -1 10 4 0 16 -20 13 -26 -3z"/>
<path d="M7960 4030 c0 -5 5 -10 10 -10 6 0 10 5 10 10 0 6 -4 10 -10 10 -5 0
-10 -4 -10 -10z"/>
<path d="M8096 4015 c4 -8 10 -12 15 -9 14 8 10 24 -6 24 -9 0 -12 -6 -9 -15z"/>
<path d="M7917 4000 c-3 -11 -1 -20 4 -20 5 0 9 9 9 20 0 11 -2 20 -4 20 -2 0
-6 -9 -9 -20z"/>
<path d="M8060 4010 c0 -5 5 -10 11 -10 5 0 7 5 4 10 -3 6 -8 10 -11 10 -2 0
-4 -4 -4 -10z"/>
<path d="M7670 3990 c0 -11 5 -20 10 -20 6 0 10 9 10 20 0 11 -4 20 -10 20 -5
0 -10 -9 -10 -20z"/>
<path d="M7940 3975 c0 -8 2 -15 4 -15 2 0 6 7 10 15 3 8 1 15 -4 15 -6 0 -10
-7 -10 -15z"/>
<path d="M7882 3958 c-14 -14 -16 -38 -3 -38 10 0 26 39 19 46 -2 2 -10 -2
-16 -8z"/>
<path d="M7915 3950 c4 -14 3 -25 -5 -30 -7 -4 -9 -13 -5 -20 6 -9 9 -9 16 1
12 20 11 57 -2 65 -8 4 -9 -1 -4 -16z"/>
<path d="M8035 3961 c-3 -5 -1 -12 5 -16 5 -3 10 1 10 9 0 18 -6 21 -15 7z"/>
<path d="M7671 3944 c0 -11 3 -14 6 -6 3 7 2 16 -1 19 -3 4 -6 -2 -5 -13z"/>
<path d="M7957 3953 c-4 -3 -7 -11 -7 -17 0 -6 5 -5 12 2 6 6 9 14 7 17 -3 3
-9 2 -12 -2z"/>
<path d="M6875 3900 c-3 -5 -1 -10 4 -10 6 0 11 5 11 10 0 6 -2 10 -4 10 -3 0
-8 -4 -11 -10z"/>
<path d="M7762 3893 c-12 -2 -20 -8 -17 -13 6 -10 45 -1 45 11 0 5 -1 8 -2 8
-2 -1 -13 -4 -26 -6z"/>
<path d="M7050 3870 c0 -13 7 -20 20 -20 13 0 20 7 20 20 0 13 -7 20 -20 20
-13 0 -20 -7 -20 -20z"/>
<path d="M7855 3883 c11 -3 25 -9 31 -14 7 -5 11 -3 11 6 0 10 -10 15 -31 14
-21 -1 -25 -3 -11 -6z"/>
<path d="M6770 3845 c0 -14 5 -25 10 -25 6 0 10 11 10 25 0 14 -4 25 -10 25
-5 0 -10 -11 -10 -25z"/>
<path d="M7920 3856 c0 -8 -6 -17 -12 -19 -8 -4 -9 -6 -2 -6 18 -1 37 26 24
34 -5 3 -10 0 -10 -9z"/>
<path d="M7791 3824 c0 -11 3 -14 6 -6 3 7 2 16 -1 19 -3 4 -6 -2 -5 -13z"/>
<path d="M7033 3745 c0 -38 2 -53 4 -32 2 20 2 52 0 70 -2 17 -4 1 -4 -38z"/>
<path d="M7050 3770 c0 -16 5 -21 23 -18 12 2 22 10 22 18 0 8 -10 16 -22 18
-18 3 -23 -2 -23 -18z"/>
<path d="M7918 3747 c-3 -19 -2 -25 4 -19 6 6 8 18 6 28 -3 14 -5 12 -10 -9z"/>
<path d="M7746 3685 c4 -8 8 -15 10 -15 2 0 4 7 4 15 0 8 -4 15 -10 15 -5 0
-7 -7 -4 -15z"/>
<path d="M7925 3677 c-4 -10 -5 -21 -1 -24 10 -10 18 4 13 24 -4 17 -4 17 -12
0z"/>
<path d="M7772 3658 c2 -6 10 -14 16 -16 7 -2 10 2 6 12 -7 18 -28 22 -22 4z"/>
<path d="M7031 3604 c0 -11 3 -14 6 -6 3 7 2 16 -1 19 -3 4 -6 -2 -5 -13z"/>
<path d="M7748 3603 c7 -3 16 -2 19 1 4 3 -2 6 -13 5 -11 0 -14 -3 -6 -6z"/>
<path d="M7841 3594 c0 -11 3 -14 6 -6 3 7 2 16 -1 19 -3 4 -6 -2 -5 -13z"/>
<path d="M7780 3590 c0 -5 5 -10 10 -10 6 0 10 5 10 10 0 6 -4 10 -10 10 -5 0
-10 -4 -10 -10z"/>
<path d="M6770 3525 c0 -8 2 -15 4 -15 2 0 6 7 10 15 3 8 1 15 -4 15 -6 0 -10
-7 -10 -15z"/>
<path d="M6798 3490 c3 -18 11 -30 25 -34 28 -7 36 3 15 18 -10 7 -15 16 -12
19 3 3 -3 10 -13 16 -17 9 -19 7 -15 -19z"/>
<path d="M6817 3405 c-4 -8 -2 -17 3 -20 6 -4 10 3 10 14 0 25 -6 27 -13 6z"/>
<path d="M6710 3168 c0 -4 9 -8 20 -8 11 0 20 4 20 8 0 4 -9 8 -20 8 -11 0
-20 -4 -20 -8z"/>
<path d="M6710 3140 c0 -5 5 -10 11 -10 5 0 7 5 4 10 -3 6 -8 10 -11 10 -2 0
-4 -4 -4 -10z"/>
<path d="M6640 3120 c0 -5 5 -10 10 -10 6 0 10 5 10 10 0 6 -4 10 -10 10 -5 0
-10 -4 -10 -10z"/>
<path d="M6685 3119 c-4 -6 -5 -12 -2 -15 2 -3 7 2 10 11 7 17 1 20 -8 4z"/>
<path d="M6703 3094 c-17 -17 -16 -24 1 -24 19 0 27 13 18 27 -5 7 -11 7 -19
-3z"/>
<path d="M6641 3030 c-1 -50 0 -52 17 -36 10 9 24 16 30 16 7 0 12 4 12 9 0
11 -19 9 -39 -3 -11 -7 -13 -4 -8 15 3 13 2 30 -2 38 -5 8 -9 -7 -10 -39z"/>
<path d="M7338 2873 c7 -3 16 -2 19 1 4 3 -2 6 -13 5 -11 0 -14 -3 -6 -6z"/>
<path d="M7718 2863 c7 -3 16 -2 19 1 4 3 -2 6 -13 5 -11 0 -14 -3 -6 -6z"/>
<path d="M7530 2850 c-12 -8 -10 -10 10 -11 l25 -1 -25 -7 c-14 -4 -26 -4 -28
0 -2 4 -10 5 -18 2 -7 -3 -11 -9 -8 -14 3 -5 1 -9 -4 -9 -6 0 -12 7 -16 15 -3
8 -16 15 -28 14 -22 -1 -22 -1 2 -9 24 -8 23 -8 -8 -9 -19 -1 -31 -5 -27 -11
10 -17 76 -11 148 14 66 22 68 23 37 30 -41 8 -42 8 -60 -4z"/>
<path d="M7680 2850 c0 -5 5 -10 10 -10 6 0 10 5 10 10 0 6 -4 10 -10 10 -5 0
-10 -4 -10 -10z"/>
<path d="M5168 2833 c6 -2 18 -2 25 0 6 3 1 5 -13 5 -14 0 -19 -2 -12 -5z"/>
<path d="M7630 2831 c0 -5 7 -12 16 -15 24 -9 28 -7 14 9 -14 17 -30 20 -30 6z"/>
<path d="M6790 2800 c-13 -8 -13 -10 2 -10 9 0 20 5 23 10 8 13 -5 13 -25 0z"/>
<path d="M4670 2790 c0 -5 7 -10 15 -10 8 0 15 5 15 10 0 6 -7 10 -15 10 -8 0
-15 -4 -15 -10z"/>
<path d="M4870 2779 c-27 -11 -34 -17 -18 -14 14 3 37 1 50 -4 22 -9 21 -10
-8 -10 -17 -1 -57 -10 -90 -21 -63 -22 -79 -26 -134 -36 -74 -14 -59 -21 76
-40 25 -4 44 -1 48 5 4 6 25 11 46 11 21 0 45 6 52 13 19 18 145 57 163 51 8
-3 36 2 64 11 40 13 48 19 44 35 -4 16 -9 18 -25 9 -12 -7 -43 -8 -77 -5 -141
16 -146 16 -191 -5z m95 1 c8 -13 -5 -13 -25 0 -13 8 -13 10 2 10 9 0 20 -4
23 -10z m54 -34 c-10 -9 -79 -14 -79 -5 0 5 19 9 42 9 23 0 39 -2 37 -4z
m-154 -42 c-22 -8 -46 -13 -55 -11 -8 2 1 9 20 14 52 17 81 14 35 -3z"/>
<path d="M4695 2750 l-30 -8 27 -1 c15 0 30 4 33 9 3 6 5 9 3 9 -2 -1 -16 -5
-33 -9z"/>
<path d="M7725 2750 c-3 -5 -1 -10 4 -10 6 0 11 5 11 10 0 6 -2 10 -4 10 -3 0
-8 -4 -11 -10z"/>
<path d="M5415 2705 l-30 -13 25 -5 c14 -2 3 -5 -25 -6 -49 -1 -85 -14 -69
-24 5 -2 43 -6 84 -7 41 -1 84 -2 95 -3 11 0 36 0 55 2 56 3 13 21 -55 22 -36
1 -54 6 -52 13 2 6 14 10 26 8 15 -1 21 3 19 10 -6 18 -38 19 -73 3z"/>
<path d="M6116 2695 c-26 -14 -54 -25 -62 -25 -7 0 -14 -4 -14 -10 0 -5 23 -1
50 10 65 26 72 25 35 -5 -16 -13 -26 -28 -22 -32 5 -4 12 -1 16 6 7 11 10 11
14 0 4 -11 11 -8 26 9 11 13 24 22 28 20 4 -2 9 9 11 25 4 35 -18 36 -82 2z"/>
<path d="M4535 2680 c3 -5 13 -10 21 -10 8 0 14 5 14 10 0 6 -9 10 -21 10 -11
0 -17 -4 -14 -10z"/>
<path d="M5538 2683 c7 -3 16 -2 19 1 4 3 -2 6 -13 5 -11 0 -14 -3 -6 -6z"/>
<path d="M7523 2673 c12 -7 36 -12 52 -12 17 0 24 3 16 6 -10 4 -11 7 -1 13 7
5 -10 7 -38 7 -45 -2 -48 -3 -29 -14z"/>
<path d="M5908 2663 c6 -2 18 -2 25 0 6 3 1 5 -13 5 -14 0 -19 -2 -12 -5z"/>
<path d="M7380 2660 c0 -5 5 -10 11 -10 5 0 7 5 4 10 -3 6 -8 10 -11 10 -2 0
-4 -4 -4 -10z"/>
<path d="M7875 2660 c3 -5 8 -10 11 -10 2 0 4 5 4 10 0 6 -5 10 -11 10 -5 0
-7 -4 -4 -10z"/>
<path d="M4985 2644 c9 -9 18 -14 21 -11 9 9 -6 27 -22 27 -13 0 -13 -2 1 -16z"/>
<path d="M5068 2633 c6 -2 18 -2 25 0 6 3 1 5 -13 5 -14 0 -19 -2 -12 -5z"/>
<path d="M8145 2630 c-3 -5 -1 -10 4 -10 6 0 11 5 11 10 0 6 -2 10 -4 10 -3 0
-8 -4 -11 -10z"/>
<path d="M5144 2620 c17 -6 36 -5 45 0 11 7 3 9 -29 9 -42 -1 -43 -1 -16 -9z"/>
<path d="M6099 2603 c-13 -16 -12 -17 4 -4 9 7 17 15 17 17 0 8 -8 3 -21 -13z"/>
<path d="M8170 2600 c-6 -12 -9 -24 -7 -27 3 -2 11 5 17 17 6 12 9 24 7 27 -3
2 -11 -5 -17 -17z"/>
<path d="M5656 2601 c-7 -11 27 -21 72 -21 45 0 32 16 -13 18 -20 1 -40 4 -45
7 -5 3 -11 1 -14 -4z"/>
<path d="M6661 2589 c-14 -13 -21 -32 -21 -54 0 -19 -4 -35 -10 -35 -5 0 -10
7 -10 15 0 8 -4 15 -10 15 -5 0 -10 -4 -10 -10 0 -5 -13 -10 -28 -10 -15 0
-34 -6 -41 -12 -11 -11 -13 -10 -8 4 4 13 -2 17 -35 20 -26 2 -46 -1 -54 -10
-8 -7 -14 -9 -14 -4 0 6 -7 13 -16 16 -14 5 -15 4 -4 -9 15 -18 -1 -20 -18 -3
-7 7 -12 8 -12 2 0 -5 -20 -8 -45 -6 -33 3 -45 0 -45 -9 0 -12 -2 -11 -9 0 -6
9 -15 11 -27 6 -11 -5 -22 -7 -26 -7 -5 1 -8 -2 -8 -7 0 -14 24 -19 140 -30
215 -21 231 -23 221 -35 -16 -19 3 -40 25 -27 17 9 17 10 -6 11 l-25 1 25 14
c14 8 48 14 77 15 28 0 63 4 76 9 14 6 27 8 30 5 2 -3 42 -6 88 -8 74 -2 80
-1 54 10 -16 6 -35 10 -42 7 -6 -3 -22 2 -35 11 -25 18 -17 22 13 6 10 -6 19
-8 19 -6 0 3 -23 17 -51 32 -28 14 -54 34 -56 45 -6 21 -23 26 -23 7 0 -7 -14
1 -29 19 -29 31 -29 31 -50 12z"/>
<path d="M8433 2583 c9 -2 25 -2 35 0 9 3 1 5 -18 5 -19 0 -27 -2 -17 -5z"/>
<path d="M8225 2564 c-9 -9 -14 -23 -11 -30 3 -8 1 -14 -4 -14 -5 0 -12 -11
-16 -25 -3 -14 -11 -25 -18 -25 -6 0 -4 -5 4 -10 22 -14 33 -12 27 5 -4 8 -2
17 4 20 5 4 7 11 4 16 -4 5 1 9 10 9 11 0 15 5 11 15 -3 9 3 19 14 25 11 6 20
15 20 20 0 16 -27 12 -45 -6z"/>
<path d="M7913 2552 c1 -12 6 -18 15 -15 7 3 10 9 5 12 -4 3 -11 10 -15 15 -4
4 -6 -1 -5 -12z"/>
<path d="M7948 2563 c7 -3 16 -2 19 1 4 3 -2 6 -13 5 -11 0 -14 -3 -6 -6z"/>
<path d="M8375 2525 c-11 -19 -16 -37 -12 -41 4 -4 7 -2 7 4 0 22 37 49 75 56
26 5 35 4 30 -4 -5 -8 3 -10 26 -8 18 2 34 9 37 16 3 9 -16 12 -71 12 l-74 0
-18 -35z"/>
<path d="M8583 2501 c-15 -24 -8 -31 31 -30 l31 0 -25 11 c-25 11 -25 11 -2
15 29 6 29 23 -1 23 -12 0 -28 -9 -34 -19z"/>
<path d="M7734 2491 c3 -4 18 -11 33 -14 16 -3 36 -9 46 -12 9 -4 17 -3 17 3
0 6 -17 16 -37 21 -46 13 -66 14 -59 2z"/>
<path d="M8238 2483 c7 -3 16 -2 19 1 4 3 -2 6 -13 5 -11 0 -14 -3 -6 -6z"/>
<path d="M8045 2435 c-15 -19 -25 -38 -21 -42 3 -3 7 -4 9 -2 1 2 13 19 25 37
32 46 21 52 -13 7z"/>
<path d="M8389 2427 c30 -5 62 -5 72 0 13 5 -5 8 -53 9 l-73 1 54 -10z"/>
<path d="M6980 2416 c0 -2 7 -7 16 -10 8 -3 12 -2 9 4 -6 10 -25 14 -25 6z"/>
<path d="M6496 2375 c-3 -8 -1 -15 4 -15 6 0 10 7 10 15 0 8 -2 15 -4 15 -2 0
-6 -7 -10 -15z"/>
<path d="M8000 2382 c0 -7 -14 -12 -31 -12 -17 0 -28 -4 -24 -10 3 -5 -2 -10
-11 -10 -23 0 -15 -6 18 -14 22 -5 31 -1 44 19 9 14 14 28 10 32 -3 3 -6 1 -6
-5z"/>
<path d="M8750 2376 c0 -2 11 -15 25 -30 21 -22 25 -24 25 -9 0 10 -11 23 -25
30 -14 6 -25 10 -25 9z"/>
<path d="M8835 2361 c-7 -12 12 -24 25 -16 11 7 4 25 -10 25 -5 0 -11 -4 -15
-9z"/>
<path d="M7818 2353 c7 -3 16 -2 19 1 4 3 -2 6 -13 5 -11 0 -14 -3 -6 -6z"/>
<path d="M8260 2347 c0 -10 -12 -14 -43 -13 -29 1 -49 -5 -61 -16 -17 -17 -15
-18 34 -18 38 0 51 -4 47 -12 -18 -49 -16 -59 5 -24 26 45 23 45 197 47 129 2
138 15 15 23 -35 3 -67 6 -71 9 -4 2 -34 8 -65 11 -47 6 -58 5 -58 -7z"/>
<path d="M6788 2323 c7 -3 16 -2 19 1 4 3 -2 6 -13 5 -11 0 -14 -3 -6 -6z"/>
<path d="M7020 2316 c0 -9 7 -16 16 -16 9 0 14 5 12 12 -6 18 -28 21 -28 4z"/>
<path d="M6928 2313 c6 -2 18 -2 25 0 6 3 1 5 -13 5 -14 0 -19 -2 -12 -5z"/>
<path d="M7180 2316 c0 -2 7 -7 16 -10 8 -3 12 -2 9 4 -6 10 -25 14 -25 6z"/>
<path d="M9204 2310 c-5 -5 -34 -14 -64 -19 -30 -5 -48 -9 -40 -10 8 -1 27 -8
42 -15 28 -15 45 -6 32 16 -5 8 -2 9 11 5 18 -7 45 8 45 24 0 12 -14 11 -26
-1z"/>
<path d="M7085 2300 l-30 -8 33 -1 c17 0 34 -1 37 -1 9 0 7 14 -2 16 -4 1 -21
-2 -38 -6z"/>
<path d="M8578 2303 c7 -3 16 -2 19 1 4 3 -2 6 -13 5 -11 0 -14 -3 -6 -6z"/>
<path d="M8415 2290 c3 -5 13 -10 21 -10 8 0 14 5 14 10 0 6 -9 10 -21 10 -11
0 -17 -4 -14 -10z"/>
<path d="M8471 2286 c2 -2 21 -6 42 -10 27 -5 37 -4 32 3 -3 6 -22 11 -42 11
-20 0 -34 -2 -32 -4z"/>
<path d="M8764 2276 c-28 -20 -122 -24 -162 -7 -52 22 -49 4 4 -20 34 -16 49
-19 52 -11 2 7 10 12 18 12 9 0 13 -4 9 -9 -6 -11 12 -17 75 -25 34 -5 40 -4
23 4 -32 13 -29 23 5 18 15 -3 41 -2 57 2 l30 8 -37 2 c-52 3 -55 4 -64 13 -4
4 2 7 14 7 12 0 22 5 22 10 0 14 -22 12 -46 -4z m-34 -36 c13 -8 13 -10 -2
-10 -9 0 -20 5 -23 10 -8 13 5 13 25 0z"/>
<path d="M7155 2260 c3 -5 13 -10 21 -10 8 0 12 5 9 10 -3 6 -13 10 -21 10 -8
0 -12 -4 -9 -10z"/>
<path d="M7851 2267 c2 -1 12 -9 22 -16 14 -12 17 -11 17 3 0 10 -8 16 -22 16
-12 0 -19 -1 -17 -3z"/>
<path d="M9191 2244 c0 -11 3 -14 6 -6 3 7 2 16 -1 19 -3 4 -6 -2 -5 -13z"/>
<path d="M8276 2234 c-22 -13 -26 -18 -15 -25 8 -5 25 -8 39 -8 14 0 19 3 12
6 -10 4 -9 9 4 24 22 24 2 25 -40 3z"/>
<path d="M9098 2243 c7 -3 16 -2 19 1 4 3 -2 6 -13 5 -11 0 -14 -3 -6 -6z"/>
<path d="M9232 2230 c0 -14 2 -19 5 -12 2 6 2 18 0 25 -3 6 -5 1 -5 -13z"/>
<path d="M6055 2228 c22 -6 67 -11 100 -13 33 -2 47 -1 30 2 -16 3 -34 8 -40
12 -5 5 -37 8 -70 8 -59 0 -60 0 -20 -9z"/>
<path d="M7170 2230 c0 -5 5 -10 10 -10 6 0 10 5 10 10 0 6 -4 10 -10 10 -5 0
-10 -4 -10 -10z"/>
<path d="M9035 2230 c3 -5 11 -10 16 -10 6 0 7 5 4 10 -3 6 -11 10 -16 10 -6
0 -7 -4 -4 -10z"/>
<path d="M8720 2190 c0 -9 15 -14 34 -11 4 1 13 -5 20 -13 13 -18 68 -25 73
-10 2 6 -24 18 -57 27 -70 20 -70 20 -70 7z"/>
<path d="M9365 2170 c3 -5 22 -10 41 -10 19 0 34 5 34 10 0 6 -18 10 -41 10
-24 0 -38 -4 -34 -10z"/>
<path d="M8965 2139 c-5 -7 29 -19 58 -19 10 0 16 4 13 9 -7 11 -65 20 -71 10z"/>
<path d="M6540 2105 c-11 -13 -10 -14 4 -9 9 3 16 10 16 15 0 13 -6 11 -20 -6z"/>
<path d="M6703 2055 c0 -11 4 -12 14 -4 7 6 13 13 13 15 0 2 -6 4 -13 4 -8 0
-14 -7 -14 -15z"/>
<path d="M9488 2063 c7 -3 16 -2 19 1 4 3 -2 6 -13 5 -11 0 -14 -3 -6 -6z"/>
<path d="M6660 2009 c0 -5 5 -7 10 -4 6 3 10 8 10 11 0 2 -4 4 -10 4 -5 0 -10
-5 -10 -11z"/>
<path d="M6908 1933 c6 -2 18 -2 25 0 6 3 1 5 -13 5 -14 0 -19 -2 -12 -5z"/>
<path d="M7090 1880 c34 -11 60 -11 35 0 -11 5 -29 8 -40 8 -16 0 -15 -2 5 -8z"/>
<path d="M7200 1881 c0 -5 -8 -12 -17 -14 -13 -3 -12 -5 5 -6 13 0 37 -8 55
-18 59 -30 121 -42 142 -27 18 13 17 14 -6 14 -13 0 -34 7 -45 15 -12 8 -36
17 -54 20 -18 3 -41 10 -51 15 -22 12 -29 13 -29 1z"/>
<path d="M7396 1860 c-13 -4 -16 -9 -8 -14 7 -4 19 -3 28 2 21 12 5 22 -20 12z"/>
<path d="M7150 1825 c-11 -13 -10 -14 4 -9 9 3 16 10 16 15 0 13 -6 11 -20 -6z"/>
<path d="M7028 1823 c12 -2 32 -2 45 0 12 2 2 4 -23 4 -25 0 -35 -2 -22 -4z"/>
<path d="M7110 1790 c-13 -8 -12 -10 3 -10 9 0 17 5 17 10 0 12 -1 12 -20 0z"/>
<path d="M7303 1720 c-19 -24 -29 -27 -65 -24 -24 1 -88 5 -143 8 -84 4 -92 4
-50 -5 28 -5 75 -15 105 -21 30 -6 65 -11 78 -10 23 0 31 -23 10 -31 -7 -2
-10 -8 -5 -13 4 -4 15 3 24 16 l17 24 6 -24 6 -25 28 28 c15 16 31 26 34 22 3
-3 0 -11 -6 -17 -19 -19 -14 -30 9 -23 19 6 20 4 14 -26 l-7 -33 34 37 c20 20
42 37 49 37 11 0 11 2 2 8 -19 12 12 52 40 52 20 1 21 1 4 11 -20 12 -42 -1
-52 -30 -6 -21 -52 -44 -66 -35 -6 3 -8 13 -5 21 3 8 1 11 -4 8 -6 -3 -10 -2
-10 4 0 13 38 34 49 27 5 -3 15 2 22 11 12 14 12 16 -2 11 -9 -4 -20 -3 -25 1
-5 5 -22 11 -39 14 -24 4 -34 -1 -52 -23z"/>
<path d="M6958 1713 c7 -3 16 -2 19 1 4 3 -2 6 -13 5 -11 0 -14 -3 -6 -6z"/>
<path d="M7518 1688 c2 -10 -1 -18 -7 -18 -6 0 -11 -5 -11 -12 0 -6 -12 -26
-26 -45 -14 -19 -24 -37 -21 -40 3 -3 23 21 44 54 21 32 45 64 53 70 13 11 11
12 -11 11 -20 -2 -25 -6 -21 -20z"/>
<path d="M7658 1683 c7 -3 16 -2 19 1 4 3 -2 6 -13 5 -11 0 -14 -3 -6 -6z"/>
<path d="M7375 1669 c-12 -19 5 -23 22 -6 16 16 16 17 1 17 -9 0 -20 -5 -23
-11z"/>
<path d="M7475 1670 c-3 -5 -1 -10 4 -10 6 0 11 5 11 10 0 6 -2 10 -4 10 -3 0
-8 -4 -11 -10z"/>
<path d="M7205 1580 c-3 -5 -1 -10 4 -10 6 0 11 5 11 10 0 6 -2 10 -4 10 -3 0
-8 -4 -11 -10z"/>
<path d="M7615 1540 c-3 -5 -1 -10 4 -10 6 0 11 5 11 10 0 6 -2 10 -4 10 -3 0
-8 -4 -11 -10z"/>
<path d="M7938 1513 c6 -2 18 -2 25 0 6 3 1 5 -13 5 -14 0 -19 -2 -12 -5z"/>
<path d="M7418 1463 c7 -3 16 -2 19 1 4 3 -2 6 -13 5 -11 0 -14 -3 -6 -6z"/>
<path d="M7498 1443 c7 -3 16 -2 19 1 4 3 -2 6 -13 5 -11 0 -14 -3 -6 -6z"/>
<path d="M7970 1400 c0 -5 5 -10 10 -10 6 0 10 5 10 10 0 6 -4 10 -10 10 -5 0
-10 -4 -10 -10z"/>
<path d="M7502 1320 c-21 -22 -35 -60 -23 -60 12 0 42 41 36 50 -3 4 1 10 7
13 7 2 10 7 7 11 -4 4 -16 -2 -27 -14z"/>
<path d="M7545 1240 c-3 -5 -1 -10 4 -10 6 0 11 5 11 10 0 6 -2 10 -4 10 -3 0
-8 -4 -11 -10z"/>
<path d="M7970 1232 c0 -5 7 -16 16 -23 14 -12 16 -11 13 5 -4 20 -29 35 -29
18z"/>
<path d="M8301 1186 c2 -2 22 -6 44 -10 29 -5 36 -4 25 3 -13 10 -79 16 -69 7z"/>
<path d="M7505 1159 c-4 -6 -5 -12 -2 -15 2 -3 7 2 10 11 7 17 1 20 -8 4z"/>
<path d="M7994 1151 c10 -11 14 -25 10 -36 -6 -15 -4 -15 14 -4 11 7 18 18 15
25 -2 7 1 14 9 17 7 2 1 3 -14 1 -16 -2 -28 1 -28 6 0 6 -5 10 -12 10 -6 0 -4
-8 6 -19z"/>
<path d="M7480 1109 c-7 -11 -10 -23 -7 -25 2 -2 9 7 15 21 14 30 7 33 -8 4z"/>
<path d="M8100 1100 c0 -5 7 -7 15 -4 8 4 15 8 15 10 0 2 -7 4 -15 4 -8 0 -15
-4 -15 -10z"/>
<path d="M8500 1096 c0 -2 7 -6 15 -10 8 -3 15 -1 15 4 0 6 -7 10 -15 10 -8 0
-15 -2 -15 -4z"/>
<path d="M8548 1083 c6 -2 18 -2 25 0 6 3 1 5 -13 5 -14 0 -19 -2 -12 -5z"/>
<path d="M8155 1020 c-3 -5 -4 -14 -1 -19 3 -5 0 -14 -8 -20 -15 -13 -10 -51
7 -51 6 0 8 3 4 6 -3 3 1 23 8 45 13 35 5 64 -10 39z"/>
<path d="M7498 953 c7 -3 16 -2 19 1 4 3 -2 6 -13 5 -11 0 -14 -3 -6 -6z"/>
<path d="M7700 900 c0 -5 7 -7 15 -4 8 4 15 8 15 10 0 2 -7 4 -15 4 -8 0 -15
-4 -15 -10z"/>
<path d="M1700 890 c-8 -5 -10 -10 -5 -10 6 0 17 5 25 10 8 5 11 10 5 10 -5 0
-17 -5 -25 -10z"/>
<path d="M7758 893 c6 -2 18 -2 25 0 6 3 1 5 -13 5 -14 0 -19 -2 -12 -5z"/>
<path d="M7848 873 c6 -2 18 -2 25 0 6 3 1 5 -13 5 -14 0 -19 -2 -12 -5z"/>
<path d="M8127 785 c-4 -8 -2 -17 3 -20 6 -4 10 3 10 14 0 25 -6 27 -13 6z"/>
<path d="M7225 640 c3 -5 8 -10 11 -10 2 0 4 5 4 10 0 6 -5 10 -11 10 -5 0 -7
-4 -4 -10z"/>
<path d="M9320 489 c0 -5 9 -9 20 -9 11 0 20 2 20 4 0 2 -9 6 -20 9 -11 3 -20
1 -20 -4z"/>
</g>
</svg>
