<?xml version="1.0" standalone="no"?>
<!DOCTYPE svg PUBLIC "-//W3C//DTD SVG 20010904//EN"
 "http://www.w3.org/TR/2001/REC-SVG-20010904/DTD/svg10.dtd">
<svg version="1.0" xmlns="http://www.w3.org/2000/svg"
 width="250.000000pt" height="130.000000pt" viewBox="0 0 250.000000 130.000000"
 preserveAspectRatio="xMidYMid meet">

<g transform="translate(0.000000,130.000000) scale(0.100000,-0.100000)"
fill="#000000" stroke="none">
<path d="M150 805 l0 -435 425 0 425 0 0 435 0 435 -425 0 -425 0 0 -435z
m350 -5 l0 -330 -115 0 -115 0 0 330 0 330 115 0 115 0 0 -330z m255 307 c45
-25 85 -92 85 -142 0 -17 -10 -51 -22 -75 -30 -58 -89 -90 -168 -90 l-55 0
158 -158 c86 -86 157 -161 157 -165 0 -4 -73 -6 -162 -5 l-163 3 -3 328 -2
327 67 0 c52 0 78 -6 108 -23z"/>
<path d="M1690 1094 c-102 -63 -213 -131 -247 -151 -63 -37 -72 -50 -65 -90 4
-19 11 -23 38 -23 l34 0 0 -195 0 -195 435 0 435 0 0 195 0 195 35 0 c34 0 35
1 35 38 l0 37 -223 132 c-122 72 -238 140 -257 152 l-35 20 -185 -115z m367
-95 l173 -102 0 -193 0 -193 -328 -3 c-181 -2 -336 -2 -345 0 -15 3 -17 25
-17 200 l0 197 158 97 c86 53 163 96 171 97 8 1 92 -45 188 -100z"/>
<path d="M1720 788 l0 -38 170 0 170 0 0 40 0 41 -170 -2 -170 -2 0 -39z"/>
<path d="M1720 680 l0 -40 168 2 167 3 3 38 3 37 -170 0 -171 0 0 -40z"/>
<path d="M1542 398 c-13 -13 -16 -57 -4 -74 4 -6 17 -13 30 -17 22 -5 23 -3
20 46 -3 54 -20 71 -46 45z m33 -43 c0 -16 -6 -30 -12 -32 -9 -3 -13 7 -13 32
0 25 4 35 13 33 6 -3 12 -17 12 -33z"/>
<path d="M1706 402 c-3 -5 -8 -29 -11 -53 -3 -24 -2 -38 1 -31 3 6 12 12 19
12 7 0 15 -6 18 -12 10 -30 15 2 6 38 -12 43 -24 60 -33 46z m17 -37 c4 -8 2
-17 -3 -20 -6 -4 -10 3 -10 14 0 25 6 27 13 6z"/>
<path d="M1766 398 c-4 -9 -6 -31 -4 -50 2 -27 8 -34 28 -36 22 -3 23 -2 8 10
-9 7 -18 31 -20 53 -3 28 -6 35 -12 23z"/>
<path d="M1903 390 c-6 -23 -23 -27 -23 -5 0 8 -4 15 -10 15 -5 0 -10 -20 -10
-45 0 -25 5 -45 10 -45 6 0 10 9 10 20 0 11 5 20 10 20 6 0 10 -9 10 -20 0
-11 5 -20 10 -20 6 0 10 23 10 50 0 51 -8 65 -17 30z"/>
<path d="M1944 396 c-3 -8 -4 -29 -2 -48 2 -25 8 -34 25 -36 28 -4 41 37 24
74 -12 26 -39 32 -47 10z m36 -42 c0 -24 -4 -34 -12 -32 -15 5 -22 42 -14 64
10 25 26 5 26 -32z"/>
<path d="M2017 388 c-12 -43 1 -80 27 -76 18 3 21 11 24 53 2 39 0 46 -9 32
-5 -9 -9 -25 -8 -35 3 -29 -1 -42 -10 -42 -6 0 -11 21 -13 48 -3 41 -4 44 -11
20z"/>
<path d="M2097 404 c-13 -14 -7 -39 13 -52 12 -7 18 -17 14 -23 -4 -6 -11 -5
-22 3 -13 11 -14 11 -10 -2 7 -21 42 -19 46 3 2 11 -5 25 -17 34 -12 8 -19 19
-15 24 3 6 12 5 22 -3 13 -11 14 -11 10 2 -5 17 -30 25 -41 14z"/>
<path d="M2160 361 c0 -29 4 -50 9 -47 10 6 9 82 -2 92 -4 4 -7 -16 -7 -45z"/>
<path d="M2195 378 c-4 -21 -2 -44 4 -55 9 -16 11 -14 12 12 l1 30 11 -27 c17
-43 27 -33 26 25 -1 28 -4 41 -6 28 l-5 -25 -18 24 -18 24 -7 -36z"/>
<path d="M2274 396 c-3 -8 -4 -29 -2 -48 3 -28 7 -33 31 -34 22 -1 27 3 27 22
0 14 -6 24 -14 24 -9 0 -12 -7 -9 -20 3 -11 0 -20 -6 -20 -6 0 -11 17 -11 40
0 38 13 54 23 28 2 -7 8 -10 12 -6 11 11 -4 28 -26 28 -11 0 -22 -6 -25 -14z"/>
<path d="M1470 355 c0 -43 1 -45 28 -44 26 0 26 1 5 9 -27 11 -30 30 -5 30 16
1 16 1 0 11 -10 5 -18 14 -18 19 0 5 8 11 18 13 13 4 11 5 -5 6 -21 1 -23 -4
-23 -44z"/>
<path d="M1612 358 c3 -38 6 -43 28 -43 22 0 25 5 28 43 2 25 -1 42 -7 42 -6
0 -11 -18 -11 -40 0 -22 -4 -40 -10 -40 -5 0 -10 18 -10 40 0 22 -5 40 -11 40
-6 0 -9 -17 -7 -42z"/>
<path d="M1027 303 c-10 -9 -9 -41 2 -47 4 -3 7 7 5 22 -2 15 -1 19 2 10 3
-10 11 -18 17 -18 21 0 40 17 33 29 -8 12 -49 15 -59 4z"/>
<path d="M152 229 l2 -74 3 63 c4 62 4 63 31 60 35 -4 44 -43 13 -53 -25 -8
-26 -14 -2 -42 25 -30 38 -29 18 0 -14 22 -14 25 4 40 10 9 19 20 19 25 0 19
-27 42 -57 48 l-33 7 2 -74z"/>
<path d="M279 293 c-1 -5 -2 -36 -4 -70 l-2 -63 41 2 c37 1 38 2 9 5 -27 4
-33 9 -33 28 0 18 6 25 28 28 l27 4 -27 2 c-23 1 -28 6 -28 26 0 20 5 25 25
25 14 0 25 5 25 10 0 11 -59 14 -61 3z"/>
<path d="M411 237 c-34 -76 -35 -77 -22 -77 5 0 11 9 14 20 8 30 70 28 85 -2
6 -13 11 -17 11 -8 0 8 -13 42 -29 75 l-28 60 -31 -68z m49 -4 c0 -7 -9 -13
-20 -13 -23 0 -24 4 -9 32 9 17 13 18 20 7 5 -8 9 -20 9 -26z"/>
<path d="M630 290 c0 -5 5 -10 10 -10 6 0 10 -27 10 -60 0 -33 4 -60 10 -60 6
0 10 27 10 60 0 33 4 60 10 60 6 0 10 5 10 10 0 6 -13 10 -30 10 -16 0 -30 -4
-30 -10z"/>
<path d="M763 290 c-22 -9 -40 -51 -34 -80 9 -48 82 -68 114 -32 17 19 22 68
9 88 -8 13 -47 34 -59 33 -4 0 -18 -4 -30 -9z m71 -26 c50 -49 -24 -124 -76
-77 -20 18 -23 45 -8 74 13 23 62 26 84 3z"/>
<path d="M907 293 c-11 -10 -8 -133 3 -133 6 0 10 27 10 61 0 60 0 60 28 57
19 -2 28 -9 30 -25 2 -13 0 -23 -5 -23 -4 0 -14 -4 -22 -9 -11 -7 -10 -13 4
-35 10 -14 21 -26 26 -26 5 0 3 11 -6 24 -14 21 -14 25 0 36 21 18 19 57 -4
70 -22 11 -54 13 -64 3z"/>
<path d="M540 225 l0 -65 38 1 c36 1 36 2 7 8 -28 6 -29 8 -30 64 0 31 -3 57
-7 57 -5 0 -8 -29 -8 -65z"/>
<path d="M1477 264 c-11 -11 -8 -92 3 -99 6 -3 19 -3 31 0 17 6 20 14 17 53
-2 38 -7 48 -23 50 -12 2 -24 0 -28 -4z m33 -49 c0 -39 -16 -55 -25 -24 -9 26
2 72 15 64 6 -3 10 -21 10 -40z"/>
<path d="M1550 221 c0 -28 5 -53 10 -56 6 -3 10 3 10 15 0 13 9 24 25 30 41
16 25 60 -22 60 -21 0 -23 -5 -23 -49z m48 17 c-6 -18 -28 -21 -28 -4 0 9 7
16 16 16 9 0 14 -5 12 -12z"/>
<path d="M1640 221 c0 -28 5 -51 10 -51 6 0 10 8 10 19 0 10 9 21 21 24 32 9
22 51 -13 55 -27 3 -28 2 -28 -47z m40 13 c0 -8 -4 -14 -10 -14 -5 0 -10 9
-10 21 0 11 5 17 10 14 6 -3 10 -13 10 -21z"/>
<path d="M1724 256 c-18 -47 19 -117 47 -89 15 15 19 62 7 86 -10 20 -46 23
-54 3z m44 -47 c-2 -19 -7 -33 -13 -32 -12 3 -19 49 -10 71 10 26 27 -2 23
-39z"/>
<path d="M1811 218 c0 -45 2 -50 11 -30 14 27 28 29 28 2 0 -11 4 -20 10 -20
5 0 8 21 7 48 -2 43 -4 47 -29 50 -28 3 -28 2 -27 -50z m39 16 c0 -8 -4 -14
-10 -14 -5 0 -10 9 -10 21 0 11 5 17 10 14 6 -3 10 -13 10 -21z"/>
<path d="M1890 260 c0 -5 5 -10 10 -10 6 0 10 -18 10 -40 0 -22 5 -40 10 -40
6 0 10 17 10 38 0 21 5 43 12 50 9 9 5 12 -20 12 -18 0 -32 -4 -32 -10z"/>
<path d="M1970 262 c-3 -7 -4 -31 -2 -52 4 -41 25 -58 48 -39 16 13 19 99 4
99 -5 0 -10 -20 -10 -45 0 -33 -4 -45 -14 -45 -11 0 -16 14 -18 48 -2 26 -5
41 -8 34z"/>
<path d="M2050 220 c0 -51 19 -72 21 -22 l1 27 10 -27 c16 -44 28 -33 27 25
-1 28 -4 42 -6 30 -5 -28 -19 -30 -26 -3 -10 39 -27 20 -27 -30z"/>
<path d="M2143 220 c0 -30 2 -43 4 -27 2 15 2 39 0 55 -2 15 -4 2 -4 -28z"/>
<path d="M2178 258 c7 -7 12 -29 12 -50 0 -21 5 -38 10 -38 6 0 10 17 10 38 0
21 5 43 12 50 9 9 4 12 -22 12 -26 0 -31 -3 -22 -12z"/>
<path d="M2255 253 c5 -10 10 -33 13 -50 5 -40 18 -43 25 -5 3 15 8 38 12 52
6 24 6 24 -9 6 -14 -17 -16 -17 -22 -3 -3 10 -11 17 -16 17 -6 0 -7 -7 -3 -17z"/>
</g>
</svg>
