<?xml version="1.0" standalone="no"?>
<!DOCTYPE svg PUBLIC "-//W3C//DTD SVG 20010904//EN"
 "http://www.w3.org/TR/2001/REC-SVG-20010904/DTD/svg10.dtd">
<svg version="1.0" xmlns="http://www.w3.org/2000/svg"
 width="800.000000pt" height="259.000000pt" viewBox="0 0 800.000000 259.000000"
 preserveAspectRatio="xMidYMid meet">

<g transform="translate(0.000000,259.000000) scale(0.100000,-0.100000)"
fill="#000000" stroke="none">
<path d="M1297 1690 c5 -17 14 -20 64 -20 l58 0 3 -342 3 -343 27 -46 c53 -91
164 -137 348 -146 181 -9 306 24 376 99 62 66 62 64 66 422 3 375 -2 356 95
356 46 0 53 3 53 20 0 19 -7 20 -170 20 -163 0 -170 -1 -170 -20 0 -17 7 -20
48 -20 88 0 83 19 80 -350 -3 -307 -4 -327 -24 -365 -62 -120 -308 -154 -405
-56 -54 54 -59 93 -59 456 l0 315 73 0 c66 0 73 2 73 20 0 20 -7 20 -272 20
-267 0 -272 0 -267 -20z"/>
<path d="M2463 1690 c-2 -18 4 -20 55 -20 31 0 64 -5 72 -10 13 -8 15 -63 15
-395 0 -332 -2 -387 -15 -395 -8 -5 -41 -10 -72 -10 -55 0 -58 -1 -58 -25 l0
-25 185 0 185 0 0 25 c0 24 -2 25 -64 25 -102 0 -96 -24 -96 381 0 235 3 348
10 344 6 -4 79 -86 163 -183 83 -96 203 -235 266 -306 62 -72 147 -170 189
-218 54 -63 83 -88 99 -88 l23 0 0 424 c0 485 -5 456 85 456 48 0 53 2 48 20
-5 19 -14 20 -174 20 -162 0 -169 -1 -169 -20 0 -18 7 -20 55 -20 42 0 60 -5
75 -20 19 -19 20 -33 20 -235 0 -118 -2 -215 -4 -215 -2 0 -105 115 -227 255
l-223 255 -221 0 c-214 0 -221 -1 -222 -20z"/>
<path d="M3650 1690 c0 -18 7 -20 65 -20 l65 0 0 -405 0 -405 -65 0 c-63 0
-65 -1 -65 -25 l0 -25 270 0 270 0 0 25 c0 24 -2 25 -65 25 l-65 0 0 405 0
405 65 0 c58 0 65 2 65 20 0 20 -7 20 -270 20 -263 0 -270 0 -270 -20z"/>
<path d="M4279 1693 c-15 -269 -15 -273 8 -273 17 0 29 16 58 79 21 44 52 93
69 110 39 38 103 61 172 61 l54 0 0 -405 0 -405 -65 0 c-63 0 -65 -1 -65 -25
l0 -25 276 0 c248 0 276 2 270 16 -3 9 -6 20 -6 25 0 5 -29 9 -65 9 l-65 0 0
405 0 405 63 0 c92 0 158 -35 206 -110 20 -31 43 -75 50 -98 11 -33 19 -42 37
-42 l23 0 -5 123 c-3 67 -7 132 -10 145 l-4 22 -500 0 c-469 0 -500 -1 -501
-17z"/>
<path d="M5390 1690 c0 -18 7 -20 60 -20 l60 0 0 -405 0 -405 -65 0 c-63 0
-65 -1 -65 -25 l0 -25 475 0 475 0 0 83 c0 45 3 112 7 150 l6 67 -29 0 c-26 0
-32 -6 -46 -44 -59 -159 -140 -206 -358 -206 l-130 0 0 195 0 195 52 0 c97 0
152 -44 172 -138 7 -27 12 -32 37 -32 l29 0 -2 193 -3 192 -26 3 c-23 3 -27
-2 -39 -43 -23 -81 -87 -125 -182 -125 l-38 0 0 186 0 186 143 -4 c178 -4 208
-17 277 -120 37 -57 49 -68 72 -68 32 0 33 4 21 148 l-6 82 -448 0 c-442 0
-449 0 -449 -20z"/>
<path d="M6480 1690 c0 -18 7 -20 65 -20 l65 0 0 -405 0 -405 -65 0 c-63 0
-65 -1 -65 -25 l0 -25 328 1 c342 1 398 7 512 49 156 58 264 205 277 375 16
212 -121 392 -347 454 -69 19 -101 21 -422 21 -341 0 -348 0 -348 -20z m703
-44 c82 -41 107 -132 107 -395 0 -248 -20 -318 -101 -366 -29 -17 -56 -21
-171 -23 l-138 -4 0 407 0 407 133 -4 c103 -3 140 -8 170 -22z"/>
</g>
</svg>
