<?xml version="1.0" standalone="no"?>
<!DOCTYPE svg PUBLIC "-//W3C//DTD SVG 20010904//EN"
 "http://www.w3.org/TR/2001/REC-SVG-20010904/DTD/svg10.dtd">
<svg version="1.0" xmlns="http://www.w3.org/2000/svg"
 width="1280.000000pt" height="854.000000pt" viewBox="0 0 1280.000000 854.000000"
 preserveAspectRatio="xMidYMid meet">

<g transform="translate(0.000000,854.000000) scale(0.100000,-0.100000)"
fill="#000000" stroke="none">
<path d="M0 8496 c0 -33 4 -45 18 -49 196 -59 195 -59 282 -52 47 4 111 8 143
10 57 3 107 25 107 46 0 18 28 39 52 39 13 0 29 5 35 11 6 6 28 17 49 24 35
13 -3 14 -323 15 l-363 0 0 -44z"/>
<path d="M741 8536 c2 -2 18 -6 34 -7 17 -2 33 -8 36 -13 4 -5 17 -1 30 8 23
16 22 16 -40 16 -36 0 -62 -2 -60 -4z"/>
<path d="M2903 8528 c-23 -37 -33 -63 -33 -92 0 -24 -8 -36 -33 -53 -53 -35
-110 -63 -119 -57 -4 3 -11 -2 -14 -10 -3 -9 -12 -16 -20 -16 -11 0 -13 -7 -8
-27 7 -27 16 -36 30 -33 4 1 10 -3 14 -9 3 -7 35 -14 69 -17 35 -2 72 -9 82
-14 10 -6 46 -13 81 -16 87 -9 94 -17 91 -106 -2 -40 -6 -80 -10 -88 -8 -18
-7 -16 -17 -64 -9 -48 -81 -123 -123 -128 -50 -6 69 -55 152 -63 39 -4 133
-16 210 -26 77 -11 162 -22 189 -25 27 -3 52 -7 56 -9 3 -2 12 1 20 6 13 8 13
10 1 18 -8 5 -11 16 -8 25 4 10 1 16 -9 16 -8 0 -12 -4 -9 -10 3 -5 1 -10 -6
-10 -6 0 -9 8 -6 20 5 18 -4 25 -26 21 -9 -1 -37 24 -37 33 0 3 6 6 14 6 20 0
31 21 16 30 -10 6 -9 15 4 40 9 18 16 40 17 49 0 12 3 11 9 -4 5 -11 9 -15 9
-8 1 7 12 24 26 39 14 15 23 30 20 32 -5 5 62 41 78 42 11 0 67 59 67 70 0 6
12 10 26 10 14 0 23 4 19 9 -6 11 53 43 66 36 4 -3 10 -1 14 5 3 5 13 10 21
10 9 0 12 -5 8 -11 -4 -7 1 -7 16 1 12 7 33 10 46 7 13 -2 24 0 24 6 0 6 3 7
7 4 3 -4 17 5 30 19 12 14 23 22 23 19 0 -3 17 10 37 30 20 20 43 33 50 30 8
-2 11 0 8 5 -4 6 5 10 20 10 17 0 24 4 19 12 -5 7 -2 9 8 5 9 -3 21 0 27 6 7
7 11 7 11 1 0 -6 13 -9 29 -8 16 1 49 -2 74 -8 41 -8 47 -14 83 -75 21 -36 40
-75 41 -87 5 -36 12 -46 31 -46 36 0 89 81 76 115 -4 8 -1 15 4 15 6 0 22 11
36 25 22 22 36 63 41 116 1 9 9 24 18 33 9 10 17 21 17 24 0 4 10 18 23 32 12
14 28 37 36 53 8 15 21 27 28 27 8 0 11 5 8 10 -10 16 -1792 14 -1802 -2z
m426 -632 c-2 -2 -15 -7 -28 -11 -16 -5 -21 -4 -17 4 4 6 14 11 22 11 8 0 14
6 15 13 0 9 2 9 6 -1 3 -7 3 -15 2 -16z m6 -26 c3 -5 -3 -10 -14 -10 -12 0
-21 5 -21 10 0 6 6 10 14 10 8 0 18 -4 21 -10z m-24 -23 c15 -11 14 -14 -7
-30 -17 -13 -25 -14 -30 -5 -4 6 -2 14 4 16 6 2 8 10 5 18 -6 17 6 18 28 1z
m72 -60 c-7 -11 -23 2 -23 19 0 12 2 12 14 2 8 -7 12 -16 9 -21z m-123 13 c0
-5 -4 -10 -10 -10 -5 0 -10 5 -10 10 0 6 5 10 10 10 6 0 10 -4 10 -10z"/>
<path d="M7020 8520 c15 -12 18 -18 8 -14 -16 6 -23 -4 -19 -28 0 -5 -6 -8
-14 -8 -8 0 -15 -4 -15 -9 0 -4 -11 -6 -25 -3 -15 2 -25 0 -25 -7 0 -7 -4 -9
-10 -6 -5 3 -10 1 -10 -5 0 -6 -10 -14 -21 -19 -21 -7 -20 -9 17 -45 l39 -37
-48 21 c-68 28 -80 25 -27 -9 25 -16 48 -27 53 -24 4 2 7 0 7 -6 0 -19 -21
-22 -52 -7 -43 22 -48 12 -6 -11 l33 -18 -38 -3 c-20 -2 -35 -7 -32 -13 8 -12
-8 -12 -21 1 -7 7 -19 7 -35 1 -23 -9 -23 -9 -4 -16 52 -17 64 -26 104 -74 27
-32 36 -49 24 -44 -15 6 -16 5 -5 -9 11 -14 10 -16 -9 -11 -16 5 -20 3 -14 -7
6 -10 1 -12 -19 -8 -14 3 -26 2 -26 -2 0 -7 66 -25 81 -22 3 0 6 -5 6 -13 0
-10 -6 -11 -24 -4 -16 6 -31 5 -44 -2 -12 -6 -27 -8 -35 -5 -8 3 -13 2 -10 -3
3 -5 20 -12 38 -16 18 -4 27 -9 20 -12 -6 -2 -10 -9 -6 -14 3 -5 -4 -9 -15 -9
-12 0 -21 -4 -21 -10 0 -5 13 -10 30 -10 27 0 53 -25 49 -47 -1 -4 1 -16 6
-26 4 -10 2 -23 -5 -32 -11 -13 -10 -14 1 -10 15 6 15 9 6 -164 -4 -62 -8 -78
-26 -92 -18 -15 -26 -16 -42 -6 -10 6 -19 14 -19 17 0 12 -88 100 -99 100 -6
0 -11 9 -11 19 0 11 -4 22 -10 26 -5 3 -7 12 -4 19 3 9 -2 13 -18 12 -13 0
-25 -3 -28 -6 -3 -3 -25 -15 -50 -26 -34 -16 -60 -21 -105 -19 -33 2 -64 0
-70 -5 -5 -4 -21 -11 -34 -15 -14 -4 -34 -16 -45 -26 -11 -11 -28 -19 -38 -19
-10 0 -33 -15 -53 -32 -19 -18 -46 -42 -60 -53 -14 -11 -25 -26 -25 -33 0 -7
-3 -11 -7 -9 -5 3 -13 -1 -20 -8 -10 -10 -9 -16 2 -25 8 -7 12 -16 9 -21 -3
-5 -2 -9 3 -8 9 3 21 -2 133 -51 47 -20 101 -42 120 -49 75 -27 110 -47 111
-61 0 -10 2 -11 6 -2 2 6 9 12 14 12 5 0 8 -6 6 -12 -1 -7 6 -12 16 -10 11 2
17 -4 17 -17 0 -14 5 -19 15 -15 9 4 15 0 15 -10 0 -10 9 -16 24 -16 14 0 31
-9 39 -20 8 -12 19 -20 23 -18 5 2 20 -7 34 -19 13 -13 28 -23 32 -23 5 0 6
-4 3 -10 -3 -6 1 -7 9 -4 11 4 16 0 16 -10 0 -9 10 -21 23 -26 20 -8 20 -9 2
-10 -18 -1 -19 -1 -2 -11 12 -7 15 -17 11 -36 -5 -18 -4 -24 5 -19 7 4 15 -2
20 -16 l9 -23 6 25 c4 14 8 52 9 85 2 33 6 66 11 73 4 8 1 12 -9 12 -9 0 -13
5 -10 10 4 6 12 7 18 3 8 -4 7 -1 -1 9 -8 10 -9 18 -3 22 6 4 18 32 27 64 9
31 25 73 35 93 15 28 16 38 6 49 -10 10 -9 11 2 5 11 -6 13 -4 8 8 -4 11 -1
17 8 17 18 0 20 20 3 20 -7 1 -2 7 11 14 13 7 19 15 12 17 -7 3 0 18 19 39
l30 35 22 -26 c24 -27 82 -119 82 -131 1 -11 69 -98 78 -98 17 0 23 -3 33 -17
6 -8 19 -15 30 -17 11 -2 20 -8 20 -14 0 -15 14 -27 33 -27 9 0 17 -5 17 -12
0 -6 10 -21 23 -33 23 -21 30 -50 12 -50 -5 0 -10 -4 -10 -10 0 -5 7 -10 15
-10 8 0 24 -10 35 -22 l21 -23 -6 28 c-5 18 -3 27 5 27 7 0 10 -6 7 -14 -3 -8
-1 -16 4 -18 6 -2 7 -11 3 -21 -4 -10 -13 -16 -21 -13 -8 3 -12 2 -9 -3 9 -14
-25 -23 -40 -10 -15 12 -38 3 -29 -12 7 -10 4 -11 -36 -13 -18 -1 -25 2 -22
11 5 14 -16 13 -50 -2 -12 -5 -24 -2 -34 8 -14 14 -20 11 -62 -33 -44 -46 -80
-58 -89 -30 -2 5 -8 7 -13 4 -6 -3 -3 -11 7 -19 21 -15 12 -45 -13 -45 -10 0
-25 -5 -33 -11 -13 -9 -12 -10 3 -5 12 4 21 -1 27 -17 5 -12 9 -18 9 -14 1 4
7 2 15 -5 9 -9 11 -17 5 -25 -6 -7 -6 -13 0 -17 5 -3 7 -15 4 -26 -4 -13 0
-20 10 -20 19 0 29 -24 16 -37 -7 -7 -5 -12 6 -17 9 -3 14 -2 11 2 -2 4 -1 14
5 22 7 12 9 12 9 -3 0 -10 3 -16 8 -14 4 3 13 -2 21 -10 11 -12 10 -14 -4 -11
-10 2 -20 -2 -22 -9 -3 -8 3 -11 17 -8 27 5 54 -20 46 -41 -4 -11 1 -18 14
-21 11 -3 20 -14 20 -24 0 -16 5 -18 28 -14 15 3 22 3 15 -1 -7 -3 -9 -12 -6
-20 3 -7 9 -11 14 -8 5 3 9 -4 9 -15 0 -11 -5 -23 -11 -27 -8 -4 -1 -13 17
-23 l29 -16 -25 -3 c-13 -2 -31 -11 -40 -20 -19 -21 -60 -45 -60 -35 0 3 8 15
17 25 13 15 14 19 3 16 -8 -2 -22 -12 -32 -23 -15 -17 -19 -18 -28 -5 -6 10
-10 11 -10 3 0 -7 -7 -13 -15 -13 -8 0 -15 7 -15 15 0 8 -7 15 -15 15 -16 0
-56 20 -66 33 -3 4 -17 9 -30 9 -13 1 -30 6 -37 11 -7 6 -15 7 -19 3 -14 -14
-158 117 -147 135 3 5 -1 9 -8 9 -16 0 -18 -51 -3 -62 6 -5 4 -8 -5 -8 -9 0
-6 -6 9 -16 16 -12 21 -23 17 -39 -3 -12 -2 -25 2 -29 4 -4 8 -12 8 -17 1 -5
2 -13 3 -19 0 -5 13 -20 27 -34 19 -17 25 -31 21 -45 -3 -12 -1 -23 4 -26 4
-3 4 -16 -1 -29 -5 -13 -7 -32 -5 -42 2 -11 4 -25 4 -33 1 -11 4 -11 18 0 15
13 15 12 5 -8 -14 -25 0 -40 31 -35 10 2 17 -3 17 -12 0 -9 5 -16 11 -16 6 0
9 -10 8 -22 -1 -13 1 -31 6 -40 4 -10 4 -25 1 -34 -5 -12 -1 -14 16 -8 17 5
20 3 14 -11 -5 -14 -2 -16 14 -12 15 4 20 0 20 -14 0 -12 5 -16 15 -13 8 4 15
1 15 -6 0 -6 -4 -8 -10 -5 -5 3 -10 1 -10 -5 0 -6 -4 -8 -10 -5 -5 3 -10 -1
-10 -11 0 -13 3 -14 14 -5 9 8 16 8 20 2 4 -5 -2 -14 -11 -20 -10 -5 -14 -13
-10 -17 4 -5 17 -3 27 4 12 7 20 8 20 2 0 -5 7 -10 15 -10 22 0 18 -28 -5 -35
-10 -3 -28 -1 -40 5 -15 8 -20 8 -20 -1 0 -6 -9 -9 -20 -6 -10 3 -21 0 -23 -7
-3 -8 -8 -8 -19 2 -9 7 -22 11 -29 9 -8 -2 -11 -2 -6 0 4 3 7 12 7 20 0 11 -7
14 -25 9 -14 -4 -25 -3 -25 2 0 4 -9 8 -21 9 -16 2 -18 -1 -9 -12 6 -7 9 -19
8 -26 -2 -8 3 -13 10 -11 6 1 12 -2 12 -8 0 -9 -14 -14 -33 -11 -14 2 16 -43
67 -102 28 -31 69 -86 91 -120 50 -79 138 -197 143 -192 2 2 -6 37 -17 77 -12
41 -21 84 -21 97 0 33 39 103 61 108 10 3 19 9 19 14 0 5 6 6 14 3 21 -8 41
51 27 82 -16 36 -14 62 8 69 10 3 23 15 29 28 l11 22 6 -22 c6 -19 10 -20 26
-10 10 6 19 18 19 25 0 7 4 11 8 8 5 -3 17 9 27 26 17 29 19 30 26 12 20 -54
-10 -214 -57 -305 -7 -14 -10 -29 -7 -33 4 -4 2 -11 -5 -15 -7 -4 -14 -23 -17
-42 -2 -18 -9 -35 -15 -37 -5 -2 -10 -9 -10 -16 0 -16 -72 -92 -83 -88 -5 1
-5 -3 -1 -9 3 -6 1 -15 -5 -19 -15 -9 9 -73 38 -105 11 -11 27 -54 37 -95 9
-41 23 -87 31 -102 14 -29 18 -60 5 -43 -4 6 -13 11 -20 13 -10 2 -10 -2 0
-20 7 -13 11 -27 9 -32 -1 -6 3 -20 9 -32 8 -14 9 -28 3 -40 -16 -32 -15 -91
1 -97 10 -4 14 -19 12 -54 -3 -58 -10 -73 -37 -73 -11 0 -22 -6 -25 -14 -3 -7
-20 -22 -39 -32 -54 -29 -61 -91 -15 -144 27 -32 29 -41 30 -116 0 -93 7 -106
69 -123 47 -14 76 -35 67 -50 -4 -5 -2 -11 3 -13 6 -1 13 -19 16 -38 3 -19 11
-37 16 -38 6 -3 6 -9 -1 -17 -11 -13 -4 -45 10 -45 8 0 20 84 20 148 0 64 27
86 93 77 29 -4 76 -14 105 -21 29 -8 63 -14 76 -14 35 0 56 -30 56 -81 0 -25
7 -72 16 -104 18 -67 14 -187 -7 -227 -15 -29 -74 -88 -89 -88 -5 0 -10 5 -10
11 0 6 -7 9 -15 5 -8 -3 -15 -1 -15 3 0 5 -7 12 -16 15 -8 3 -12 2 -9 -4 7
-11 -29 -32 -39 -23 -3 3 -6 2 -6 -4 0 -6 -24 -13 -52 -17 -61 -7 -97 -13
-118 -17 -12 -3 -15 8 -15 56 -1 74 -16 105 -52 105 -15 0 -71 7 -125 16 -130
22 -149 14 -189 -72 -16 -34 -29 -67 -29 -72 0 -5 -9 -21 -20 -35 -20 -25 -21
-25 -57 -11 -20 9 -48 14 -61 11 -14 -3 -39 0 -56 5 -17 5 -52 9 -78 9 -43 -1
-48 1 -54 24 -10 39 0 115 20 157 24 49 15 104 -17 113 -12 3 -44 17 -72 30
-27 13 -71 30 -97 36 -44 12 -49 11 -85 -13 -37 -24 -40 -31 -51 -94 -6 -38
-14 -101 -18 -139 -6 -70 -6 -71 35 -131 34 -48 44 -73 52 -129 14 -101 11
-108 -81 -154 -84 -43 -105 -48 -143 -30 -50 23 -84 154 -73 286 7 84 27 117
89 150 l28 14 -2 127 c-3 131 -11 163 -54 232 -13 21 -22 40 -20 42 3 2 6 79
9 170 3 150 6 170 25 196 11 17 21 41 22 54 1 12 15 49 32 80 95 172 93 166
75 196 -16 26 -20 27 -111 30 -82 2 -97 0 -120 -18 -15 -12 -31 -39 -38 -63
-25 -93 -42 -128 -76 -156 -31 -26 -37 -38 -44 -87 -5 -40 -15 -64 -33 -83
-31 -32 -45 -93 -46 -188 0 -59 3 -74 18 -82 24 -13 46 1 70 47 28 55 34 89
24 158 -10 72 -3 96 33 120 22 14 32 15 63 5 45 -14 79 -55 62 -76 -12 -14
-12 -16 -29 -133 -6 -39 -19 -96 -29 -125 l-17 -52 -53 -3 c-47 -3 -54 -6 -63
-30 -22 -54 12 -267 54 -349 10 -18 17 -45 17 -62 0 -46 -23 -61 -91 -61 -46
0 -63 -4 -79 -20 -11 -11 -20 -15 -20 -9 0 6 -7 17 -15 26 -14 14 -15 13 -9
-11 5 -21 3 -25 -10 -20 -11 4 -16 1 -16 -12 0 -15 -8 -10 -35 19 -40 43 -42
49 -17 40 9 -3 4 5 -12 20 -20 17 -27 31 -22 42 5 14 2 16 -14 12 -12 -3 -20
0 -20 8 0 14 -22 25 -51 25 -28 0 -25 -46 7 -92 15 -21 30 -38 33 -38 4 0 28
-20 54 -44 52 -48 66 -87 48 -136 -12 -36 1 -66 33 -76 11 -4 40 -25 65 -48
72 -65 73 -66 187 -85 147 -26 192 -41 223 -75 29 -31 30 -32 86 -80 27 -24
54 -36 85 -41 56 -7 140 -44 140 -61 0 -7 -8 -18 -17 -23 -11 -6 -13 -11 -5
-11 7 0 10 -4 7 -10 -3 -5 7 -12 22 -15 60 -13 107 -41 166 -98 34 -33 86 -80
115 -105 37 -31 52 -52 52 -69 0 -17 14 -37 42 -62 23 -20 58 -52 77 -72 20
-20 48 -43 62 -53 15 -9 40 -36 55 -59 16 -23 49 -63 74 -88 26 -25 53 -61 60
-80 8 -19 27 -47 42 -64 15 -16 28 -35 28 -42 0 -6 4 -13 9 -15 5 -1 34 -38
64 -81 31 -43 70 -92 86 -110 74 -79 136 -158 208 -266 83 -124 96 -141 112
-141 6 0 50 -39 98 -88 49 -48 144 -133 213 -188 133 -107 340 -300 340 -316
0 -5 9 -22 20 -38 11 -15 26 -56 35 -91 8 -35 30 -113 50 -174 19 -60 35 -114
35 -120 0 -5 6 -22 14 -37 8 -14 17 -53 21 -86 l7 -61 41 -8 c23 -4 48 -7 54
-6 7 0 11 -3 8 -7 -3 -5 18 -8 46 -6 28 1 53 -2 56 -7 3 -5 11 -6 19 -3 7 3
33 -1 56 -10 23 -8 48 -12 55 -10 7 3 15 0 19 -6 4 -7 3 -8 -4 -4 -7 4 -12 2
-12 -3 0 -7 23 -10 61 -8 40 2 63 -1 67 -9 6 -10 20 -10 67 -1 70 14 78 14
127 0 21 -6 47 -9 58 -6 11 3 20 0 20 -6 0 -6 -4 -11 -10 -11 -5 0 -10 -5 -10
-11 0 -5 6 -7 12 -3 26 16 136 25 144 13 3 -5 19 -6 37 -3 24 4 28 3 17 -5
-12 -8 -7 -11 23 -11 20 0 37 5 37 10 0 9 43 8 112 -3 24 -4 35 -17 15 -17
-11 0 -17 -8 -17 -24 0 -27 -16 -44 -23 -24 -2 7 -7 -5 -11 -26 -5 -27 -4 -41
5 -46 8 -6 6 -11 -8 -19 -12 -6 -23 -25 -27 -46 -7 -33 -10 -37 -38 -38 -21
-1 -48 14 -43 23 3 5 -5 6 -17 2 -14 -3 -19 -2 -14 6 4 7 1 12 -7 12 -8 0 -17
7 -21 15 -14 37 -80 3 -95 -48 -7 -23 -9 -26 -10 -11 -1 12 -7 24 -14 27 -9 3
-12 -5 -9 -32 2 -24 0 -32 -6 -23 -7 11 -12 10 -26 -3 -9 -9 -14 -21 -11 -26
4 -5 1 -9 -5 -9 -7 0 -20 -10 -31 -23 l-18 -22 -1 25 c0 19 -2 22 -9 10 -6 -8
-7 -18 -5 -22 9 -15 -14 -8 -32 9 -16 16 -16 16 -9 -6 5 -17 4 -22 -6 -19 -8
3 -19 -2 -25 -10 -11 -16 -34 -24 -66 -23 -10 0 -18 -6 -18 -13 0 -14 -63 -15
-92 -2 -10 5 -26 5 -35 1 -10 -5 -27 -10 -38 -12 -64 -11 -72 -10 -84 8 -9 15
-16 17 -30 10 -10 -6 -32 -8 -49 -6 -18 2 -32 1 -32 -3 0 -4 -18 -7 -40 -7
-22 0 -40 3 -40 7 0 17 -20 7 -21 -9 0 -11 -3 -13 -6 -5 -2 6 -11 12 -19 12
-8 0 -14 7 -14 15 0 19 -7 19 -25 1 -10 -10 -30 -13 -62 -10 -57 6 -78 12 -69
21 9 10 -45 43 -71 43 -12 0 -25 -5 -28 -10 -5 -8 -11 -8 -20 0 -10 8 -15 8
-20 0 -5 -8 -21 -10 -44 -5 -45 8 -76 8 -125 2 -47 -5 -72 14 -68 50 2 12 -1
23 -7 23 -6 0 -11 -4 -11 -10 0 -5 -10 -10 -22 -11 -22 -1 -22 -1 2 -9 20 -7
16 -8 -25 -10 -67 -3 -86 -6 -114 -15 -16 -5 -21 -4 -17 4 11 17 -20 13 -38
-5 -15 -14 -16 -14 -16 0 0 9 -4 16 -10 16 -5 0 -10 -4 -10 -10 0 -21 -19 -9
-28 18 -9 24 -11 24 -11 5 -1 -27 -21 -42 -21 -16 -1 17 -2 17 -13 1 -14 -17
-107 -39 -137 -31 -10 3 -21 0 -24 -6 -12 -18 -24 -12 -19 9 3 11 3 20 1 20
-10 0 -68 -32 -73 -40 -3 -4 -14 -6 -25 -3 -11 3 -20 1 -20 -3 0 -5 -12 -10
-28 -11 -15 -1 -41 -4 -59 -6 -21 -3 -34 1 -37 9 -8 20 -36 17 -36 -3 0 -15
-2 -16 -10 -3 -7 11 -10 7 -10 -17 l0 -33 2730 0 2730 0 0 560 c0 308 -4 560
-8 560 -5 0 -17 -8 -26 -19 -9 -10 -44 -29 -77 -41 l-61 -22 -21 23 -22 23 -9
-27 c-7 -19 -17 -27 -32 -27 -13 0 -26 -5 -30 -11 -9 -16 -74 -2 -109 24 -27
20 -43 22 -140 22 -123 0 -132 2 -156 30 -12 14 -14 26 -8 43 9 24 4 46 -10
38 -14 -9 -32 11 -25 28 5 14 9 15 15 4 7 -10 9 -9 9 5 0 23 58 77 76 71 8 -2
21 -6 30 -9 12 -4 5 -13 -27 -35 -24 -16 -50 -30 -58 -30 -11 0 -11 -3 -1 -15
7 -9 16 -12 19 -7 3 5 30 6 61 2 30 -4 58 -6 62 -3 19 11 126 35 153 34 33 0
90 23 102 42 7 11 16 56 29 148 4 27 2 38 -10 42 -8 3 -18 2 -21 -3 -3 -5 -22
-3 -45 5 -29 10 -40 11 -44 2 -2 -7 -5 -3 -6 8 -1 20 -1 20 -15 1 -22 -29 -18
-11 11 50 14 30 41 70 60 88 19 18 34 37 34 41 0 5 7 17 17 27 15 17 15 18
-17 12 -18 -4 -41 -15 -51 -25 -13 -13 -28 -16 -68 -12 -29 3 -51 1 -51 -5 0
-5 -14 -12 -31 -16 -17 -3 -39 -16 -49 -28 -17 -20 -19 -20 -20 -5 0 9 4 17 9
17 4 0 13 21 18 48 13 64 115 235 180 301 50 49 57 53 93 49 22 -2 40 -1 40 2
0 11 -16 28 -37 39 -19 9 -22 9 -17 -3 4 -11 0 -13 -15 -9 -17 4 -39 -12 -101
-75 -44 -44 -80 -83 -80 -86 0 -3 -8 -14 -17 -24 -10 -10 -29 -32 -43 -49 -13
-17 -29 -29 -34 -26 -5 4 -6 -7 -2 -27 6 -32 6 -33 -13 -16 -18 17 -21 17 -45
1 -17 -11 -26 -13 -26 -6 0 7 -4 10 -9 6 -5 -3 -13 0 -16 6 -4 6 -22 8 -45 4
-48 -8 -76 6 -94 48 l-14 32 1 -33 c0 -19 -6 -37 -13 -42 -10 -6 -9 -9 1 -12
12 -4 12 -11 1 -41 -17 -46 -10 -57 34 -57 30 0 37 -4 47 -30 6 -16 15 -30 19
-30 36 0 -62 -119 -110 -134 -12 -4 -20 -12 -17 -17 4 -5 -8 -9 -25 -9 -17 0
-29 -4 -26 -8 2 -4 -18 -7 -47 -6 -38 1 -55 6 -68 23 -12 15 -19 17 -22 9 -3
-7 -6 -3 -6 10 -1 13 -5 20 -11 17 -14 -9 15 67 43 111 69 110 57 111 -22 1
-97 -133 -100 -136 -134 -141 -76 -13 -97 -14 -103 -5 -6 11 31 78 84 152 26
36 39 46 53 42 19 -6 19 -6 24 56 1 21 24 49 40 49 26 0 23 40 -5 70 -16 17
-30 44 -32 66 -4 30 0 38 24 56 26 18 41 20 168 17 l139 -4 37 45 c21 25 56
64 78 88 l40 42 -49 1 c-28 1 -64 3 -82 5 -18 2 -35 -1 -38 -6 -13 -21 -78 -3
-98 28 -4 6 -13 12 -18 12 -15 0 -48 42 -49 60 0 12 -3 11 -11 -3 -6 -10 -8
-32 -5 -50 l6 -32 -11 28 c-9 23 -7 37 9 77 l20 48 -26 10 c-15 6 -54 18 -86
27 -54 16 -60 16 -71 2 -15 -20 -58 -19 -50 2 3 8 2 17 -4 20 -5 3 -1 23 10
46 l19 40 92 5 c177 8 191 7 194 -15 14 -85 9 -81 92 -95 93 -17 142 -17 247
-1 95 14 148 8 143 -17 -2 -9 -11 -16 -20 -14 -10 1 -25 -12 -38 -37 -13 -21
-39 -47 -59 -58 -20 -10 -35 -23 -33 -28 3 -11 104 -6 116 6 6 5 10 25 10 45
0 27 3 32 10 22 19 -23 125 -68 164 -69 38 0 127 -16 105 -18 -7 0 -13 -6 -13
-12 0 -5 5 -7 12 -3 7 4 8 3 4 -4 -4 -7 -13 -12 -19 -12 -7 0 -21 -10 -31 -22
-15 -17 -17 -25 -7 -40 7 -11 9 -28 6 -38 -8 -25 41 -39 116 -32 36 3 59 0 63
-7 23 -36 26 16 26 393 l0 404 -27 17 -26 18 26 19 27 20 0 288 0 289 -30 -4
c-16 -2 -34 -6 -40 -10 -5 -3 -10 -2 -10 2 0 5 -35 10 -77 12 -43 1 -80 6 -83
10 -3 5 -16 8 -30 7 -20 -1 -26 4 -28 27 -2 19 1 27 13 27 8 0 18 -7 21 -15 4
-10 10 -12 18 -7 16 13 66 21 72 11 6 -10 56 8 66 24 6 9 8 9 8 1 0 -7 18 -12
45 -11 25 0 45 4 45 8 0 17 -102 129 -146 161 -51 36 -76 75 -63 98 10 19 59
184 59 200 0 7 -14 4 -37 -8 -21 -11 -60 -30 -88 -42 -27 -12 -58 -26 -68 -31
-13 -7 -27 -4 -53 11 -19 12 -34 24 -34 27 0 12 79 79 116 98 21 11 46 28 56
37 28 28 56 39 83 32 23 -6 25 -3 26 27 0 28 2 31 9 14 8 -18 9 -19 9 -1 1 12
6 16 16 12 10 -3 17 3 21 19 6 23 15 30 37 26 4 0 7 7 7 17 0 25 -43 64 -63
57 -9 -4 -17 0 -21 12 -3 10 -18 32 -32 48 -22 25 -25 37 -21 73 2 23 1 44 -2
47 -4 2 -26 6 -48 9 -23 2 -51 11 -62 18 -24 15 -38 47 -24 57 15 9 24 59 13
66 -6 3 -13 0 -16 -9 -9 -23 -35 -28 -61 -11 -21 14 -24 14 -29 0 -8 -20 -10
-158 -5 -245 3 -36 1 -80 -3 -97 l-8 -33 32 16 c27 14 38 15 74 4 68 -20 86
-29 86 -42 -1 -16 -90 -85 -143 -112 -21 -10 -41 -25 -44 -32 -3 -8 -11 -14
-18 -14 -7 0 -16 -13 -20 -29 -3 -16 -13 -32 -21 -35 -14 -5 -75 30 -199 113
-22 15 -65 42 -95 60 -31 18 -61 45 -68 59 -16 34 -81 75 -153 96 -31 9 -59
22 -62 30 -7 17 16 39 28 28 5 -4 5 -1 1 5 -8 14 23 62 40 63 7 0 15 11 18 25
4 14 12 25 19 25 7 0 18 9 25 20 7 12 17 18 22 15 5 -3 20 1 32 9 26 16 105
14 138 -4 11 -6 26 -8 32 -4 6 4 8 3 5 -3 -4 -6 0 -13 8 -17 11 -4 15 2 15 19
0 20 5 25 24 25 13 0 26 -6 28 -12 3 -8 14 -2 31 17 15 17 27 24 27 18 0 -22
20 -14 30 12 5 14 16 25 25 25 8 0 15 5 15 10 0 6 -4 10 -8 10 -4 0 -15 13
-25 29 -15 26 -15 30 -1 35 28 11 67 6 85 -9 14 -14 109 -29 109 -18 0 12 -31
62 -46 74 -13 11 -18 11 -21 2 -3 -7 -21 -13 -40 -13 -33 0 -35 2 -29 25 6 22
3 25 -21 25 -16 0 -42 -4 -59 -9 -29 -8 -35 -5 -90 50 -63 62 -78 68 -123 45
-25 -14 -29 -13 -45 5 -13 16 -24 19 -49 14 -64 -13 -140 -51 -194 -98 -14
-13 -31 -18 -47 -15 -21 4 -24 2 -16 -12 5 -10 33 -38 62 -63 l53 -46 36 42
c34 38 39 41 65 32 31 -11 46 -45 20 -45 -35 0 -162 -176 -190 -264 -6 -16 -9
-17 -29 -4 -14 9 -51 13 -104 13 -46 0 -83 3 -83 8 0 4 -17 7 -38 7 -21 0 -47
7 -59 15 -14 10 -24 12 -28 5 -4 -6 -10 -8 -15 -5 -10 6 -26 -41 -39 -120 -36
-215 -58 -308 -69 -302 -4 3 -16 1 -27 -4 -18 -7 -17 -8 6 -8 34 -1 39 -14 28
-81 -4 -30 -15 -122 -24 -205 -9 -82 -19 -153 -23 -157 -4 -4 -54 -1 -112 7
-58 7 -158 17 -222 20 -132 8 -133 9 -118 83 5 26 14 117 21 202 6 85 15 161
21 167 6 8 25 11 47 8 20 -2 55 -7 77 -10 43 -5 46 -2 55 62 2 21 -20 10 -25
-12 -8 -30 -26 -33 -33 -5 -3 11 -11 20 -19 20 -7 0 -14 12 -16 28 -2 21 -8
27 -28 27 -21 0 -26 -6 -32 -35 -4 -20 -5 -9 -2 25 3 33 19 122 35 199 17 76
27 142 22 147 -4 4 -48 9 -98 12 -124 5 -315 44 -308 63 3 8 12 14 19 14 8 0
19 12 25 27 6 15 15 31 21 34 8 5 5 13 -7 26 -17 16 -17 18 -2 21 9 2 17 7 17
12 0 5 -9 7 -21 5 -16 -3 -19 -1 -14 13 4 9 9 26 12 37 2 11 -5 0 -15 -25 -11
-25 -25 -72 -32 -105 -7 -33 -23 -71 -35 -85 -13 -15 -26 -46 -30 -74 -4 -29
-10 -44 -14 -37 -6 9 -10 9 -18 -1 -18 -23 -22 -45 -7 -45 7 0 11 4 8 9 -3 4
0 8 7 8 7 0 9 -8 5 -22 -4 -13 -8 -35 -10 -50 -5 -62 -35 -38 -38 31 -2 44 -5
51 -20 47 -11 -2 -18 1 -18 10 0 8 -7 14 -16 14 -11 0 -14 8 -12 28 2 19 9 27
22 27 10 0 22 10 27 22 7 19 3 23 -24 31 -18 6 -85 15 -149 22 -98 10 -118 15
-123 30 -12 39 73 407 99 429 8 7 35 6 81 -2 39 -6 109 -11 157 -12 76 0 89 3
102 20 9 11 16 30 16 43 0 13 6 22 15 22 8 0 15 -4 15 -10 0 -5 7 -10 16 -10
12 0 14 7 9 33 -9 42 -7 39 -57 73 -24 16 -51 39 -60 50 -29 36 -65 36 -120 0
-26 -17 -48 -36 -48 -42 0 -7 -11 -15 -25 -18 -13 -3 -32 -20 -40 -36 -9 -17
-19 -30 -24 -30 -15 0 0 43 26 73 14 18 23 42 23 62 0 32 20 60 27 38 5 -13
43 -5 43 8 0 5 5 9 10 9 6 0 33 18 60 39 28 22 59 42 69 46 39 12 33 37 -21
88 -29 27 -79 67 -110 88 -32 22 -58 44 -58 49 0 17 -70 80 -88 80 -10 0 -47
-15 -82 -34 l-64 -34 -18 41 c-14 30 -21 38 -30 29 -8 -8 -19 -7 -42 5 -17 10
-36 18 -43 19 -6 1 -28 15 -48 30 -39 29 -40 39 -19 113 5 16 3 22 -3 18 -6
-4 -13 -25 -17 -47 -4 -23 -15 -53 -26 -68 -16 -23 -20 -58 -30 -221 -9 -156
-16 -208 -35 -270 -29 -89 -31 -113 -10 -105 8 4 15 12 15 20 0 8 4 14 10 14
5 0 7 7 3 16 -3 9 3 21 16 31 12 8 20 21 17 29 -3 8 1 14 9 14 8 0 15 -4 15
-10 0 -5 5 -10 10 -10 6 0 10 7 10 15 0 21 24 19 82 -7 49 -23 50 -24 45 -61
-6 -46 -13 -55 -29 -39 -19 19 -48 14 -48 -8 0 -11 3 -19 8 -19 40 7 50 -2 55
-47 7 -68 0 -87 -34 -82 -35 5 -49 -20 -22 -39 48 -35 53 -42 47 -75 -10 -59
-12 -61 -36 -44 -12 9 -29 16 -37 16 -17 0 -57 42 -66 70 -5 17 -12 20 -35 15
-19 -4 -37 -1 -54 11 -21 13 -29 14 -41 4 -8 -7 -15 -19 -15 -27 0 -11 -53
-117 -66 -132 -2 -3 -14 5 -27 16 -12 11 -28 18 -34 16 -7 -3 -13 0 -13 6 0 6
-7 11 -15 11 -8 0 -15 7 -15 15 0 12 -7 14 -27 11 -16 -2 -28 -5 -28 -6 0 -1
-12 -4 -27 -6 -16 -1 -28 2 -28 8 0 6 -2 9 -5 6 -9 -8 6 -38 16 -32 10 6 12
-9 2 -19 -3 -4 -13 -1 -22 7 -21 19 -29 20 -47 1 -23 -22 -34 -18 -41 15 -7
38 -29 33 -26 -6 l2 -29 -13 24 c-11 20 -14 21 -19 6 -4 -9 -7 -29 -7 -43 0
-19 -3 -23 -9 -13 -10 15 -20 4 -26 -28 -3 -15 8 -26 41 -45 55 -31 89 -42 80
-27 -4 6 2 23 13 37 19 24 27 20 21 -11 -2 -10 28 -35 43 -35 4 0 5 5 2 11 -4
6 2 13 14 16 12 3 21 12 21 19 0 17 36 54 53 54 8 0 7 4 -3 10 -8 5 -13 10
-10 11 28 5 52 4 56 -3 3 -4 1 -8 -5 -8 -6 0 -8 -6 -5 -14 3 -7 -2 -21 -11
-30 -9 -9 -14 -20 -10 -26 6 -10 43 9 81 42 21 19 21 19 17 -7 -3 -14 -9 -28
-14 -31 -5 -3 -9 -16 -9 -29 0 -14 -9 -47 -19 -75 -11 -28 -17 -59 -14 -69 6
-25 -14 -88 -31 -94 -6 -3 -43 9 -82 27 -38 18 -124 54 -192 81 -121 49 -123
51 -118 78 3 15 9 40 12 57 3 16 16 36 28 44 14 8 41 59 70 128 45 105 78 165
62 111 -6 -18 -3 -22 14 -20 12 1 20 8 20 20 0 10 9 21 20 24 11 3 20 12 20
20 0 8 5 11 10 8 20 -13 9 14 -12 29 l-22 16 22 0 c12 0 22 5 22 11 0 6 6 9
13 6 6 -2 12 -12 12 -22 0 -10 6 -20 13 -23 6 -2 12 1 12 7 0 6 7 11 16 11 26
0 2 22 -55 50 -28 14 -53 31 -55 37 -5 13 121 411 135 427 4 5 26 -1 49 -13
49 -25 45 -25 47 -1 1 11 -7 25 -18 30 -15 9 -19 7 -20 -7 0 -10 -3 -13 -5 -6
-3 6 -1 28 5 47 5 22 6 38 0 42 -11 6 -12 48 -1 58 4 4 7 18 8 29 2 71 5 78
29 89 29 13 34 29 8 23 -19 -3 -19 -2 -21 190 -1 75 1 82 27 110 16 16 34 41
41 55 7 14 40 63 73 110 33 46 71 105 84 130 25 44 25 45 18 10 -4 -19 -11
-39 -16 -44 -15 -16 -11 -46 5 -40 8 3 29 -3 48 -13 18 -9 40 -18 48 -19 20
-2 139 -44 165 -57 11 -6 30 -10 43 -8 12 1 22 -2 22 -8 0 -6 13 -11 29 -11
17 0 32 -4 36 -10 3 -5 12 -7 20 -3 8 3 15 1 15 -4 0 -5 21 -10 48 -12 26 -1
48 -6 50 -11 2 -6 12 -5 25 1 16 9 23 8 31 -2 8 -10 42 -14 131 -15 118 -1
200 -9 220 -22 12 -8 26 -11 85 -18 25 -3 50 -10 57 -16 7 -5 16 -7 20 -5 5 3
33 -3 63 -14 30 -10 61 -19 70 -19 8 0 28 -7 44 -15 16 -9 31 -13 33 -11 3 2
24 -2 46 -11 23 -8 56 -17 72 -19 17 -3 68 -14 115 -26 47 -11 101 -22 120
-24 19 -3 42 -8 50 -11 8 -3 18 -6 22 -5 4 1 20 -3 35 -9 24 -9 72 -20 150
-33 12 -2 26 -7 32 -10 5 -3 49 -13 98 -21 48 -9 95 -18 103 -22 17 -7 32 -10
79 -18 19 -3 37 -8 40 -13 3 -4 17 -8 31 -10 14 -2 59 -12 101 -23 42 -10 85
-20 95 -22 10 -2 50 -13 88 -25 37 -12 78 -22 90 -22 12 0 42 -6 67 -14 24 -8
89 -22 144 -31 55 -10 109 -20 120 -22 11 -3 32 -7 48 -10 l27 -5 0 250 0 250
-67 15 c-38 9 -90 19 -118 23 -27 3 -54 10 -60 14 -5 4 -26 10 -45 13 -19 3
-120 24 -225 45 -108 22 -209 37 -235 35 -25 -2 -55 -3 -67 -3 -13 0 -23 -4
-23 -9 0 -5 -30 -9 -66 -8 -36 1 -68 -3 -72 -8 -8 -11 -35 -14 -147 -15 -203
-2 -540 105 -648 206 -73 68 -150 189 -160 249 -1 11 -6 26 -10 32 -15 24 -20
199 -7 254 23 99 85 205 174 299 14 14 30 48 36 75 6 28 20 66 31 86 10 20 19
44 19 52 0 8 7 17 15 21 8 3 15 10 15 16 0 6 10 21 23 33 30 29 53 79 68 150
7 35 17 57 26 57 21 0 20 74 -2 127 -7 17 -19 65 -25 106 -10 69 -9 78 11 121
11 25 25 46 29 46 4 0 22 22 41 48 45 66 87 85 172 78 83 -7 112 -14 160 -38
20 -10 37 -16 37 -13 0 4 20 -8 45 -26 25 -18 45 -36 45 -40 0 -4 6 -14 14
-21 7 -8 21 -30 31 -48 10 -19 21 -37 25 -40 36 -25 170 -156 203 -200 23 -30
49 -62 58 -71 15 -15 39 -98 39 -134 0 -8 4 -15 10 -15 5 0 7 -8 3 -17 -3 -10
-3 -15 1 -11 4 3 16 -2 27 -13 24 -24 25 -77 2 -94 -16 -12 -16 -16 -3 -41 12
-21 16 -23 18 -10 3 16 5 16 15 1 10 -13 16 -14 40 -3 16 8 25 19 22 27 -3 9
0 11 10 7 29 -11 95 75 76 98 -7 9 -7 16 2 26 10 10 9 12 -5 7 -21 -8 -23 2
-5 27 14 20 13 84 -3 130 -22 63 -3 169 28 158 6 -2 12 1 12 6 0 5 18 3 42 -5
34 -11 43 -12 49 -1 6 9 9 6 9 -9 0 -17 6 -23 21 -23 15 0 19 -5 15 -15 -3 -9
3 -19 15 -26 11 -5 19 -15 17 -21 -4 -11 58 -78 72 -78 7 0 22 -42 26 -75 0
-5 6 -21 11 -35 6 -14 9 -29 6 -33 -3 -4 -5 -29 -5 -54 0 -25 -7 -57 -15 -70
-14 -21 -13 -26 6 -63 12 -22 21 -45 21 -51 0 -17 40 -51 108 -93 9 -6 12 115
12 588 l0 596 -1286 0 c-1232 0 -1287 -1 -1303 -18 -9 -10 -25 -22 -35 -25
-10 -4 -16 -10 -13 -14 3 -3 -1 -20 -10 -37 -9 -17 -16 -40 -14 -52 1 -13 -7
-27 -24 -38 -14 -9 -24 -20 -21 -24 6 -11 -54 -13 -74 -2 -13 7 -20 6 -24 -6
-9 -22 -8 -24 11 -24 16 0 16 -1 0 -12 -15 -12 -23 -47 -29 -135 -2 -26 -7
-33 -23 -34 -19 0 -19 -1 2 -9 24 -10 22 -34 -3 -44 -8 -3 -14 -15 -14 -27 0
-15 -4 -19 -16 -15 -8 3 -12 2 -9 -3 3 -5 1 -13 -5 -16 -12 -8 -65 23 -56 33
3 3 -1 16 -9 28 -12 18 -12 22 -2 18 21 -7 17 27 -5 51 -17 17 -17 20 -4 23
25 5 19 32 -6 33 -22 0 -22 1 -3 9 18 7 19 8 3 15 -12 5 -18 18 -18 36 0 21
-6 32 -22 39 -13 5 -17 9 -10 9 6 1 12 7 12 15 0 8 8 17 18 19 14 4 13 6 -6
12 -18 6 -20 10 -10 16 10 7 10 9 1 9 -7 0 -13 7 -13 16 0 10 -5 14 -16 10 -8
-3 -12 -2 -9 4 3 6 1 10 -4 10 -6 0 -11 5 -11 10 0 6 11 10 24 10 14 0 27 4
30 9 8 13 -44 32 -67 25 -16 -5 -19 -3 -14 10 4 10 1 16 -9 16 -8 0 -12 5 -9
10 3 6 -1 10 -9 10 -9 0 -16 7 -16 15 0 13 -155 15 -1337 15 -1338 0 -1338 0
-1313 -20z m-126 -475 c11 -8 15 -15 10 -15 -6 0 -19 7 -30 15 -10 8 -14 14
-9 14 6 0 19 -6 29 -14z m3023 -78 c0 -16 -2 -25 -6 -20 -3 5 -15 15 -26 21
-11 6 -14 12 -7 12 7 0 11 4 8 8 -2 4 3 8 12 8 12 0 18 -9 19 -29z m-27 -17
c8 -5 11 -12 8 -15 -4 -4 -17 0 -30 9 -24 17 -5 23 22 6z m30 -29 c0 -5 -7
-17 -16 -25 -14 -15 -13 -16 8 -17 13 0 17 -3 10 -6 -6 -2 -9 -10 -5 -16 4 -7
-2 -5 -12 3 -10 8 -16 10 -12 3 4 -6 3 -14 -3 -18 -6 -4 -8 -12 -4 -18 3 -7
-2 -3 -10 7 -9 11 -16 29 -16 40 0 17 2 18 10 6 8 -12 10 -11 10 8 0 13 6 22
15 22 8 0 15 5 15 10 0 6 2 10 5 10 3 0 5 -4 5 -9z m-13 -103 c-3 -8 -6 -5 -6
6 -1 11 2 17 5 13 3 -3 4 -12 1 -19z m-2787 -242 c9 -15 3 -12 -19 8 -17 17
-31 31 -31 33 0 9 39 -23 50 -41z m5120 24 c0 -5 -4 -10 -10 -10 -5 0 -10 5
-10 10 0 6 5 10 10 10 6 0 10 -4 10 -10z m-5341 -33 c0 -9 -2 -8 -6 1 -2 6
-10 9 -15 6 -7 -4 -8 -2 -4 5 9 13 26 5 25 -12z m589 -422 c-3 -3 -9 2 -12 12
-6 14 -5 15 5 6 7 -7 10 -15 7 -18z m-63 -75 c3 -5 2 -10 -4 -10 -5 0 -13 5
-16 10 -3 6 -2 10 4 10 5 0 13 -4 16 -10z m-182 -13 c-3 -4 -7 -6 -11 -3 -3 3
-10 -1 -16 -10 -7 -9 -18 -13 -30 -8 -17 6 -16 8 5 20 27 14 61 15 52 1z
m2565 -96 c3 -8 0 -11 -7 -7 -6 4 -11 2 -11 -3 0 -6 -13 -11 -28 -11 -16 0
-34 -8 -42 -20 -8 -11 -18 -20 -22 -20 -11 0 21 51 41 68 20 16 63 12 69 -7z
m-2435 -398 c4 -3 2 -12 -4 -19 -6 -8 -9 -21 -5 -29 4 -11 2 -14 -6 -9 -8 5
-9 1 -4 -12 4 -10 4 -15 0 -11 -4 4 -14 1 -22 -6 -13 -10 -15 -9 -9 7 6 15 4
17 -13 13 -11 -3 -20 -1 -20 3 0 5 13 11 29 15 20 4 28 12 26 23 -4 28 12 42
28 25z m261 -88 c20 -9 34 -20 31 -25 -3 -6 -2 -10 4 -10 16 0 22 18 9 23 -7
2 -11 7 -8 9 3 3 23 -1 45 -8 23 -8 28 -11 12 -8 -24 4 -27 3 -15 -10 7 -7 16
-12 21 -9 4 2 7 0 7 -5 0 -5 14 -7 30 -4 35 5 38 17 10 32 -11 6 -18 15 -15
20 5 8 65 -42 65 -53 0 -3 -9 -7 -21 -10 -14 -4 -18 -10 -13 -18 6 -10 9 -10
12 -1 2 7 8 12 13 12 4 0 6 -7 3 -15 -4 -9 1 -18 12 -22 17 -6 16 -8 -6 -13
-14 -4 -28 -2 -32 4 -6 8 -11 7 -17 -3 -5 -7 -14 -10 -20 -7 -6 4 -11 2 -11
-4 0 -6 -7 -4 -17 5 -12 12 -26 15 -51 11 -19 -3 -44 0 -55 6 -16 8 -23 7 -34
-8 -14 -18 -14 -18 -11 1 2 14 -2 19 -14 17 -10 -2 -18 2 -18 8 0 6 -4 9 -9 6
-5 -3 -12 1 -15 10 -4 11 -2 15 7 11 8 -3 14 1 14 9 0 9 -8 12 -24 8 -16 -5
-23 -2 -23 9 0 10 7 13 19 10 10 -3 22 0 26 7 4 7 11 8 18 2 7 -6 20 -6 32 -1
18 9 18 9 -2 5 -15 -3 -23 1 -23 10 0 18 19 18 64 -1z m-324 -9 c0 -2 -7 -7
-16 -10 -8 -3 -12 -2 -9 4 6 10 25 14 25 6z m574 -101 c-7 -16 -24 -21 -24 -6
0 8 7 13 27 20 1 1 0 -6 -3 -14z m-174 -15 c0 -5 -4 -10 -9 -10 -6 0 -13 5
-16 10 -3 6 1 10 9 10 9 0 16 -4 16 -10z m130 -10 c0 -5 -5 -10 -11 -10 -5 0
-7 5 -4 10 3 6 8 10 11 10 2 0 4 -4 4 -10z m-730 -280 c0 -5 -5 -10 -11 -10
-5 0 -7 5 -4 10 3 6 8 10 11 10 2 0 4 -4 4 -10z m35 -28 c-3 -3 -11 0 -18 7
-9 10 -8 11 6 5 10 -3 15 -9 12 -12z m205 -2 c0 -5 -5 -10 -11 -10 -5 0 -7 5
-4 10 3 6 8 10 11 10 2 0 4 -4 4 -10z m-170 -41 c-9 -15 -7 -19 5 -19 8 0 15
-4 15 -9 0 -9 -68 -7 -77 2 -2 3 4 8 15 11 11 4 22 16 25 27 3 12 10 18 16 14
8 -4 8 -12 1 -26z m60 11 c-7 -4 -9 -13 -6 -19 4 -6 0 -11 -9 -11 -9 0 -14 3
-12 8 2 4 7 15 10 25 4 10 12 15 18 11 8 -5 8 -9 -1 -14z m2214 -377 c-8 -33
-12 -39 -20 -30 -9 9 5 57 16 57 6 0 8 -11 4 -27z m-2030 -285 c52 -31 76 -61
76 -93 0 -36 -66 -4 -99 48 -11 18 -28 42 -37 55 -23 31 -5 28 60 -10z m143
-70 c29 -13 52 -36 53 -52 0 -10 -81 1 -93 14 -8 7 -1 50 8 50 2 0 17 -6 32
-12z m2852 -73 c11 -19 31 -39 45 -45 33 -12 41 -28 26 -54 -14 -28 -49 -24
-78 8 -26 28 -39 126 -16 126 1 0 11 -16 23 -35z m-1149 -140 c0 -8 -2 -15 -4
-15 -2 0 -6 7 -10 15 -3 8 -1 15 4 15 6 0 10 -7 10 -15z m-1913 -27 c2 6 11
12 20 12 8 0 13 -6 11 -12 -6 -18 -50 -16 -55 2 -4 13 -3 13 7 0 9 -11 13 -12
17 -2z m1701 -296 c2 -6 -5 -8 -18 -5 -29 8 -36 24 -9 20 13 -2 25 -9 27 -15z
m182 -12 c0 -5 -5 -10 -11 -10 -5 0 -7 5 -4 10 3 6 8 10 11 10 2 0 4 -4 4 -10z
m-1462 -32 c18 -18 15 -35 -8 -41 -12 -3 -20 -14 -20 -26 0 -27 -23 -26 -75 2
-49 27 -57 64 -12 59 15 -2 35 2 45 7 23 14 56 13 70 -1z m-239 -65 c12 -14
19 -28 17 -30 -9 -9 -76 27 -76 41 0 25 37 18 59 -11z m1169 -65 c-5 -14 -128
-62 -128 -50 0 7 105 59 123 61 5 1 7 -5 5 -11z m812 -48 c9 0 23 -6 29 -14 6
-8 26 -20 43 -27 27 -11 29 -14 12 -20 -10 -3 -23 -4 -29 0 -5 3 -21 7 -35 7
-14 1 -25 3 -25 4 0 1 -8 3 -18 5 -25 5 -34 15 -14 15 10 0 17 8 17 18 0 14
-2 15 -10 2 -11 -18 -13 -9 -3 16 4 11 8 13 11 6 2 -7 12 -12 22 -12z m-788
-17 c-6 -2 -10 -8 -7 -12 8 -14 -153 -151 -176 -151 -5 0 -9 11 -9 24 0 19 18
36 93 85 50 33 97 60 102 60 6 0 4 -3 -3 -6z m1396 -250 c6 -9 6 -24 2 -32
-13 -27 -29 -81 -23 -81 2 0 13 5 24 10 14 8 19 8 17 -1 -4 -15 29 -24 118
-32 71 -7 71 -7 69 17 -2 14 -6 30 -10 35 -3 6 -1 11 4 11 6 0 11 -6 11 -12 0
-10 2 -10 9 0 13 21 21 -112 11 -171 -6 -29 -16 -105 -23 -170 l-12 -117 -155
-7 c-288 -12 -283 -12 -294 19 -7 19 -4 56 7 125 10 54 24 139 33 188 9 55 22
98 34 110 10 11 21 30 25 43 6 20 8 21 18 8 11 -14 15 -12 32 14 21 31 45 47
45 30 0 -6 7 -10 15 -10 8 0 15 9 15 20 0 24 16 26 28 3z m242 7 c0 -5 -2 -10
-4 -10 -3 0 -8 5 -11 10 -3 6 -1 10 4 10 6 0 11 -4 11 -10z m-2129 -56 c123
-84 118 -72 74 -167 -48 -102 -60 -117 -100 -117 -59 0 -67 21 -63 167 1 70
-1 138 -5 151 -12 33 2 28 94 -34z m1000 26 c57 -6 137 -15 177 -22 l72 -11 0
-33 c0 -18 -4 -77 -10 -131 -5 -54 -12 -133 -16 -175 -7 -93 -14 -97 -111 -70
-104 30 -213 60 -259 72 -23 5 -44 16 -46 23 -5 12 5 178 17 295 l7 62 33 0
c18 0 79 -5 136 -10z m-671 -19 c0 -5 -8 -11 -19 -14 -12 -3 -20 -18 -25 -48
-4 -24 -12 -49 -18 -56 -8 -10 -4 -14 18 -19 41 -8 60 -25 67 -59 10 -52 0
-56 -83 -39 -55 12 -79 13 -92 5 -23 -14 -58 -14 -58 0 0 5 -5 7 -12 3 -8 -5
-9 -2 -5 10 4 10 7 22 7 28 0 13 146 155 185 179 35 22 35 22 35 10z m4117
-33 c-3 -8 -6 -5 -6 6 -1 11 2 17 5 13 3 -3 4 -12 1 -19z m-678 -51 c6 -8 8
-17 4 -20 -12 -12 -23 -7 -24 11 -1 15 -2 15 -6 0 -2 -9 -11 -19 -19 -22 -8
-3 -13 -2 -11 2 2 4 7 15 10 25 8 20 30 22 46 4z m-2116 -22 c4 -8 2 -17 -3
-20 -6 -4 -10 3 -10 14 0 25 6 27 13 6z m2114 -77 c-3 -7 -5 -2 -5 12 0 14 2
19 5 13 2 -7 2 -19 0 -25z m-75 -346 c87 -57 160 -107 163 -112 10 -16 -163
-218 -262 -305 l-42 -36 -28 19 c-15 10 -67 43 -115 72 -48 30 -102 68 -121
84 -31 28 -34 34 -26 61 5 17 56 91 114 165 140 179 134 172 148 163 6 -4 83
-54 169 -111z m-5051 82 c24 -8 87 -17 139 -20 52 -2 107 -6 122 -10 33 -7 60
-57 62 -111 1 -30 -4 -40 -26 -52 -26 -15 -29 -15 -51 9 -31 32 -76 70 -83 70
-3 0 -18 8 -32 18 -15 11 -73 32 -129 48 -75 21 -103 33 -103 45 0 32 20 32
101 3z m961 -35 c25 -13 48 -68 48 -114 0 -49 -38 -215 -56 -242 -19 -30 -59
-40 -79 -20 -8 9 -25 19 -38 23 -91 28 -157 124 -157 230 0 30 -5 65 -11 76
-8 15 -8 23 1 32 20 21 258 33 292 15z m646 -153 c26 -8 59 -17 74 -20 38 -9
48 -53 48 -223 0 -199 -4 -202 -212 -157 -37 8 -86 14 -110 15 -66 2 -91 12
-111 46 -15 27 -16 38 -7 73 6 23 12 82 14 131 2 61 7 94 17 104 16 16 135 42
197 44 24 1 64 -5 90 -13z m1792 -121 c0 -16 -6 -25 -15 -25 -8 0 -15 -6 -16
-12 0 -10 -2 -10 -6 0 -2 6 -13 12 -24 12 -10 0 -19 4 -19 9 0 5 9 7 20 4 12
-3 20 0 20 6 0 7 5 9 10 6 6 -3 10 1 10 9 0 9 5 16 10 16 6 0 10 -11 10 -25z
m-1195 -5 c39 -15 150 -32 255 -39 l94 -6 9 -40 c12 -57 1 -283 -15 -302 -11
-13 -28 -15 -108 -9 -95 7 -129 13 -228 44 -66 21 -79 43 -77 132 1 36 -2 95
-7 132 -4 38 -5 75 -2 83 7 17 41 19 79 5z m1016 -63 c-15 -15 -21 -5 -14 22
5 21 7 21 16 6 6 -11 5 -21 -2 -28z m-104 -31 c48 -14 132 -38 185 -55 92 -30
97 -33 104 -64 11 -51 8 -209 -6 -265 -16 -69 -26 -76 -110 -70 -48 4 -78 1
-96 -8 -14 -8 -35 -14 -46 -14 -10 0 -16 -4 -13 -10 3 -5 -3 -10 -14 -10 -11
0 -22 -4 -26 -10 -3 -5 -12 -7 -19 -4 -8 3 -17 1 -21 -5 -3 -6 -19 -11 -35
-11 -16 0 -33 -6 -37 -14 -4 -7 -19 -17 -32 -21 -23 -7 -24 -5 -18 27 8 55 58
127 87 128 24 1 24 2 4 10 -34 13 -38 28 -43 135 -8 199 -7 251 8 268 17 22
23 22 128 -7z m2520 -70 c60 -35 127 -73 151 -85 23 -12 42 -26 42 -32 0 -38
-122 -252 -166 -290 -32 -29 -122 -62 -148 -55 -31 8 -121 70 -184 126 -45 41
-48 48 -36 64 11 15 16 17 28 7 12 -10 15 -9 13 7 0 11 -6 18 -13 15 -25 -9
68 149 132 226 37 44 69 81 71 81 1 0 51 -29 110 -64z m-5418 28 c119 -7 145
-16 166 -61 14 -29 15 -44 6 -96 -6 -34 -13 -98 -17 -142 -9 -122 -39 -138
-164 -84 -79 34 -156 84 -176 114 -16 24 -16 37 -5 138 14 131 28 161 68 146
14 -5 69 -12 122 -15z m658 -51 c-3 -10 -5 -4 -5 12 0 17 2 24 5 18 2 -7 2
-21 0 -30z m-17 -3 c0 -5 -4 -10 -10 -10 -5 0 -10 5 -10 10 0 6 5 10 10 10 6
0 10 -4 10 -10z m3178 -46 c41 -12 193 -31 265 -34 5 0 5 -15 1 -32 -3 -18 -8
-85 -9 -148 -1 -63 -5 -126 -10 -139 -7 -22 -11 -23 -64 -18 -58 5 -221 63
-221 79 0 5 12 13 27 19 19 7 23 13 15 18 -9 5 -5 11 13 19 14 6 25 16 25 22
0 5 8 10 17 10 9 0 14 3 11 6 -4 3 -50 -6 -105 -20 -164 -41 -151 -41 -158 -3
-6 30 11 222 21 238 5 9 115 -1 172 -17z m-3311 -104 c24 -16 47 -30 50 -30
18 0 131 -57 147 -75 45 -49 50 -65 54 -185 l4 -117 -35 -16 c-45 -22 -91 -21
-160 2 -119 39 -168 95 -179 205 -4 39 -7 103 -7 141 -1 66 1 71 27 87 38 23
48 22 99 -12z m3288 -130 c3 -5 1 -10 -4 -10 -6 0 -11 5 -11 10 0 6 2 10 4 10
3 0 8 -4 11 -10z m-2655 -99 c19 -6 49 -12 65 -15 17 -2 77 -12 135 -22 147
-24 156 -33 153 -159 -3 -116 -35 -264 -60 -283 -19 -15 -28 -14 -213 13 -58
9 -121 18 -140 20 -23 2 -43 14 -59 32 -23 26 -23 32 -17 128 9 152 27 247 49
273 23 24 35 26 87 13z m1150 -63 c0 -6 -12 -27 -27 -47 -17 -22 -26 -45 -25
-61 4 -38 -32 -80 -69 -80 -39 0 -37 -13 6 -33 39 -19 41 -28 28 -146 -5 -54
-9 -64 -30 -72 -19 -7 -31 -4 -56 15 -18 13 -57 31 -87 41 -81 25 -117 75 -90
125 16 30 -4 32 -41 4 -22 -16 -44 -24 -64 -22 -44 4 -44 37 -1 94 20 26 36
55 36 64 0 10 10 29 21 44 20 26 26 27 98 25 83 -1 181 9 181 21 0 11 48 30
75 30 14 0 25 5 25 11 0 5 5 7 10 4 6 -3 10 -11 10 -17z m775 -186 c35 -6 40
-11 43 -37 5 -42 -17 -175 -33 -199 -8 -12 -17 -50 -21 -86 -11 -105 -9 -103
-127 -95 -56 4 -118 13 -137 20 -129 48 -156 59 -167 67 -19 15 -14 135 7 182
10 23 26 66 35 96 9 30 22 59 29 63 12 8 306 -1 371 -11z m1691 -7 c9 -14 15
-27 13 -29 -12 -11 -103 -45 -107 -41 -12 12 48 95 68 95 5 0 17 -11 26 -25z
m-3000 -52 c-9 -48 -37 -71 -49 -40 -3 7 -6 5 -6 -5 -1 -13 -9 -18 -31 -18
-41 0 -38 21 8 52 45 31 84 36 78 11z m1834 -63 c36 -11 136 -14 181 -5 37 7
190 -21 201 -37 4 -7 5 -24 2 -38 -3 -14 -19 -94 -34 -178 -16 -84 -34 -160
-40 -168 -18 -21 -106 -18 -158 6 -27 12 -54 17 -68 14 -14 -4 -44 0 -67 9
-23 8 -58 18 -79 21 -44 8 -48 17 -48 110 0 59 4 78 21 100 12 16 24 52 30 92
8 58 15 84 22 84 1 0 18 -5 37 -10z m-2755 -95 c15 -14 25 -36 25 -52 0 -19
10 -36 32 -54 32 -26 32 -27 18 -68 -9 -29 -19 -41 -32 -41 -24 0 -78 58 -71
76 8 20 -45 10 -105 -20 -28 -14 -59 -26 -69 -26 -32 1 -63 37 -88 103 -32 87
-23 102 55 89 37 -5 70 -4 100 4 73 20 108 17 135 -11z m4581 -24 l24 -19 -40
1 c-37 2 -50 14 -33 30 11 11 23 8 49 -12z m-4076 -191 c0 -5 5 -10 11 -10 5
0 7 5 4 10 -3 6 -1 10 4 10 6 0 11 -6 11 -14 0 -8 4 -18 10 -21 6 -3 7 1 4 9
-5 12 1 16 25 16 35 0 45 -14 61 -85 18 -79 -25 -101 -90 -45 -59 52 -154 90
-210 85 -28 -3 -40 0 -40 10 0 19 30 27 36 10 8 -19 24 -20 24 -2 0 9 15 14
43 15 23 1 44 7 45 12 5 13 62 13 62 0z m576 -44 c27 -12 60 -26 74 -29 14 -3
51 -22 84 -42 32 -19 62 -35 66 -35 5 0 18 -12 29 -26 19 -24 21 -40 21 -155
l0 -128 -30 -16 c-27 -14 -34 -13 -87 6 -32 12 -60 25 -63 28 -11 14 -57 38
-85 45 -56 14 -94 37 -103 64 -5 15 -7 86 -5 157 4 103 8 133 21 143 21 16 20
16 78 -12z m2694 -133 c-6 -10 -22 -36 -35 -58 -28 -45 -33 -40 -9 8 16 31 43
67 51 67 2 0 -1 -8 -7 -17z m-1930 -120 c54 -32 70 -36 135 -39 77 -2 138 -18
168 -43 20 -17 22 -83 6 -228 -8 -70 -15 -100 -27 -109 -21 -16 -60 -10 -172
22 -47 14 -112 31 -144 37 -91 18 -95 29 -87 210 6 141 7 150 30 168 13 10 25
19 26 19 2 0 31 -16 65 -37z m-1352 -56 c7 -5 11 -21 10 -34 -3 -21 4 -27 42
-40 52 -18 60 -26 60 -70 0 -39 -3 -39 -57 -13 -40 19 -85 70 -62 70 18 0 2
13 -19 15 -36 3 -60 24 -55 47 12 48 41 57 81 25z m2162 -103 c14 -4 38 -17
53 -30 16 -13 35 -24 43 -24 25 0 15 -15 -24 -32 -127 -57 -140 -61 -152 -38
-27 51 0 147 39 136 9 -2 27 -8 41 -12z m1475 -34 c3 -5 1 -10 -4 -10 -6 0
-11 5 -11 10 0 6 2 10 4 10 3 0 8 -4 11 -10z m84 -84 c16 -1 26 -5 22 -9 -15
-15 -53 -2 -68 23 -14 23 -14 24 1 6 8 -10 29 -19 45 -20z m55 -87 c-3 -5 -11
-6 -17 -3 -9 5 -9 4 0 -6 16 -17 -1 -62 -35 -91 -26 -23 -70 -53 -136 -93 -29
-19 -89 -16 -102 5 -7 12 25 50 40 47 6 -1 34 6 61 15 37 13 67 34 114 82 34
36 67 63 72 59 5 -3 7 -10 3 -15z m-3180 -8 c17 -10 49 -22 70 -26 48 -8 184
-78 208 -106 13 -16 16 -32 12 -67 -7 -57 -33 -122 -49 -122 -25 0 -167 49
-199 69 -18 12 -41 21 -50 21 -23 0 -33 30 -46 139 -10 77 -10 95 1 102 18 11
17 12 53 -10z m3171 -211 c-3 -5 -10 -10 -16 -10 -5 0 -9 5 -9 10 0 6 7 10 16
10 8 0 12 -4 9 -10z m-1338 -32 c-3 -8 -6 -5 -6 6 -1 11 2 17 5 13 3 -3 4 -12
1 -19z m-932 -78 c129 -10 141 -19 144 -99 1 -50 1 -51 -29 -52 -16 -1 -34 -3
-40 -4 -5 -1 -16 -3 -24 -4 -7 0 -16 -11 -19 -22 -6 -21 -9 -21 -119 -14 -87
5 -115 11 -125 23 -18 24 -26 95 -18 148 l7 47 56 -7 c31 -4 106 -11 167 -16z
m1435 10 c0 -5 -4 -10 -8 -10 -5 0 -35 -25 -68 -55 -53 -50 -60 -54 -71 -38
-14 19 -17 61 -5 80 4 7 19 16 32 22 33 13 120 14 120 1z m208 -20 c-7 -11
-17 -20 -22 -20 -5 0 -1 9 9 20 10 11 20 20 22 20 2 0 -2 -9 -9 -20z m-2921
-53 c2 -3 5 -42 4 -60 -2 -27 -40 -18 -64 15 -17 23 -18 30 -7 43 9 11 22 14
39 10 14 -4 27 -7 28 -8z m429 -205 c5 -5 36 -15 69 -22 95 -20 125 -35 125
-64 0 -51 -23 -59 -144 -53 -117 6 -158 22 -164 64 -7 45 82 103 114 75z
m1707 2 c3 -3 1 -18 -4 -34 -9 -24 -7 -32 16 -54 43 -44 13 -72 -97 -91 -21
-3 -38 -3 -38 0 0 12 27 50 55 77 l30 30 -28 -7 c-15 -3 -58 -19 -95 -36 -37
-17 -91 -42 -120 -56 -55 -25 -86 -25 -76 0 10 27 98 81 209 129 106 46 135
54 148 42z m1313 -89 c10 -8 29 -15 42 -15 16 0 22 -6 22 -24 0 -13 -7 -27
-16 -30 -29 -11 -75 -6 -80 9 -4 8 -10 12 -15 10 -5 -3 -11 6 -15 21 -10 40
25 57 62 29z m-1106 -26 c-7 -11 -14 -18 -17 -15 -8 8 5 36 17 36 7 0 7 -6 0
-21z m1249 -11 c11 -11 14 -10 19 1 5 16 32 -41 32 -70 0 -36 -42 -21 -77 26
-17 24 -29 46 -26 49 10 10 38 7 52 -6z m-2396 -50 c19 -7 27 -17 27 -34 0
-13 -3 -24 -7 -24 -5 0 -44 -7 -88 -14 -85 -15 -105 -10 -105 26 0 10 11 30
24 43 21 21 31 23 73 19 26 -3 60 -10 76 -16z m872 -58 c-3 -5 -10 -10 -16
-10 -5 0 -9 5 -9 10 0 6 7 10 16 10 8 0 12 -4 9 -10z m-131 -9 c3 -5 -5 -12
-19 -15 -45 -11 -26 -25 30 -22 40 2 55 0 55 -10 0 -8 -6 -11 -15 -8 -18 7
-81 -52 -86 -81 -3 -11 -13 -21 -23 -23 -10 -2 -16 0 -13 5 4 5 0 10 -8 10 -8
0 -12 -4 -9 -9 3 -4 0 -8 -5 -8 -11 0 -14 9 -13 50 l1 25 -11 -27 c-11 -27
-28 -38 -28 -19 0 5 -9 13 -20 16 -11 3 -20 14 -20 23 0 15 2 15 11 2 9 -12
10 -11 6 8 -3 12 -1 19 4 16 5 -3 12 3 16 12 6 16 7 16 14 -2 7 -18 8 -18 8 2
1 31 11 35 34 14 11 -11 25 -16 31 -12 7 4 4 8 -6 10 -26 5 -22 15 15 34 38
20 44 21 51 9z m31 0 c3 -5 1 -12 -5 -16 -5 -3 -10 1 -10 9 0 18 6 21 15 7z
m-1327 -50 c8 -23 6 -30 -9 -39 -28 -18 -40 -15 -71 15 -38 36 -36 51 10 55
51 4 59 1 70 -31z m746 -4 c23 -17 14 -51 -19 -73 -49 -32 -337 -86 -365 -69
-17 11 -6 54 22 84 27 28 47 33 223 60 89 13 119 12 139 -2z m381 -96 c-3 -6
-18 -11 -33 -11 -20 0 -23 3 -13 9 8 5 20 7 28 4 7 -3 13 1 13 8 0 7 3 10 6 6
3 -3 3 -10 -1 -16z m-15 -31 c0 -12 -37 -12 -65 0 -15 7 -10 9 23 9 23 1 42
-3 42 -9z m10 -31 c0 -6 -17 -8 -47 -5 -35 4 -41 3 -23 -3 25 -9 25 -9 2 -10
-15 -1 -21 -5 -17 -13 4 -7 1 -6 -7 2 -7 9 -21 14 -32 12 -11 -3 -16 0 -11 7
3 6 10 9 15 6 5 -3 11 -1 15 5 8 13 105 13 105 -1z m-920 -328 c0 -5 -7 -12
-16 -15 -14 -5 -15 -4 -4 9 14 17 20 19 20 6z"/>
<path d="M7715 6400 c-16 -7 -17 -9 -3 -9 9 -1 20 4 23 9 7 11 7 11 -20 0z"/>
<path d="M10510 610 c-9 -6 -10 -10 -3 -10 6 0 15 5 18 10 8 12 4 12 -15 0z"/>
<path d="M6794 8175 c11 -8 25 -15 30 -15 6 0 2 7 -8 15 -11 8 -25 15 -30 15
-6 0 -2 -7 8 -15z"/>
<path d="M6840 8156 c0 -2 7 -7 16 -10 8 -3 12 -2 9 4 -6 10 -25 14 -25 6z"/>
<path d="M12430 7970 c0 -5 5 -10 10 -10 6 0 10 5 10 10 0 6 -4 10 -10 10 -5
0 -10 -4 -10 -10z"/>
<path d="M6758 7933 c6 -2 18 -2 25 0 6 3 1 5 -13 5 -14 0 -19 -2 -12 -5z"/>
<path d="M3460 7790 c0 -5 5 -10 10 -10 6 0 10 5 10 10 0 6 -4 10 -10 10 -5 0
-10 -4 -10 -10z"/>
<path d="M3540 7679 c0 -5 5 -7 10 -4 6 3 10 8 10 11 0 2 -4 4 -10 4 -5 0 -10
-5 -10 -11z"/>
<path d="M4127 7623 c-4 -3 -21 -7 -39 -9 -44 -4 -88 -21 -88 -34 0 -6 21 -20
47 -32 39 -17 71 -21 207 -23 137 -3 158 -1 142 10 -10 8 -24 11 -31 9 -8 -3
-12 2 -12 13 2 13 -4 18 -20 17 -13 -1 -23 3 -23 7 0 5 -7 9 -15 9 -7 0 -18 8
-24 17 -7 13 -25 18 -74 20 -35 1 -67 0 -70 -4z"/>
<path d="M12350 7564 c0 -8 5 -12 10 -9 6 3 10 10 10 16 0 5 -4 9 -10 9 -5 0
-10 -7 -10 -16z"/>
<path d="M7335 7201 c-3 -6 4 -8 16 -6 30 6 37 15 11 15 -11 0 -23 -4 -27 -9z"/>
<path d="M6940 6589 c0 -5 5 -7 10 -4 6 3 10 8 10 11 0 2 -4 4 -10 4 -5 0 -10
-5 -10 -11z"/>
<path d="M7260 6590 c0 -5 7 -7 15 -4 8 4 15 8 15 10 0 2 -7 4 -15 4 -8 0 -15
-4 -15 -10z"/>
<path d="M6860 6460 c0 -5 5 -10 10 -10 6 0 10 5 10 10 0 6 -4 10 -10 10 -5 0
-10 -4 -10 -10z"/>
<path d="M0 3065 l0 -3065 2526 0 2526 0 -17 26 c-20 31 -12 44 13 21 10 -10
24 -17 30 -17 7 0 12 -7 12 -15 0 -11 11 -15 42 -15 33 0 39 3 30 12 -18 18
-15 35 8 41 14 3 20 14 20 31 0 14 5 26 11 26 6 0 8 8 4 19 -8 25 66 131 92
131 4 0 2 -5 -5 -12 -7 -7 -12 -19 -12 -28 0 -20 -36 -97 -50 -105 -6 -4 -8
-10 -6 -14 3 -4 -1 -29 -9 -54 l-14 -47 707 0 c460 0 702 4 692 10 -8 5 -24
10 -36 10 -11 0 -30 9 -41 19 -12 11 -23 18 -26 15 -3 -3 -19 -7 -37 -9 -18
-2 -38 -9 -45 -15 -10 -8 -15 -8 -20 1 -5 7 -22 9 -45 6 -21 -3 -43 0 -48 5
-12 12 -174 14 -192 3 -7 -4 -32 3 -57 16 -37 19 -46 21 -53 8 -8 -12 -14 -11
-45 5 -37 20 -43 31 -22 40 6 3 -1 4 -18 3 -20 -1 -29 2 -27 10 3 16 -20 17
-36 1 -24 -24 -124 44 -107 72 3 5 1 11 -5 15 -5 3 -10 1 -10 -6 0 -8 -5 -7
-18 3 -9 8 -35 18 -57 21 -22 4 -41 11 -43 17 -2 5 -15 7 -28 4 -18 -5 -24 -2
-24 10 0 11 -8 16 -27 15 -44 -3 -57 0 -82 20 -23 17 -23 19 -7 52 9 19 39 52
67 74 28 22 70 57 92 78 63 57 164 129 226 159 43 20 52 28 38 34 -17 6 -148
-63 -162 -86 -4 -6 -71 -53 -150 -105 -150 -99 -245 -177 -245 -202 0 -8 -5
-11 -11 -8 -6 4 -29 -14 -53 -39 -47 -52 -60 -55 -86 -23 -10 12 -22 18 -27
14 -4 -5 7 -22 26 -38 34 -28 34 -29 16 -49 -25 -28 -39 -25 -69 15 -15 19
-34 35 -42 35 -9 0 -29 8 -45 17 -40 24 -51 6 -14 -23 28 -22 29 -25 13 -40
-16 -16 -19 -16 -42 -1 -32 21 -36 21 -36 0 0 -9 12 -29 26 -44 19 -20 22 -28
11 -32 -16 -6 -72 27 -72 43 0 6 -6 15 -14 19 -8 5 -10 14 -6 21 5 8 4 11 -3
6 -6 -4 -12 3 -14 16 -2 19 -9 23 -32 21 -16 -1 -26 0 -23 3 3 4 2 11 -3 18
-6 6 -21 25 -34 41 -23 29 -48 114 -47 163 1 15 -5 22 -17 22 -23 0 -62 -28
-62 -44 0 -22 -31 -28 -45 -10 -8 12 -14 14 -19 6 -4 -7 -4 -12 -1 -12 4 0 -1
-7 -10 -16 -21 -21 -45 -11 -38 16 3 11 8 18 11 16 7 -8 31 26 32 46 0 9 -6
19 -12 21 -7 3 1 8 19 12 51 12 72 38 66 82 -4 31 -1 42 17 58 17 15 24 17 27
7 7 -18 44 -52 57 -52 6 0 23 15 38 34 l27 34 -32 7 c-31 7 -30 8 21 16 53 9
106 31 117 48 3 5 -6 21 -21 36 -18 18 -32 24 -47 20 -53 -15 -77 -29 -77 -44
-1 -17 -33 -61 -45 -61 -4 0 -5 6 -2 14 3 8 0 26 -6 40 -10 22 -19 26 -56 26
-41 0 -43 -1 -37 -25 7 -28 -3 -31 -37 -12 -39 22 -67 50 -67 68 0 20 -82 62
-110 57 -16 -4 -19 -37 -6 -75 6 -20 4 -23 -18 -23 -27 0 -66 51 -66 87 0 30
23 45 51 34 37 -13 73 4 65 32 -3 12 -6 25 -6 30 0 4 -9 7 -20 7 -32 0 -23 30
14 45 19 8 37 19 41 25 3 5 26 10 50 10 24 0 46 4 49 9 3 5 21 12 40 15 26 5
36 12 38 29 2 12 10 22 18 22 8 0 18 4 22 10 4 6 29 5 67 -1 37 -6 65 -6 70
-1 10 10 31 1 31 -13 0 -5 -6 -7 -13 -4 -8 3 -26 0 -41 -6 -44 -16 -16 -40 46
-40 65 0 59 -20 -11 -36 -66 -15 -83 -30 -57 -50 21 -15 70 -16 98 -2 11 5 20
3 25 -7 7 -12 16 -10 61 11 43 21 51 28 42 39 -7 8 -8 20 -4 26 5 9 1 10 -15
6 -26 -6 -73 11 -65 24 3 5 14 9 25 9 11 0 22 7 25 15 4 8 15 15 26 15 16 0
19 -5 15 -21 -5 -20 -5 -20 16 -2 33 28 60 56 79 83 77 111 98 143 98 150 0 4
7 13 15 20 22 18 18 32 -5 20 -18 -10 -53 -56 -87 -113 -6 -11 -25 -29 -43
-40 -17 -11 -29 -25 -26 -33 8 -20 -17 -34 -84 -46 -62 -10 -63 -10 -139 28
-42 22 -79 43 -83 49 -10 13 6 28 34 31 13 1 28 3 33 3 6 1 2 6 -8 12 -11 6
-23 7 -30 2 -24 -18 -96 -8 -121 16 -20 19 -32 23 -60 18 -45 -7 -52 3 -25 37
25 32 69 56 102 56 30 0 36 6 30 29 -7 27 -47 43 -79 31 -31 -12 -94 -13 -94
-2 0 5 12 14 27 21 15 7 43 25 63 41 87 69 288 140 395 140 40 0 50 5 97 51
29 27 86 68 126 90 39 22 72 45 72 50 0 6 4 8 8 5 4 -2 14 -1 22 5 10 6 11 9
3 9 -7 0 -13 7 -13 15 0 8 -7 15 -15 15 -8 0 -15 -9 -15 -20 0 -11 -4 -20 -10
-20 -5 0 -10 5 -10 11 0 6 -8 3 -17 -7 -10 -10 -19 -12 -21 -6 -2 7 -12 8 -25
3 -31 -11 -62 -8 -62 6 0 6 -3 15 -7 19 -12 11 -9 54 3 54 5 0 7 5 3 11 -5 8
-9 8 -14 -1 -4 -7 -16 -9 -29 -5 -13 4 -21 2 -21 -5 0 -7 -7 -5 -16 5 -15 14
-14 18 3 43 10 15 30 49 44 77 20 38 33 51 55 56 65 13 124 57 124 91 0 25
-38 61 -57 54 -7 -3 -13 -2 -13 3 0 5 -9 11 -20 14 -11 3 -22 17 -25 33 -14
63 -45 95 -58 62 -3 -8 -6 -6 -6 4 -1 24 -28 12 -37 -15 -7 -23 -22 -37 -39
-37 -5 0 -3 5 5 10 12 8 13 12 2 19 -21 13 10 141 57 238 31 63 148 267 167
292 4 5 121 -24 188 -48 62 -22 186 -82 208 -100 49 -42 74 -61 80 -61 4 0 9
-9 13 -19 7 -24 78 -39 100 -21 12 10 15 9 15 -4 0 -13 7 -17 28 -14 15 2 33
-4 40 -12 12 -13 13 -13 8 3 -3 9 -1 17 4 17 6 0 10 -8 11 -17 0 -11 3 -13 6
-5 7 17 23 15 23 -3 0 -8 6 -15 14 -15 7 0 19 -13 26 -29 7 -19 17 -28 26 -24
9 3 14 -2 14 -16 0 -12 5 -21 10 -21 6 0 10 -7 10 -16 0 -9 9 -18 20 -21 11
-3 20 -14 20 -25 0 -12 4 -17 12 -12 8 5 9 2 5 -10 -5 -13 -1 -19 13 -23 11
-3 20 -12 20 -19 0 -8 9 -19 19 -26 11 -6 17 -18 13 -26 -3 -10 -1 -13 7 -8 7
5 22 -3 37 -18 29 -28 36 -31 109 -42 47 -7 48 -8 20 -15 -30 -7 -30 -7 7 -8
20 0 40 -6 43 -12 4 -6 13 -8 21 -5 7 3 16 1 19 -3 2 -5 24 -13 47 -19 43 -11
56 -13 222 -32 60 -8 117 -22 173 -46 46 -18 97 -34 114 -34 46 0 149 -29 188
-53 32 -19 35 -19 46 -3 17 23 -1 88 -48 176 -19 36 -38 80 -42 98 -4 19 -36
75 -71 127 -35 51 -72 117 -83 145 -11 29 -42 78 -69 109 -88 100 -103 129
-97 176 5 32 3 44 -12 56 -55 47 -171 89 -247 89 -44 0 -362 62 -495 96 -51
13 -130 26 -175 29 -44 3 -112 8 -151 11 -139 10 -152 9 -177 -20 -19 -23 -33
-27 -83 -30 -60 -3 -115 -21 -115 -38 0 -16 28 -38 49 -38 63 0 -24 -48 -115
-64 -36 -6 -46 10 -33 54 12 42 10 75 -6 96 -14 19 -15 19 -21 -3 -3 -13 -9
-23 -13 -23 -9 0 -38 -59 -45 -92 -9 -38 -86 -145 -141 -196 -25 -23 -48 -42
-51 -42 -12 0 -153 -155 -144 -158 6 -2 19 3 29 12 21 19 44 21 38 4 -2 -7
-13 -11 -23 -10 -10 2 -16 1 -12 -3 13 -13 -19 -59 -73 -105 -68 -59 -70 -60
-132 -66 -55 -6 -85 9 -100 48 -5 15 -1 18 28 18 19 0 35 5 35 10 0 6 -11 10
-25 10 -39 0 -37 40 4 79 15 14 26 33 24 41 -3 17 72 108 81 99 3 -3 -10 -23
-29 -44 -35 -38 -39 -59 -7 -39 9 6 17 17 17 25 0 9 12 14 33 15 19 1 44 11
60 25 42 37 104 67 110 51 2 -6 8 -12 13 -12 6 0 7 5 4 10 -3 6 2 13 11 17 30
11 54 36 54 55 0 12 8 18 23 18 21 1 21 1 3 15 -10 8 -23 12 -27 9 -5 -3 -9 0
-9 5 0 6 11 11 25 11 22 0 24 3 19 30 -6 27 -4 30 19 30 14 0 28 4 31 8 3 5
-5 8 -17 8 -17 -1 -21 4 -20 22 3 27 -21 39 -42 22 -8 -7 -15 -9 -15 -4 0 5
-4 3 -9 -5 -16 -26 -28 -1 -25 51 3 53 -12 173 -23 191 -3 5 -10 2 -15 -7 -5
-9 -6 -21 -3 -26 11 -18 -15 -85 -48 -122 -18 -21 -36 -38 -39 -38 -3 0 -9 35
-13 78 -9 85 -22 71 -24 -24 -1 -54 -21 -84 -55 -84 -16 0 -16 -2 -2 -22 35
-49 4 -96 -53 -81 -17 4 -21 13 -21 49 0 31 5 46 15 51 14 5 14 8 -1 24 -13
14 -16 30 -12 66 6 52 1 76 -13 67 -5 -3 -9 2 -9 10 0 9 -3 16 -7 16 -5 0 -7
-38 -6 -85 1 -66 -2 -85 -13 -85 -7 0 -11 -6 -8 -14 4 -10 -1 -12 -18 -9 -21
4 -23 10 -24 66 -1 35 -7 63 -13 65 -7 2 -8 14 -4 30 5 23 4 25 -9 14 -13 -10
-18 -8 -32 12 -9 14 -16 30 -16 37 0 6 -7 9 -15 5 -20 -7 -19 9 5 72 25 65 25
72 1 72 -18 0 -38 -40 -32 -65 1 -5 0 -24 -4 -42 -4 -24 -11 -33 -25 -33 -11
0 -20 -4 -20 -10 0 -5 11 -10 25 -10 26 0 33 -14 15 -25 -8 -5 -7 -11 0 -20
21 -25 0 -61 -32 -56 -5 0 -8 -3 -8 -8 0 -11 -44 0 -79 18 -28 15 -27 27 3 35
14 3 32 14 41 23 16 16 16 17 -2 24 -15 6 -19 14 -15 38 3 24 1 31 -13 31 -11
0 -15 5 -11 16 3 9 2 12 -4 9 -16 -10 -89 -14 -94 -6 -3 4 -18 7 -33 5 -15 -1
-34 -2 -41 -3 -7 -1 -11 -5 -8 -10 3 -5 -1 -12 -10 -15 -8 -3 -13 -2 -10 2 2
4 -4 9 -15 9 -10 1 -19 -2 -19 -8 0 -5 -7 -9 -15 -9 -8 0 -15 -5 -15 -11 0 -5
6 -7 13 -3 12 8 -5 -17 -30 -43 -14 -15 -43 -17 -43 -3 0 6 5 10 10 10 6 0 10
5 10 11 0 5 -4 7 -10 4 -5 -3 -10 0 -11 7 0 7 -4 4 -9 -7 -5 -11 -9 -14 -9 -7
-1 6 -6 12 -12 12 -5 0 -8 -4 -5 -8 3 -5 -12 -10 -32 -11 -20 -1 -50 -4 -67
-6 -16 -2 -41 -6 -55 -7 -14 -2 -34 -11 -44 -20 -11 -10 -23 -18 -28 -18 -4 0
-5 -7 -1 -16 5 -14 3 -15 -12 -7 -22 13 -55 5 -55 -13 0 -7 -17 -21 -38 -30
-46 -22 -43 -19 -46 -36 -2 -7 -6 -22 -10 -33 -5 -11 -13 -33 -19 -49 -6 -15
-10 -58 -9 -94 1 -37 -4 -72 -10 -80 -7 -8 -11 -31 -9 -52 1 -21 -2 -41 -8
-45 -6 -3 -11 -11 -11 -16 0 -6 5 -7 12 -3 8 5 9 2 5 -10 -4 -10 -7 -19 -7
-22 0 -2 -15 -1 -32 2 -30 5 -31 4 -15 -9 22 -19 22 -27 -3 -27 -14 0 -20 -7
-20 -21 0 -14 -5 -19 -14 -16 -10 4 -13 1 -9 -9 3 -7 0 -14 -6 -14 -6 0 -11 5
-11 10 0 6 -5 10 -11 10 -15 0 -35 22 -44 50 -7 22 -9 22 -20 7 -17 -24 -27
-21 -21 6 3 12 3 16 0 10 -8 -18 -25 -16 -18 2 4 8 1 15 -5 15 -6 0 -11 -5
-11 -10 0 -14 -56 16 -63 33 -4 10 0 13 12 10 12 -3 20 2 24 16 4 17 1 21 -20
21 -13 0 -22 -4 -19 -9 3 -4 -8 -8 -24 -7 -31 1 -40 11 -17 19 6 2 -1 4 -18 4
-16 0 -41 3 -55 7 -21 5 -21 5 3 -5 43 -17 32 -26 -23 -19 -46 6 -81 20 -50
20 9 0 10 3 4 9 -5 4 -34 5 -64 1 -41 -5 -50 -8 -36 -15 18 -8 18 -9 1 -21 -9
-7 -24 -10 -32 -7 -13 5 -13 3 -4 -15 8 -15 8 -22 1 -22 -6 0 -13 7 -16 15 -4
8 -10 15 -16 15 -5 0 -6 -5 -2 -12 4 -7 3 -8 -4 -4 -7 4 -12 14 -12 22 0 8 -4
14 -10 14 -9 0 -14 -14 -11 -32 2 -14 -17 -8 -23 7 -3 8 -13 15 -21 15 -9 0
-13 5 -10 10 3 6 2 10 -3 10 -5 0 -8 11 -7 25 2 14 -1 25 -7 25 -6 0 -7 7 -4
16 4 12 1 14 -14 9 -18 -6 -20 -2 -20 34 0 30 -6 44 -25 59 -25 20 -35 40 -13
26 7 -5 8 -3 2 7 -11 19 -14 89 -3 89 4 0 5 8 2 17 -5 14 -8 12 -16 -10 -5
-15 -12 -27 -16 -27 -10 0 -41 79 -41 103 0 10 -4 15 -10 12 -5 -3 -10 -1 -10
5 0 20 -24 37 -44 32 -14 -4 -17 -2 -11 8 6 10 4 12 -9 7 -14 -5 -16 -3 -11
12 4 13 0 20 -15 24 -13 3 -19 12 -17 24 4 30 18 45 34 38 13 -5 14 -3 3 10
-7 9 -16 12 -19 7 -12 -17 -41 -22 -41 -7 0 8 -7 15 -15 15 -8 0 -15 4 -15 9
0 4 12 6 26 3 19 -3 25 -1 20 7 -4 6 -14 11 -22 11 -8 0 -14 7 -14 15 0 8 5
15 10 15 14 0 13 33 -2 48 -8 8 -8 15 1 26 8 10 9 16 1 21 -5 3 -10 13 -10 21
0 8 4 13 9 10 5 -4 7 3 4 14 -4 15 0 20 13 21 16 0 15 2 -4 10 -32 12 -18 29
25 29 27 0 34 3 29 15 -3 8 -1 15 4 15 6 0 10 7 10 15 0 8 5 15 11 15 5 0 8 4
5 8 -3 5 14 17 37 26 23 10 60 27 83 37 22 10 48 19 57 19 9 0 17 3 17 8 0 4
21 7 48 7 133 1 331 42 316 66 -3 5 3 9 13 9 11 0 25 14 36 38 42 91 131 224
199 297 118 128 343 228 506 225 59 -1 72 2 72 15 0 8 7 15 15 15 8 0 15 -8
15 -17 0 -15 2 -16 10 -3 9 15 11 13 14 -12 0 -7 13 -14 29 -16 15 -2 25 -7
22 -12 -3 -5 8 -11 24 -15 16 -3 35 -13 41 -20 7 -8 31 -26 55 -40 64 -37 86
-68 75 -107 -14 -45 -37 -77 -75 -99 -19 -11 -37 -30 -41 -41 -3 -12 -31 -46
-60 -76 -30 -31 -54 -59 -54 -64 0 -4 -7 -8 -15 -8 -24 0 -18 -18 13 -36 15
-9 46 -30 70 -47 66 -45 183 -107 201 -107 9 0 28 20 44 43 15 23 43 64 62 90
28 40 34 57 34 95 -1 48 14 102 28 102 5 0 23 -14 41 -31 35 -33 35 -32 97 15
21 17 36 26 32 19 -5 -7 0 -9 14 -6 14 4 17 8 9 13 -9 6 -9 9 1 14 8 3 2 4
-13 2 -16 -2 -28 1 -28 5 0 5 -7 6 -15 3 -8 -4 -15 -1 -15 5 0 6 -4 11 -10 11
-5 0 -10 -8 -10 -17 0 -31 -20 8 -21 42 -1 17 -3 22 -6 13 -2 -10 -9 -18 -15
-18 -6 0 -8 9 -5 19 3 14 1 18 -9 14 -9 -3 -12 -13 -9 -24 9 -26 -7 -24 -25 3
-8 12 -25 32 -37 44 -13 11 -23 29 -23 38 0 9 -4 16 -10 16 -5 0 -11 12 -11
28 -2 23 -2 24 -6 5 -5 -26 -23 -31 -23 -8 0 18 -8 19 -41 1 -24 -12 -27 -11
-45 15 -10 16 -22 29 -26 29 -5 0 -8 4 -8 9 0 5 8 7 18 4 16 -4 18 0 14 27 -2
17 -11 34 -19 37 -10 4 -11 9 -2 19 10 12 8 13 -7 8 -10 -4 -24 -11 -31 -16
-7 -6 -18 -8 -25 -5 -8 4 -7 6 5 6 20 1 22 14 4 30 -10 8 -17 7 -25 -1 -9 -9
-14 -5 -21 13 -7 17 -10 19 -10 7 -1 -26 -21 -22 -21 3 0 18 -2 20 -16 9 -13
-11 -16 -10 -21 8 -3 12 -9 20 -13 17 -5 -3 -6 -14 -3 -24 3 -10 -1 -22 -7
-26 -9 -6 -11 2 -8 29 3 29 1 36 -13 36 -12 0 -15 -6 -12 -23 5 -23 -7 -27
-47 -18 -3 1 4 9 15 18 16 13 17 15 3 10 -10 -4 -18 -2 -18 3 0 6 -5 10 -11
10 -5 0 -7 -4 -4 -10 3 -5 1 -10 -4 -10 -6 0 -11 4 -11 10 0 5 -7 7 -15 4 -8
-4 -12 -10 -9 -15 3 -5 0 -9 -5 -9 -6 0 -11 4 -11 9 0 5 -10 7 -22 5 -22 -4
-22 -4 -2 5 24 11 38 48 20 55 -6 2 -3 5 7 5 21 1 22 14 2 31 -13 11 -14 10
-9 -5 5 -13 4 -16 -4 -11 -11 6 -17 -18 -13 -46 0 -4 -5 -5 -13 -2 -8 3 -17 1
-21 -5 -7 -13 -25 -15 -25 -2 0 4 12 20 26 35 26 25 26 26 5 26 -21 0 -22 1
-4 24 18 25 48 30 71 13 8 -6 12 -6 12 1 0 6 -4 14 -10 17 -17 10 -11 24 20
55 32 32 56 38 63 18 3 -10 7 -10 20 0 9 8 21 11 27 7 6 -4 10 -3 9 2 -1 4 -1
20 0 36 1 28 21 39 21 11 0 -14 2 -14 16 1 9 9 29 19 45 22 16 3 26 9 23 14
-5 8 0 10 39 13 6 1 17 7 23 15 6 7 24 14 40 15 36 2 55 13 48 29 -3 9 5 13
22 12 15 0 29 -6 32 -12 2 -7 10 -13 18 -13 9 0 12 5 9 10 -4 6 10 10 34 10
22 0 43 5 46 10 5 8 11 7 21 -1 11 -9 14 -8 14 2 0 10 3 10 11 2 17 -17 43 -5
28 13 -8 9 -8 14 -1 14 6 0 18 -10 26 -22 9 -12 19 -19 22 -15 4 4 1 13 -5 21
-8 10 -9 16 -1 21 5 3 10 2 10 -3 0 -10 28 -8 68 4 18 5 21 3 15 -11 -5 -16
-2 -15 23 4 42 31 103 39 116 16 8 -14 12 -15 18 -4 5 7 29 14 54 15 36 2 44
0 39 -11 -3 -8 0 -15 6 -15 6 0 11 9 11 20 0 15 6 19 30 17 19 -1 30 -8 31
-17 0 -10 3 -8 9 5 7 17 9 17 9 3 1 -10 5 -18 10 -18 4 0 6 11 3 25 -4 23 -1
25 32 25 20 0 36 -5 36 -11 0 -6 -9 -8 -20 -4 -14 4 -20 2 -20 -9 0 -9 6 -13
15 -11 8 3 22 7 30 10 11 3 13 10 5 29 -8 23 -6 25 28 31 36 6 37 8 38 48 1
22 7 43 13 45 6 2 11 8 11 13 0 4 -8 6 -17 2 -15 -5 -16 -3 -6 7 11 12 16 10
33 -8 22 -24 27 -44 7 -37 -6 3 -18 -4 -25 -15 -7 -12 -8 -20 -2 -20 5 0 10 4
10 9 0 11 37 21 45 12 14 -13 30 -6 42 19 l12 25 2 -25 c1 -14 1 -28 0 -32 0
-5 3 -8 8 -8 5 0 12 16 15 35 4 20 11 33 17 30 5 -4 7 -11 4 -16 -4 -5 -1 -9
4 -9 6 0 11 8 11 17 0 15 1 15 13 -2 13 -17 14 -16 20 15 4 17 4 36 1 41 -3 5
2 9 11 9 9 0 14 -4 11 -9 -3 -5 3 -11 14 -14 11 -3 20 -10 20 -17 0 -7 -8 -9
-22 -4 -21 6 -21 6 -5 -10 9 -10 21 -14 27 -11 13 8 13 45 0 45 -5 0 -10 5
-10 10 0 6 12 10 27 10 25 0 25 1 10 18 -20 22 -22 42 -4 42 22 0 -17 20 -40
20 -18 0 -23 -6 -23 -25 0 -18 5 -25 20 -25 13 0 18 -5 14 -15 -9 -21 -21 -19
-39 9 -16 25 -11 81 6 70 5 -3 9 -1 9 5 0 6 -11 13 -25 17 -14 3 -25 11 -25
16 0 6 7 8 15 4 21 -8 19 11 -4 35 -21 23 -44 18 -34 -6 3 -9 -1 -15 -11 -15
-9 0 -16 -4 -16 -10 0 -5 6 -10 14 -10 19 0 49 -48 42 -67 -4 -9 -1 -22 5 -29
9 -11 8 -14 -3 -14 -8 0 -15 12 -16 33 -2 17 -7 34 -12 35 -6 2 -10 10 -10 17
0 8 -17 16 -40 20 -22 4 -37 11 -34 17 3 5 12 7 19 4 15 -5 45 24 45 43 0 9
-5 7 -16 -3 -20 -21 -41 -20 -62 1 -16 15 -15 16 13 10 l30 -7 -25 14 c-28 16
-44 4 -34 -26 3 -10 1 -18 -5 -18 -6 0 -11 7 -11 16 0 8 -4 12 -10 9 -5 -3
-10 -1 -10 6 0 7 -11 10 -29 7 -17 -2 -28 -1 -25 4 3 4 -5 18 -16 30 l-22 23
7 -40 c6 -37 5 -39 -9 -21 -9 11 -16 26 -16 33 0 8 -12 13 -30 13 -22 0 -33
-6 -40 -22 -8 -21 -9 -21 -10 -3 -1 32 -16 49 -36 41 -16 -6 -16 -8 -4 -16 12
-8 9 -10 -11 -10 -31 0 -58 -25 -37 -33 8 -3 6 -6 -5 -6 -10 -1 -28 4 -39 10
-15 8 -19 8 -14 0 4 -6 0 -11 -8 -11 -9 0 -16 -5 -16 -10 0 -7 -7 -7 -20 0
-11 6 -18 15 -15 21 4 5 2 9 -3 9 -4 0 -19 10 -32 23 -14 12 -28 21 -33 19 -4
-1 -10 5 -13 13 -4 8 -15 15 -26 15 -11 0 -16 4 -12 11 3 6 -5 3 -20 -6 -15
-10 -29 -15 -33 -11 -3 3 -1 6 5 6 7 0 12 7 12 16 0 8 -5 12 -11 8 -6 -3 -16
0 -21 7 -8 11 -11 11 -15 1 -4 -10 -8 -9 -19 5 -8 11 -13 13 -14 6 0 -18 -20
-16 -20 2 0 8 -7 15 -16 15 -11 0 -14 -6 -10 -17 4 -12 -1 -9 -12 6 -12 15
-22 20 -26 13 -7 -11 -46 -12 -46 -1 0 11 -104 28 -155 25 -30 -2 -53 1 -57 8
-6 8 -8 7 -8 -1 0 -16 -27 -17 -32 -3 -2 6 -27 12 -55 14 -28 2 -56 7 -62 11
-6 3 -17 3 -23 -1 -18 -11 -48 -12 -48 -2 0 4 -7 8 -16 8 -9 0 -14 7 -12 18 2
10 -7 23 -23 33 -31 20 -31 36 4 111 15 31 27 63 27 72 0 8 6 17 13 19 8 4 8
8 2 14 -5 4 -11 19 -13 33 -1 14 -12 32 -23 40 -28 19 -130 60 -149 60 -9 0
-20 4 -25 8 -21 18 -93 33 -140 28 -27 -3 -93 -12 -145 -21 -128 -22 -146 -24
-370 -29 -220 -5 -442 14 -660 58 -69 14 -172 28 -228 31 -88 6 -103 4 -108
-9 -3 -9 -1 -23 5 -30 8 -9 8 -16 2 -20 -5 -4 -11 2 -14 11 -3 16 -5 16 -11
-2 -15 -40 -23 -50 -46 -53 -13 -2 -18 -7 -13 -10 35 -22 -314 -19 -457 3
-262 41 -346 64 -505 136 -76 35 -57 33 -240 25 -120 -6 -238 1 -320 19 -11 2
-36 6 -55 9 -19 3 -46 8 -60 10 -14 3 -45 8 -70 11 -25 4 -88 18 -140 31 -52
14 -124 32 -160 40 -36 7 -71 16 -77 19 -10 3 -13 -613 -13 -3060z m4167 2359
c-3 -3 -12 -4 -19 -1 -8 3 -5 6 6 6 11 1 17 -2 13 -5z m953 -152 c0 -5 -7 -9
-15 -9 -8 0 -15 4 -15 9 0 4 7 8 15 8 8 0 15 -4 15 -8z m70 -52 c0 -5 -5 -10
-11 -10 -5 0 -7 5 -4 10 3 6 8 10 11 10 2 0 4 -4 4 -10z m30 -10 c0 -5 -2 -10
-4 -10 -3 0 -8 5 -11 10 -3 6 -1 10 4 10 6 0 11 -4 11 -10z m22 -22 c-9 -9
-12 -7 -12 12 0 19 3 21 12 12 9 -9 9 -15 0 -24z m-47 -18 c3 -5 1 -10 -4 -10
-6 0 -11 5 -11 10 0 6 2 10 4 10 3 0 8 -4 11 -10z m165 -20 c0 -5 -5 -10 -11
-10 -5 0 -7 5 -4 10 3 6 8 10 11 10 2 0 4 -4 4 -10z m17 -42 c-3 -8 -6 -5 -6
6 -1 11 2 17 5 13 3 -3 4 -12 1 -19z m113 14 c0 -13 -12 -22 -22 -16 -10 6 -1
24 13 24 5 0 9 -4 9 -8z m-205 -25 c14 -15 12 -64 -4 -80 -7 -7 -8 1 -4 26 6
41 -5 48 -25 17 -13 -21 -32 -27 -32 -10 0 6 6 10 13 10 19 0 40 37 24 43 -9
4 -8 6 1 6 7 1 19 -5 27 -12z m-85 -27 c0 -11 -4 -20 -8 -20 -4 0 -8 9 -9 20
-1 11 2 20 8 20 5 0 9 -9 9 -20z m130 0 c0 -5 -2 -10 -4 -10 -3 0 -8 5 -11 10
-3 6 -1 10 4 10 6 0 11 -4 11 -10z m35 0 c-3 -5 -12 -10 -18 -10 -7 0 -6 4 3
10 19 12 23 12 15 0z m58 -30 c6 -24 1 -25 -19 -5 -9 8 -12 19 -9 25 9 14 21
5 28 -20z m-48 -10 c14 -7 8 -8 -20 -3 -22 3 -42 7 -44 9 -9 8 45 2 64 -6z
m-48 -17 c-10 -2 -16 -12 -15 -20 2 -9 -4 -17 -13 -18 -13 -2 -14 1 -5 21 7
14 19 23 31 23 17 -1 17 -2 2 -6z m-141 -38 c2 -29 -2 -31 -23 -9 -14 13 -14
17 -2 25 21 13 24 11 25 -16z m-6 -55 c0 -5 -7 -10 -16 -10 -8 0 -12 5 -9 10
3 6 10 10 16 10 5 0 9 -4 9 -10z m-260 -54 c0 -3 -4 -8 -10 -11 -5 -3 -10 -1
-10 4 0 6 5 11 10 11 6 0 10 -2 10 -4z m-860 -241 c0 -8 -4 -15 -9 -15 -13 0
-22 16 -14 24 11 11 23 6 23 -9z m-216 -241 c8 -22 8 -49 -1 -40 -4 4 -8 15
-8 24 0 10 -7 16 -17 16 -10 -1 -18 2 -18 7 0 16 38 10 44 -7z m211 -54 c3 -5
1 -10 -4 -10 -6 0 -11 5 -11 10 0 6 2 10 4 10 3 0 8 -4 11 -10z m55 -20 c0 -5
-5 -10 -11 -10 -5 0 -7 5 -4 10 3 6 8 10 11 10 2 0 4 -4 4 -10z m60 1 c0 -5
-7 -12 -16 -15 -14 -5 -15 -4 -4 9 14 17 20 19 20 6z m100 -56 c0 -16 -38 -14
-44 2 -4 11 1 13 19 11 14 -2 26 -7 25 -13z m93 -112 c-7 -2 -19 -2 -25 0 -7
3 -2 5 12 5 14 0 19 -2 13 -5z m244 -179 c-3 -3 -12 -4 -19 -1 -8 3 -5 6 6 6
11 1 17 -2 13 -5z m-261 -134 c1 -35 -3 -63 -9 -67 -6 -3 -13 -1 -15 5 -2 8
-8 7 -19 -3 -35 -35 -96 -6 -71 34 17 28 24 26 37 -9 l10 -31 21 21 c21 21 26
40 10 40 -14 0 -12 64 2 78 20 20 32 -4 34 -68z m-1696 -64 c0 -3 -4 -8 -10
-11 -5 -3 -10 -1 -10 4 0 6 5 11 10 11 6 0 10 -2 10 -4z m-525 -26 c-3 -5 -12
-10 -18 -10 -7 0 -6 4 3 10 19 12 23 12 15 0z m475 5 c0 -2 -10 -10 -22 -16
-21 -11 -22 -11 -9 4 13 16 31 23 31 12z m-30 -59 c0 -3 -4 -8 -10 -11 -5 -3
-10 -1 -10 4 0 6 5 11 10 11 6 0 10 -2 10 -4z m-635 -186 c3 -5 2 -10 -4 -10
-5 0 -13 5 -16 10 -3 6 -2 10 4 10 5 0 13 -4 16 -10z m2213 -307 c-7 -9 -7
-13 1 -13 7 0 9 -4 6 -10 -3 -5 0 -10 7 -11 7 0 -2 -5 -20 -10 -19 -6 -30 -14
-26 -20 4 -6 9 -7 13 -3 7 11 32 11 49 1 7 -5 12 -3 13 5 0 9 2 8 6 -2 3 -8
14 -25 24 -38 10 -13 16 -32 14 -43 -2 -11 0 -17 6 -14 5 4 9 -3 9 -15 0 -36
30 -82 94 -146 34 -33 72 -76 85 -96 18 -26 31 -35 53 -35 27 0 41 16 16 18
-10 0 -10 2 0 6 6 2 9 10 6 16 -4 7 9 -6 30 -28 38 -42 44 -55 24 -55 -6 0 -4
-6 7 -13 10 -8 15 -19 11 -26 -4 -6 -2 -19 6 -28 11 -15 11 -16 -4 -10 -23 8
-23 0 1 -44 19 -35 19 -36 0 -52 -13 -12 -19 -13 -19 -4 0 6 -10 0 -23 -14
-12 -14 -28 -24 -36 -21 -10 3 -12 0 -8 -12 4 -9 3 -14 -2 -11 -5 3 -11 0 -14
-7 -2 -7 -3 -5 -2 5 3 19 -20 24 -30 6 -4 -6 -13 -8 -21 -5 -8 3 -13 0 -11 -6
1 -7 -3 -12 -10 -13 -18 0 -28 -15 -10 -15 10 0 17 -5 17 -11 0 -7 -10 -9 -26
-5 -18 5 -32 2 -44 -9 -37 -34 -117 -20 -94 16 4 8 3 9 -5 5 -7 -4 -9 -16 -5
-28 5 -17 3 -19 -14 -14 -15 5 -22 1 -27 -15 -5 -15 -10 -18 -18 -10 -16 16
-27 14 -21 -4 4 -8 1 -15 -5 -15 -6 0 -11 -7 -11 -16 0 -8 -4 -13 -9 -9 -6 3
-14 -3 -20 -12 -7 -13 -10 -14 -11 -4 0 8 -3 12 -6 9 -3 -4 -1 -15 5 -26 13
-24 4 -34 -19 -22 -13 7 -20 4 -30 -15 -17 -32 -27 -31 -42 0 -8 18 -15 22
-23 15 -9 -7 -15 -6 -22 2 -17 21 -11 48 9 48 11 0 18 7 18 19 0 11 5 23 10
26 6 3 10 17 10 31 0 25 15 33 23 12 3 -7 6 7 6 31 1 37 3 42 16 31 13 -11 15
-5 15 41 0 36 3 49 9 40 13 -21 24 63 17 125 -13 106 -18 134 -27 134 -4 0 -6
7 -3 15 4 8 2 15 -3 15 -9 0 -28 33 -32 53 0 4 -25 32 -55 62 -38 37 -51 57
-43 62 18 12 90 11 106 -1 12 -9 13 -7 8 7 -6 15 2 21 24 19 4 -1 15 8 25 20
11 12 13 18 7 14 -7 -4 -13 -2 -13 4 0 6 -6 8 -12 5 -7 -4 -5 0 5 8 14 12 15
16 4 26 -8 6 -17 7 -21 3 -4 -4 -6 0 -4 8 4 22 21 31 30 17 5 -8 8 -6 8 6 0
10 8 17 21 17 16 0 19 4 14 20 -4 11 -2 20 4 20 6 0 8 8 5 18 -5 14 -4 14 4 2
8 -10 8 -18 0 -27z m52 13 c0 -3 -4 -8 -10 -11 -5 -3 -10 -1 -10 4 0 6 5 11
10 11 6 0 10 -2 10 -4z m154 -132 c8 -3 13 -11 10 -18 -3 -9 4 -12 23 -11 18
2 20 1 6 -2 -13 -2 -23 -7 -23 -11 0 -4 -17 -8 -38 -9 l-37 -3 25 20 c14 11
19 20 12 20 -7 0 -10 5 -7 10 7 12 8 12 29 4z m-44 -74 c0 -5 -7 -10 -15 -10
-8 0 -15 5 -15 10 0 6 7 10 15 10 8 0 15 -4 15 -10z m1480 -16 c0 -3 -5 -14
-10 -25 -18 -33 -59 -18 -46 16 5 14 56 22 56 9z m-1955 -24 c3 -5 2 -10 -2
-10 -5 0 -10 -11 -11 -25 -1 -19 3 -25 18 -25 16 0 20 -7 20 -34 0 -19 5 -38
11 -41 6 -4 10 -1 8 6 -1 8 -1 23 0 33 1 18 3 18 27 -5 61 -55 84 -173 37
-182 -12 -2 -20 0 -17 4 3 5 0 9 -6 9 -6 0 -8 6 -4 13 4 6 4 9 -1 5 -4 -4 -14
-3 -21 3 -10 8 -14 -1 -20 -38 -7 -48 -7 -48 -17 -18 -13 39 -14 40 -31 26 -8
-7 -12 -20 -9 -29 3 -9 -4 -4 -15 11 -19 28 -38 24 -26 -6 3 -9 -3 -24 -13
-34 -16 -16 -17 -21 -6 -32 21 -20 11 -44 -20 -48 -34 -5 -61 19 -52 47 3 11
2 20 -3 20 -14 0 -9 113 6 118 15 5 16 42 1 42 -12 0 -1 92 12 100 4 3 11 17
14 33 4 15 11 24 16 21 5 -3 9 -1 9 5 0 5 -8 15 -17 21 -14 8 -9 10 25 7 23
-3 45 -1 48 4 7 12 31 11 39 -1z m831 -32 c7 -10 2 -15 -22 -21 -4 -1 -8 6
-10 16 -3 19 21 23 32 5z m-726 -38 c15 -28 1 -49 -17 -25 -15 22 -17 45 -3
45 5 0 14 -9 20 -20z m585 -80 c3 -5 1 -10 -4 -10 -6 0 -11 5 -11 10 0 6 2 10
4 10 3 0 8 -4 11 -10z m-35 -20 c0 -5 -7 -10 -15 -10 -8 0 -15 5 -15 10 0 6 7
10 15 10 8 0 15 -4 15 -10z m-3280 -19 c0 -6 -14 -25 -31 -43 -19 -20 -29 -26
-25 -15 3 10 6 23 6 28 0 5 6 9 14 9 8 0 16 7 20 15 6 17 16 20 16 6z m-76
-26 c-4 -8 -8 -15 -10 -15 -2 0 -4 7 -4 15 0 8 4 15 10 15 5 0 7 -7 4 -15z
m1613 0 c0 -8 -4 -15 -9 -15 -4 0 -8 7 -8 15 0 8 4 15 8 15 5 0 9 -7 9 -15z
m-1632 -75 c3 -5 1 -10 -4 -10 -6 0 -11 5 -11 10 0 6 2 10 4 10 3 0 8 -4 11
-10z m5499 -26 c37 -18 37 -18 29 4 -6 15 -4 15 15 -2 12 -10 19 -23 16 -28
-3 -5 2 -8 12 -6 13 2 19 -3 19 -16 0 -11 6 -21 13 -24 6 -2 10 -8 7 -12 -3
-5 12 -27 34 -49 36 -37 39 -44 34 -78 -7 -42 -15 -52 -58 -72 -30 -14 -85
-21 -85 -11 0 8 -44 5 -57 -3 -7 -4 -16 1 -22 10 -10 17 -10 17 -11 -2 0 -13
-3 -16 -8 -8 -4 6 -23 11 -42 10 -27 -2 -35 2 -34 15 1 10 -10 21 -27 27 -16
5 -29 16 -29 23 0 8 -12 15 -27 16 -16 1 -30 7 -31 12 -7 21 -33 39 -47 34
-10 -4 -15 0 -15 13 0 10 -5 24 -12 31 -9 9 -8 12 5 12 9 0 17 7 17 16 0 8 4
12 10 9 5 -3 12 6 16 20 3 14 12 25 20 25 8 0 14 4 14 8 0 5 30 15 66 22 36 8
67 17 70 21 6 10 73 0 108 -17z m-5464 6 c0 -5 -2 -10 -4 -10 -3 0 -8 5 -11
10 -3 6 -1 10 4 10 6 0 11 -4 11 -10z m3920 -8 c0 -11 -38 -42 -66 -52 -13 -5
-24 -7 -24 -5 0 9 40 45 50 45 6 0 10 5 10 10 0 6 7 10 15 10 8 0 15 -3 15 -8z
m-1730 -82 c6 9 10 10 10 3 0 -6 -4 -14 -9 -17 -14 -9 -42 5 -35 16 4 6 10 5
15 -3 8 -12 11 -11 19 1z m430 -36 c0 -2 -9 -4 -21 -4 -11 0 -18 4 -14 10 5 8
35 3 35 -6z m-257 -1 c-7 -2 -19 -2 -25 0 -7 3 -2 5 12 5 14 0 19 -2 13 -5z
m1112 -4 c11 -17 -1 -21 -15 -4 -8 9 -8 15 -2 15 6 0 14 -5 17 -11z m-1138
-25 c-3 -3 -12 -4 -19 -1 -8 3 -5 6 6 6 11 1 17 -2 13 -5z m1138 -34 c3 -5 1
-10 -4 -10 -6 0 -11 5 -11 10 0 6 2 10 4 10 3 0 8 -4 11 -10z m-3613 -122 c-9
-4 -20 -7 -24 -7 -12 -1 -9 24 4 37 9 9 14 7 24 -6 10 -14 10 -18 -4 -24z
m2423 31 c4 -6 5 -13 2 -15 -7 -8 -57 7 -57 17 0 13 47 11 55 -2z m-90 -19 c3
-6 -1 -7 -9 -4 -18 7 -21 14 -7 14 6 0 13 -4 16 -10z m613 -120 c3 -7 0 -10
-6 -6 -6 3 -13 2 -17 -4 -10 -15 -22 -12 -27 8 -4 14 1 17 20 16 14 0 28 -7
30 -14z m-8 -32 c0 -9 4 -8 10 2 11 17 13 9 4 -14 -5 -13 -9 -14 -20 -5 -16
13 -18 29 -4 29 6 0 10 -6 10 -12z m762 -1049 c17 -9 18 -13 7 -20 -25 -16
-56 -10 -62 11 -6 23 20 27 55 9z m-394 -159 c63 -10 66 -12 57 -40 -6 -18
-12 -21 -37 -16 -25 5 -29 3 -24 -10 7 -18 -11 -38 -42 -48 -26 -9 -27 -3 -6
34 27 44 13 61 -46 57 -42 -2 -50 0 -50 15 0 18 39 29 75 21 11 -3 44 -9 73
-13z m252 -333 c0 -20 -31 -45 -51 -40 -10 3 -19 9 -19 13 0 5 -3 17 -7 27 -6
16 -5 16 9 5 14 -11 18 -10 28 8 9 17 14 19 26 9 8 -6 14 -16 14 -22z m525
-544 c34 -27 37 -53 6 -53 -16 0 -51 47 -51 69 0 16 8 14 45 -16z"/>
<path d="M4482 2710 c7 -10 14 -18 15 -16 6 6 -9 36 -18 36 -5 0 -4 -9 3 -20z"/>
<path d="M6966 6045 c-9 -14 -12 -25 -7 -25 12 0 35 39 28 46 -2 3 -12 -7 -21
-21z"/>
<path d="M7000 6011 c0 -6 5 -13 10 -16 6 -3 10 1 10 9 0 9 -4 16 -10 16 -5 0
-10 -4 -10 -9z"/>
<path d="M10080 5970 c8 -5 20 -10 25 -10 6 0 3 5 -5 10 -8 5 -19 10 -25 10
-5 0 -3 -5 5 -10z"/>
<path d="M10470 5748 c0 -10 187 -169 246 -209 53 -35 53 -36 121 -27 77 10
153 37 153 55 0 18 -50 49 -141 89 -46 19 -95 42 -108 51 -14 9 -41 20 -60 25
-46 12 -211 25 -211 16z"/>
<path d="M9471 5714 c0 -11 3 -14 6 -6 3 7 2 16 -1 19 -3 4 -6 -2 -5 -13z"/>
<path d="M7000 5664 c-43 -14 -110 -49 -110 -57 0 -17 108 -2 130 18 35 31 24
53 -20 39z"/>
<path d="M6978 5364 c-28 -12 -40 -24 -49 -52 -6 -21 -15 -41 -20 -46 -5 -6
-9 -19 -9 -30 0 -16 2 -18 9 -7 5 8 11 9 15 3 4 -7 17 -5 37 5 36 18 99 13
184 -13 47 -15 58 -16 80 -4 28 15 32 41 14 100 -10 32 -18 40 -48 48 -22 5
-47 5 -61 0 -14 -5 -35 -5 -53 2 -39 13 -54 12 -99 -6z"/>
<path d="M11550 5336 c0 -21 173 -84 305 -113 52 -11 -52 34 -168 74 -132 44
-137 46 -137 39z"/>
<path d="M5080 5319 c0 -5 5 -7 10 -4 6 3 10 8 10 11 0 2 -4 4 -10 4 -5 0 -10
-5 -10 -11z"/>
<path d="M11166 5289 c-19 -16 -38 -38 -41 -48 -3 -10 -16 -23 -30 -29 -16 -7
-23 -17 -19 -26 9 -24 68 -56 104 -56 59 0 97 -26 121 -85 12 -30 29 -57 37
-60 31 -12 182 50 234 96 18 15 15 17 -38 38 -31 11 -64 21 -75 21 -11 0 -35
22 -58 53 -21 28 -49 59 -61 67 -12 8 -36 25 -53 38 -43 31 -79 28 -121 -9z"/>
<path d="M5195 5300 c3 -5 8 -10 11 -10 2 0 4 5 4 10 0 6 -5 10 -11 10 -5 0
-7 -4 -4 -10z"/>
<path d="M10481 5296 c-7 -8 -9 -21 -5 -27 5 -9 2 -10 -11 -5 -11 4 -22 2 -27
-6 -13 -21 -9 -28 12 -28 11 0 20 5 20 11 0 5 5 7 10 4 6 -3 10 -1 10 5 0 6 6
8 13 5 6 -4 4 0 -5 8 -13 10 -14 17 -6 25 6 6 9 14 6 17 -3 3 -11 -1 -17 -9z"/>
<path d="M5250 5274 c0 -8 5 -12 10 -9 6 3 10 10 10 16 0 5 -4 9 -10 9 -5 0
-10 -7 -10 -16z"/>
<path d="M5330 5280 c0 -5 5 -10 10 -10 6 0 10 5 10 10 0 6 -4 10 -10 10 -5 0
-10 -4 -10 -10z"/>
<path d="M9740 5216 c0 -9 7 -16 16 -16 17 0 14 22 -4 28 -7 2 -12 -3 -12 -12z"/>
<path d="M6891 5194 c0 -11 3 -14 6 -6 3 7 2 16 -1 19 -3 4 -6 -2 -5 -13z"/>
<path d="M6915 5178 c3 -16 0 -28 -8 -31 -6 -2 -8 -8 -4 -13 5 -5 14 0 20 11
14 25 18 47 7 40 -5 -3 -11 1 -14 7 -3 7 -4 1 -1 -14z"/>
<path d="M9755 5179 c-4 -6 -5 -12 -2 -15 2 -3 7 2 10 11 7 17 1 20 -8 4z"/>
<path d="M10610 5161 c0 -5 5 -13 10 -16 6 -3 10 -2 10 4 0 5 -4 13 -10 16 -5
3 -10 2 -10 -4z"/>
<path d="M10565 5108 c9 -16 22 -28 27 -28 10 0 8 -21 -11 -97 -27 -108 -29
-124 -14 -119 8 3 19 6 25 6 6 0 8 7 4 15 -3 8 -1 15 3 15 5 0 12 -7 15 -16 4
-11 10 -13 19 -7 17 14 72 7 147 -17 90 -29 152 -40 147 -27 -2 6 -23 25 -46
42 -24 16 -54 50 -68 75 -31 56 -52 80 -78 90 -14 5 -22 3 -25 -7 -4 -10 -17
-6 -55 19 -28 18 -52 35 -55 38 -3 3 -16 14 -29 25 l-24 20 18 -27z"/>
<path d="M12225 5039 c4 -13 19 -44 34 -69 15 -25 40 -72 54 -104 15 -32 30
-57 32 -54 14 14 -91 240 -114 246 -10 3 -11 -2 -6 -19z"/>
<path d="M5527 5029 c7 -7 15 -10 18 -7 3 3 -2 9 -12 12 -14 6 -15 5 -6 -5z"/>
<path d="M12160 5003 c0 -3 8 -17 19 -31 10 -15 21 -40 25 -55 5 -21 11 -27
22 -23 9 3 20 6 25 6 32 0 -32 93 -71 103 -11 3 -20 3 -20 0z"/>
<path d="M5441 4984 c0 -11 3 -14 6 -6 3 7 2 16 -1 19 -3 4 -6 -2 -5 -13z"/>
<path d="M6760 4975 c-24 -13 -50 -50 -144 -205 -51 -83 -52 -87 -32 -133 12
-29 22 -35 77 -51 35 -9 97 -37 136 -61 l73 -43 50 24 c27 13 50 28 50 33 0 5
15 42 33 83 75 164 80 182 63 222 -10 24 -22 36 -34 36 -25 0 -58 17 -108 57
-22 17 -52 34 -67 37 -15 3 -37 8 -49 10 -13 3 -34 -1 -48 -9z"/>
<path d="M5655 4960 c-18 -20 -18 -20 7 -20 24 0 46 26 33 38 -3 3 -5 -1 -5
-9 0 -11 -2 -11 -8 -1 -7 9 -13 8 -27 -8z"/>
<path d="M5385 4960 c-3 -5 -1 -10 4 -10 6 0 11 5 11 10 0 6 -2 10 -4 10 -3 0
-8 -4 -11 -10z"/>
<path d="M5485 4960 c3 -5 8 -10 11 -10 2 0 4 5 4 10 0 6 -5 10 -11 10 -5 0
-7 -4 -4 -10z"/>
<path d="M9310 4950 c0 -5 5 -10 10 -10 6 0 10 -9 10 -19 0 -11 4 -22 9 -25
13 -8 20 41 8 53 -14 14 -37 14 -37 1z"/>
<path d="M5267 4939 c7 -7 15 -10 18 -7 3 3 -2 9 -12 12 -14 6 -15 5 -6 -5z"/>
<path d="M5380 4929 c0 -5 5 -7 10 -4 6 3 10 8 10 11 0 2 -4 4 -10 4 -5 0 -10
-5 -10 -11z"/>
<path d="M9212 4914 c-7 -14 -8 -23 -3 -19 5 3 12 1 16 -5 9 -15 35 -12 35 3
0 8 -8 21 -18 31 -18 15 -19 15 -30 -10z"/>
<path d="M5330 4921 c0 -5 9 -11 20 -14 13 -3 20 0 20 9 0 8 -9 14 -20 14 -11
0 -20 -4 -20 -9z"/>
<path d="M5417 4923 c-4 -3 -7 -11 -7 -17 0 -6 5 -5 12 2 6 6 9 14 7 17 -3 3
-9 2 -12 -2z"/>
<path d="M5260 4900 c0 -5 5 -10 10 -10 6 0 10 5 10 10 0 6 -4 10 -10 10 -5 0
-10 -4 -10 -10z"/>
<path d="M5170 4881 c0 -5 9 -11 20 -14 12 -3 20 0 20 7 0 6 -9 12 -20 13 -11
1 -20 -2 -20 -6z"/>
<path d="M5335 4850 c3 -5 8 -10 11 -10 2 0 4 5 4 10 0 6 -5 10 -11 10 -5 0
-7 -4 -4 -10z"/>
<path d="M5420 4844 c0 -8 5 -12 10 -9 6 4 8 11 5 16 -9 14 -15 11 -15 -7z"/>
<path d="M11550 4852 c0 -5 7 -15 15 -22 8 -7 15 -8 15 -2 0 5 -7 15 -15 22
-8 7 -15 8 -15 2z"/>
<path d="M4790 4820 c0 -5 9 -10 20 -10 11 0 20 5 20 10 0 6 -9 10 -20 10 -11
0 -20 -4 -20 -10z"/>
<path d="M4370 4750 c0 -5 5 -10 10 -10 6 0 10 5 10 10 0 6 -4 10 -10 10 -5 0
-10 -4 -10 -10z"/>
<path d="M10538 4722 c-4 -12 0 -19 11 -19 16 0 31 14 31 30 0 16 -38 6 -42
-11z"/>
<path d="M10628 4719 c-23 -13 -13 -67 16 -91 21 -17 21 -17 -10 -9 -20 6 -36
5 -47 -4 -19 -14 -22 -25 -7 -25 6 0 22 -12 35 -26 18 -19 25 -23 25 -11 0 8
-6 17 -12 20 -7 2 11 7 40 11 28 4 52 12 52 18 0 7 4 7 13 0 27 -22 137 5 137
34 0 7 7 14 15 16 10 2 12 8 6 17 -7 10 -28 14 -79 12 -41 -1 -73 2 -77 9 -4
7 -13 7 -27 -1 -25 -13 -44 7 -26 28 8 10 5 13 -13 13 -13 0 -32 -5 -41 -11z"/>
<path d="M10895 4720 c-4 -6 -3 -16 3 -22 6 -6 12 -6 17 2 4 6 3 16 -3 22 -6
6 -12 6 -17 -2z"/>
<path d="M9276 4681 c-6 -9 15 -25 61 -50 18 -9 22 -9 17 2 -2 8 -20 20 -39
27 -19 7 -32 17 -29 22 3 4 3 8 0 8 -3 0 -7 -4 -10 -9z"/>
<path d="M10570 4665 c0 -8 5 -15 10 -15 6 0 10 7 10 15 0 8 -4 15 -10 15 -5
0 -10 -7 -10 -15z"/>
<path d="M9390 4611 c24 -20 40 -26 40 -16 0 2 -15 12 -32 20 l-33 16 25 -20z"/>
<path d="M11390 4595 c0 -12 21 -24 42 -25 5 0 24 -9 43 -20 20 -11 41 -20 48
-20 14 0 -33 39 -48 40 -6 0 -27 9 -48 19 -28 14 -37 16 -37 6z"/>
<path d="M11720 4529 c-23 -43 -24 -43 -97 -13 -50 20 -39 -3 11 -26 25 -11
49 -20 54 -20 5 0 21 23 36 50 15 28 25 50 22 50 -3 0 -15 -18 -26 -41z"/>
<path d="M5562 4468 c-11 -29 -26 -71 -35 -93 -8 -22 -21 -56 -29 -75 -13 -31
-13 -47 0 -128 14 -91 15 -94 52 -118 l39 -26 30 23 c17 13 31 26 31 29 0 4
15 27 34 51 18 24 45 76 59 115 25 69 25 70 6 95 -10 13 -19 32 -19 42 0 9 -4
17 -9 17 -5 0 -13 9 -16 20 -3 11 -11 20 -17 20 -13 0 -68 56 -68 70 0 5 -8
10 -19 10 -13 0 -24 -15 -39 -52z"/>
<path d="M12130 4500 c0 -5 5 -10 11 -10 5 0 7 5 4 10 -3 6 -8 10 -11 10 -2 0
-4 -4 -4 -10z"/>
<path d="M3890 4490 c0 -5 5 -10 10 -10 6 0 10 5 10 10 0 6 -4 10 -10 10 -5 0
-10 -4 -10 -10z"/>
<path d="M3970 4470 c0 -5 5 -10 11 -10 5 0 7 5 4 10 -3 6 -8 10 -11 10 -2 0
-4 -4 -4 -10z"/>
<path d="M12127 4459 c7 -7 15 -10 18 -7 3 3 -2 9 -12 12 -14 6 -15 5 -6 -5z"/>
<path d="M11060 4419 c0 -5 5 -7 10 -4 6 3 10 8 10 11 0 2 -4 4 -10 4 -5 0
-10 -5 -10 -11z"/>
<path d="M5367 4237 c-25 -17 -46 -85 -41 -129 4 -41 -13 -51 -36 -23 -13 15
-90 22 -90 8 0 -5 -18 -26 -39 -48 -53 -55 -83 -120 -75 -161 10 -54 -4 -94
-42 -116 -71 -42 -22 -118 66 -103 21 4 58 19 82 34 48 30 88 47 135 56 24 5
34 14 42 37 6 17 11 38 11 46 0 8 12 31 28 51 30 40 32 60 18 254 -7 91 -10
107 -25 107 -9 0 -25 -6 -34 -13z"/>
<path d="M11140 4230 c0 -5 5 -10 10 -10 6 0 10 5 10 10 0 6 -4 10 -10 10 -5
0 -10 -4 -10 -10z"/>
<path d="M4320 4200 c0 -5 5 -10 11 -10 5 0 7 5 4 10 -3 6 -8 10 -11 10 -2 0
-4 -4 -4 -10z"/>
<path d="M10977 4143 c-4 -3 -7 -13 -7 -22 1 -13 3 -13 11 2 11 19 8 33 -4 20z"/>
<path d="M11070 4123 c0 -5 7 -18 15 -29 12 -16 14 -16 15 -3 0 9 -7 22 -15
29 -8 7 -15 8 -15 3z"/>
<path d="M11127 4114 c-4 -4 -7 -14 -7 -23 0 -11 3 -12 11 -4 6 6 10 16 7 23
-2 6 -7 8 -11 4z"/>
<path d="M4490 4080 c0 -5 5 -10 10 -10 6 0 10 5 10 10 0 6 -4 10 -10 10 -5 0
-10 -4 -10 -10z"/>
<path d="M12780 4083 c0 -5 -11 -13 -25 -20 -17 -8 -25 -8 -25 0 0 6 -2 8 -5
5 -8 -8 48 -101 63 -106 9 -3 12 15 12 62 0 37 -4 66 -10 66 -5 0 -10 -3 -10
-7z"/>
<path d="M4665 4070 c-3 -5 -1 -10 4 -10 6 0 11 5 11 10 0 6 -2 10 -4 10 -3 0
-8 -4 -11 -10z"/>
<path d="M4610 4066 c0 -2 7 -7 16 -10 8 -3 12 -2 9 4 -6 10 -25 14 -25 6z"/>
<path d="M11027 4063 c-10 -9 -9 -23 2 -23 5 0 11 7 15 15 5 15 -5 20 -17 8z"/>
<path d="M11060 4065 c6 -27 -3 -35 -37 -36 l-38 -1 35 -8 c19 -5 57 -10 85
-12 41 -2 50 0 53 15 2 10 -3 17 -12 17 -9 0 -16 7 -16 15 0 8 -5 15 -10 15
-6 0 -8 -11 -4 -25 5 -19 2 -25 -11 -25 -9 0 -14 4 -11 9 3 4 -4 17 -15 27
-11 10 -20 14 -19 9z"/>
<path d="M4791 4044 c0 -11 3 -14 6 -6 3 7 2 16 -1 19 -3 4 -6 -2 -5 -13z"/>
<path d="M4825 4049 c-12 -19 5 -23 22 -6 16 16 16 17 1 17 -9 0 -20 -5 -23
-11z"/>
<path d="M4701 4034 c0 -11 3 -14 6 -6 3 7 2 16 -1 19 -3 4 -6 -2 -5 -13z"/>
<path d="M5665 4010 c3 -5 11 -10 16 -10 6 0 7 5 4 10 -3 6 -11 10 -16 10 -6
0 -7 -4 -4 -10z"/>
<path d="M3240 3685 c0 -6 129 -129 145 -138 8 -4 15 -13 15 -20 0 -14 98 -62
108 -53 11 12 -140 155 -193 183 -48 26 -75 36 -75 28z m70 -46 c0 -6 -4 -7
-10 -4 -5 3 -10 11 -10 16 0 6 5 7 10 4 6 -3 10 -11 10 -16z"/>
<path d="M3605 3660 c-4 -6 4 -19 17 -30 21 -16 48 -77 48 -108 0 -6 -10 -12
-22 -14 l-23 -3 23 -22 c12 -13 18 -23 12 -23 -5 0 -21 12 -37 27 -22 22 -26
24 -20 8 17 -45 73 -128 90 -133 9 -2 17 -8 17 -13 0 -5 6 -9 14 -9 9 0 12 10
10 33 -3 23 -1 28 6 17 5 -8 10 -10 10 -5 0 6 5 2 11 -7 5 -10 14 -18 18 -18
19 0 18 30 0 85 -19 59 -17 80 7 71 18 -7 18 23 0 47 -14 18 -14 18 -19 0 -4
-16 -5 -16 -6 0 -1 18 -21 25 -21 7 0 -5 -5 -10 -12 -10 -9 0 -9 3 0 12 14 14
15 28 3 47 -7 11 -14 10 -37 -4 -16 -9 -22 -11 -14 -4 19 17 25 66 7 51 -7 -5
-25 -12 -40 -14 -21 -4 -27 -2 -23 8 6 16 -10 19 -19 4z m170 -130 c-3 -5 -11
-10 -16 -10 -6 0 -7 5 -4 10 3 6 11 10 16 10 6 0 7 -4 4 -10z"/>
<path d="M4165 3619 c-4 -11 -5 -22 -3 -23 15 -11 99 -36 118 -35 l25 0 -25
10 c-14 6 -28 17 -33 25 -4 8 -13 14 -18 14 -6 0 -17 7 -25 15 -21 20 -31 19
-39 -6z"/>
<path d="M4133 3596 c3 -7 -1 -26 -9 -41 -17 -33 -13 -42 10 -20 18 18 22 75
5 75 -6 0 -9 -6 -6 -14z"/>
<path d="M4720 3356 c0 -2 7 -7 16 -10 8 -3 12 -2 9 4 -6 10 -25 14 -25 6z"/>
<path d="M4814 3225 c4 -16 12 -34 17 -40 7 -7 8 0 3 20 -3 17 -11 35 -17 40
-6 7 -7 0 -3 -20z"/>
<path d="M4406 3185 c-3 -9 0 -15 9 -15 16 0 20 16 6 24 -5 3 -11 -1 -15 -9z"/>
<path d="M6374 3169 c-9 -16 15 -29 53 -29 38 0 51 15 24 29 -26 14 -68 14
-77 0z"/>
<path d="M5096 2853 c-6 -14 -5 -15 5 -6 7 7 10 15 7 18 -3 3 -9 -2 -12 -12z"/>
<path d="M3115 2749 c-4 -6 -5 -12 -2 -15 2 -3 7 2 10 11 7 17 1 20 -8 4z"/>
<path d="M3418 2593 c7 -3 16 -2 19 1 4 3 -2 6 -13 5 -11 0 -14 -3 -6 -6z"/>
<path d="M5425 2128 c-24 -14 -45 -34 -45 -43 0 -12 -27 -34 -34 -28 -3 4 -6
-1 -6 -10 0 -9 -6 -17 -12 -17 -9 -1 -7 -5 3 -13 13 -10 14 -15 4 -24 -7 -7
-16 -9 -19 -6 -3 4 -6 1 -6 -5 0 -19 59 -5 80 20 55 64 80 103 75 116 -3 7 -5
16 -5 18 0 7 -14 4 -35 -8z"/>
<path d="M5270 1976 c0 -9 5 -16 10 -16 6 0 10 4 10 9 0 6 -4 13 -10 16 -5 3
-10 -1 -10 -9z"/>
<path d="M5180 1931 c0 -6 5 -13 10 -16 6 -3 10 1 10 9 0 9 -4 16 -10 16 -5 0
-10 -4 -10 -9z"/>
<path d="M11972 1878 c-7 -7 -12 -17 -12 -22 0 -6 5 -4 10 4 9 13 13 11 30
-10 l20 -25 -12 33 c-14 35 -18 38 -36 20z"/>
<path d="M12730 1866 c0 -8 -13 -24 -29 -35 -16 -11 -31 -30 -34 -41 -8 -32
29 -7 58 40 28 44 30 50 15 50 -5 0 -10 -6 -10 -14z"/>
<path d="M12474 1821 c3 -5 15 -11 26 -14 17 -4 19 -3 9 9 -12 15 -44 20 -35
5z"/>
<path d="M11810 1619 c0 -5 5 -7 10 -4 6 3 10 8 10 11 0 2 -4 4 -10 4 -5 0
-10 -5 -10 -11z"/>
<path d="M12561 1517 c-1 -4 6 -18 15 -32 14 -22 15 -70 1 -92 -3 -5 1 -16 8
-26 12 -17 15 -17 65 -1 58 19 141 71 148 93 4 10 0 12 -14 6 -43 -18 -62 -17
-82 6 -18 18 -24 20 -37 9 -14 -12 -20 -7 -15 15 1 6 -4 4 -11 -2 -20 -20 -45
-15 -62 10 -9 12 -16 18 -16 14z"/>
<path d="M7241 1437 c-30 -15 -39 -37 -14 -37 31 0 107 26 111 38 5 16 -66 15
-97 -1z"/>
<path d="M4880 1140 c0 -13 20 -13 40 0 12 8 9 10 -12 10 -16 0 -28 -4 -28
-10z"/>
<path d="M7585 1069 c-6 -47 -4 -63 6 -70 10 -6 15 -35 16 -96 1 -48 5 -107 9
-130 4 -32 3 -43 -7 -45 -8 -1 27 -4 76 -7 105 -7 125 -1 124 37 -1 40 -12 62
-39 75 -16 8 -26 23 -28 40 -2 15 -9 27 -16 27 -18 0 -49 37 -41 49 3 6 -3 24
-14 40 -12 16 -21 37 -21 48 -1 24 -32 86 -46 90 -8 3 -15 -18 -19 -58z"/>
<path d="M5088 893 c7 -3 16 -2 19 1 4 3 -2 6 -13 5 -11 0 -14 -3 -6 -6z"/>
<path d="M4847 862 c-24 -25 -36 -52 -22 -52 2 0 15 11 29 25 14 14 32 25 41
25 9 0 15 6 13 13 -8 22 -33 18 -61 -11z"/>
<path d="M7311 863 l-54 -26 41 -34 c42 -34 56 -73 27 -73 -20 0 -20 -49 0
-56 8 -3 29 -1 47 6 18 6 56 14 83 16 28 3 61 7 75 10 l25 6 -25 13 c-14 8
-44 17 -67 21 -50 7 -72 28 -56 53 6 9 14 31 17 48 6 26 4 31 -16 37 -32 8
-37 7 -97 -21z"/>
<path d="M4657 845 c-11 -7 -36 -17 -58 -20 -21 -4 -39 -10 -39 -14 0 -12 84
-36 115 -33 21 2 35 12 48 33 9 17 17 35 17 40 0 14 -63 10 -83 -6z"/>
<path d="M4963 823 c-34 -7 -32 -53 2 -53 33 0 95 31 95 47 0 13 -46 16 -97 6z"/>
<path d="M6408 743 c7 -3 16 -2 19 1 4 3 -2 6 -13 5 -11 0 -14 -3 -6 -6z"/>
<path d="M8066 703 c-3 -4 -6 -10 -6 -14 0 -10 28 -20 34 -11 5 9 -20 32 -28
25z"/>
<path d="M7100 661 c0 -9 59 -21 100 -20 24 1 24 1 -5 14 -34 16 -95 20 -95 6z"/>
<path d="M8412 658 c-7 -7 -12 -20 -12 -30 0 -28 66 -25 75 3 11 34 -36 54
-63 27z"/>
<path d="M8561 634 c0 -11 3 -14 6 -6 3 7 2 16 -1 19 -3 4 -6 -2 -5 -13z"/>
<path d="M4727 573 c-32 -5 -34 -35 -3 -41 11 -3 16 0 12 7 -4 7 1 11 13 11
12 0 21 7 21 15 0 8 -3 14 -7 14 -5 -1 -21 -4 -36 -6z"/>
<path d="M4895 540 c3 -5 10 -10 16 -10 5 0 9 5 9 10 0 6 -7 10 -16 10 -8 0
-12 -4 -9 -10z"/>
<path d="M4750 490 c-13 -8 -13 -10 2 -10 9 0 20 5 23 10 8 13 -5 13 -25 0z"/>
<path d="M4786 458 c2 -7 29 -24 59 -36 41 -18 58 -21 72 -13 16 9 15 10 -10
11 -15 0 -50 11 -77 25 -28 14 -47 20 -44 13z"/>
<path d="M9460 285 c0 -8 5 -15 10 -15 6 0 10 7 10 15 0 8 -4 15 -10 15 -5 0
-10 -7 -10 -15z"/>
<path d="M9501 293 c0 -6 -4 -20 -7 -30 -5 -14 -4 -15 5 -7 7 7 11 20 8 30 -3
11 -5 14 -6 7z"/>
<path d="M8710 50 c0 -5 5 -10 10 -10 6 0 10 5 10 10 0 6 -4 10 -10 10 -5 0
-10 -4 -10 -10z"/>
<path d="M6960 18 c0 -8 14 -14 33 -15 30 -2 31 -1 13 12 -24 18 -46 19 -46 3z"/>
<path d="M6745 10 c-3 -5 3 -10 15 -10 12 0 18 5 15 10 -3 6 -10 10 -15 10 -5
0 -12 -4 -15 -10z"/>
<path d="M7230 10 c0 -5 5 -10 10 -10 6 0 10 5 10 10 0 6 -4 10 -10 10 -5 0
-10 -4 -10 -10z"/>
<path d="M6698 3 c7 -3 16 -2 19 1 4 3 -2 6 -13 5 -11 0 -14 -3 -6 -6z"/>
</g>
</svg>
